<?xml version="1.0" encoding="UTF-8" standalone="no"?>
<!-- Created with Inkscape (http://www.inkscape.org/) -->

<svg
   version="1.1"
   id="svg25"
   xml:space="preserve"
   width="576"
   height="384"
   viewBox="0 0 576 384"
   sodipodi:docname="adaptive_landscape.pdf"
   inkscape:version="1.1 (c4e8f9e, 2021-05-24)"
   inkscape:dataloss="true"
   xmlns:inkscape="http://www.inkscape.org/namespaces/inkscape"
   xmlns:sodipodi="http://sodipodi.sourceforge.net/DTD/sodipodi-0.dtd"
   xmlns="http://www.w3.org/2000/svg"
   xmlns:svg="http://www.w3.org/2000/svg"><defs
     id="defs29"><marker
       style="overflow:visible;"
       id="Arrow2Lend"
       refX="0.0"
       refY="0.0"
       orient="auto"
       inkscape:stockid="Arrow2Lend"
       inkscape:isstock="true"><path
         transform="scale(1.1) rotate(180) translate(1,0)"
         d="M 8.7185878,4.0337352 L -2.2072895,0.016013256 L 8.7185884,-4.0017078 C 6.9730900,-1.6296469 6.9831476,1.6157441 8.7185878,4.0337352 z "
         style="fill-rule:evenodd;fill:context-stroke;stroke-width:0.62500000;stroke-linejoin:round;"
         id="path1412" /></marker><marker
       style="overflow:visible;"
       id="Arrow1Lend"
       refX="0.0"
       refY="0.0"
       orient="auto"
       inkscape:stockid="Arrow1Lend"
       inkscape:isstock="true"><path
         transform="scale(0.8) rotate(180) translate(12.5,0)"
         style="fill-rule:evenodd;fill:context-stroke;stroke:context-stroke;stroke-width:1.0pt;"
         d="M 0.0,0.0 L 5.0,-5.0 L -12.5,0.0 L 5.0,5.0 L 0.0,0.0 z "
         id="path1394" /></marker><marker
       style="overflow:visible"
       id="Arrow1Lstart"
       refX="0.0"
       refY="0.0"
       orient="auto"
       inkscape:stockid="Arrow1Lstart"
       inkscape:isstock="true"><path
         transform="scale(0.8) translate(12.5,0)"
         style="fill-rule:evenodd;fill:context-stroke;stroke:context-stroke;stroke-width:1.0pt"
         d="M 0.0,0.0 L 5.0,-5.0 L -12.5,0.0 L 5.0,5.0 L 0.0,0.0 z "
         id="path1391" /></marker><marker
       style="overflow:visible"
       id="Arrow2Sstart"
       refX="0.0"
       refY="0.0"
       orient="auto"
       inkscape:stockid="Arrow2Sstart"
       inkscape:isstock="true"><path
         transform="scale(0.3) translate(-2.3,0)"
         d="M 8.7185878,4.0337352 L -2.2072895,0.016013256 L 8.7185884,-4.0017078 C 6.9730900,-1.6296469 6.9831476,1.6157441 8.7185878,4.0337352 z "
         style="fill-rule:evenodd;fill:context-stroke;stroke-width:0.62500000;stroke-linejoin:round"
         id="path1421" /></marker><clipPath
       clipPathUnits="userSpaceOnUse"
       id="clipPath65"><path
         d="M 54,36 H 388.8 V 253.44 H 54 Z"
         id="path63" /></clipPath><clipPath
       clipPathUnits="userSpaceOnUse"
       id="clipPath75"><path
         d="M 54,36 H 388.8 V 253.44 H 54 Z"
         id="path73" /></clipPath><clipPath
       clipPathUnits="userSpaceOnUse"
       id="clipPath85"><path
         d="M 54,36 H 388.8 V 253.44 H 54 Z"
         id="path83" /></clipPath><clipPath
       clipPathUnits="userSpaceOnUse"
       id="clipPath95"><path
         d="M 54,36 H 388.8 V 253.44 H 54 Z"
         id="path93" /></clipPath></defs><sodipodi:namedview
     id="namedview27"
     pagecolor="#ffffff"
     bordercolor="#cccccc"
     borderopacity="1"
     inkscape:pageshadow="0"
     inkscape:pageopacity="1"
     inkscape:pagecheckerboard="0"
     showgrid="false"
     showborder="false"
     inkscape:zoom="0.82537955"
     inkscape:cx="298.0447"
     inkscape:cy="224.74509"
     inkscape:window-width="1312"
     inkscape:window-height="777"
     inkscape:window-x="0"
     inkscape:window-y="25"
     inkscape:window-maximized="0"
     inkscape:current-layer="g31" /><g
     id="g31"
     inkscape:groupmode="layer"
     inkscape:label="adaptive_landscape"
     transform="matrix(1.3333333,0,0,-1.3333333,0,384)"><path
       d="M 67.430052,32.642487 H 402.23005 V 250.08249 H 67.430052 Z"
       style="fill:#ffffff;fill-opacity:1;fill-rule:nonzero;stroke:none"
       id="path33" /><g
       id="g35"
       transform="translate(172.68906,16.796875)"><text
         transform="scale(1,-1)"
         style="font-variant:normal;font-weight:normal;font-size:20px;font-family:DejaVuSans;-inkscape-font-specification:DejaVuSans;writing-mode:lr-tb;fill:#000000;fill-opacity:1;fill-rule:nonzero;stroke:none"
         id="text39"><tspan
           x="0 15.5 27.799999 40.48 52.720001 60.560001 72.400002 85.099998"
           y="0"
           sodipodi:role="line"
           id="tspan37">Genotype</tspan></text></g><path
       d="M 54,50.850245 H 50.5"
       style="fill:#000000;fill-opacity:1;fill-rule:nonzero;stroke:#000000;stroke-width:0.8;stroke-linecap:butt;stroke-linejoin:round;stroke-miterlimit:10;stroke-dasharray:none;stroke-opacity:1"
       id="path41" /><path
       d="M 54,85.693659 H 50.5"
       style="fill:#000000;fill-opacity:1;fill-rule:nonzero;stroke:#000000;stroke-width:0.8;stroke-linecap:butt;stroke-linejoin:round;stroke-miterlimit:10;stroke-dasharray:none;stroke-opacity:1"
       id="path43" /><path
       d="M 54,120.53707 H 50.5"
       style="fill:#000000;fill-opacity:1;fill-rule:nonzero;stroke:#000000;stroke-width:0.8;stroke-linecap:butt;stroke-linejoin:round;stroke-miterlimit:10;stroke-dasharray:none;stroke-opacity:1"
       id="path45" /><path
       d="M 54,155.38049 H 50.5"
       style="fill:#000000;fill-opacity:1;fill-rule:nonzero;stroke:#000000;stroke-width:0.8;stroke-linecap:butt;stroke-linejoin:round;stroke-miterlimit:10;stroke-dasharray:none;stroke-opacity:1"
       id="path47" /><path
       d="M 54,190.2239 H 50.5"
       style="fill:#000000;fill-opacity:1;fill-rule:nonzero;stroke:#000000;stroke-width:0.8;stroke-linecap:butt;stroke-linejoin:round;stroke-miterlimit:10;stroke-dasharray:none;stroke-opacity:1"
       id="path49" /><path
       d="M 54,225.06732 H 50.5"
       style="fill:#000000;fill-opacity:1;fill-rule:nonzero;stroke:#000000;stroke-width:0.8;stroke-linecap:butt;stroke-linejoin:round;stroke-miterlimit:10;stroke-dasharray:none;stroke-opacity:1"
       id="path51" /><g
       id="g53"
       transform="rotate(90,-35.629531,74.473281)"><text
         transform="scale(1,-1)"
         style="font-variant:normal;font-weight:normal;font-size:20px;font-family:DejaVuSans;-inkscape-font-specification:DejaVuSans;writing-mode:lr-tb;fill:#000000;fill-opacity:1;fill-rule:nonzero;stroke:none"
         id="text57"><tspan
           x="0 10.046875 15.606875 23.446875 36.126877 48.426876 58.846874"
           y="0"
           sodipodi:role="line"
           id="tspan55">Fitness</tspan></text></g><g
       id="g59"><g
         id="g61"
         clip-path="url(#clipPath65)"><path
           d="m 54,50.850245 2.232,6.827748 2.232,6.170072 2.232,5.544005 2.232,4.94888 2.232,4.384026 2.232,3.848776 2.232,3.342459 2.232,2.864407 2.232,2.413952 2.232,1.990423 2.232,1.593153 2.232,1.22147 2.232,0.874709 2.232,0.552199 2.232,0.25327 2.232,-0.02275 2.232,-0.276517 2.232,-0.508714 2.232,-0.720005 2.232,-0.911057 3.348,-1.68219 3.348,-2.004968 3.348,-2.267915 4.464,-3.335838 5.58,-4.49805 15.624,-12.850809 4.464,-3.363086 4.464,-3.098388 4.464,-2.781508 3.348,-1.852825 3.348,-1.637482 3.348,-1.411979 3.348,-1.179702 3.348,-0.944039 3.348,-0.708375 3.348,-0.476099 3.348,-0.250595 3.348,-0.03525 3.348,0.166543 3.348,0.351404 4.464,0.720493 4.464,0.955085 5.58,1.418781 12.276,3.222195 4.464,0.890416 3.348,0.454775 3.348,0.21102 3.348,-0.09144 2.232,-0.259514 2.232,-0.4407 2.232,-0.641788 2.232,-0.863447 2.232,-1.106348 2.232,-1.371158 2.232,-1.658547 2.232,-1.969182 2.232,-2.303736 2.232,-2.662873 v 0"
           style="fill:none;stroke:#1f77b4;stroke-width:2;stroke-linecap:square;stroke-linejoin:round;stroke-miterlimit:10;stroke-dasharray:none;stroke-opacity:1"
           id="path67" /></g></g><g
       id="g69"><g
         id="g71"
         clip-path="url(#clipPath75)"><path
           d="m 76.32,103.11537 2.232,5.62188 2.232,5.0392 2.232,4.48644 2.232,3.96295 2.232,3.46806 2.232,3.0011 2.232,2.56141 2.232,2.14831 2.232,1.76112 2.232,1.3992 2.232,1.06186 2.232,0.74844 2.232,0.45826 2.232,0.19066 2.232,-0.055 2.232,-0.27947 2.232,-0.48335 2.232,-0.66732 3.348,-1.30404 3.348,-1.61277 3.348,-1.8628 4.464,-2.77754 5.58,-3.77477 14.508,-9.99907 4.464,-2.79409 4.464,-2.54055 4.464,-2.23481 3.348,-1.45013 3.348,-1.24105 3.348,-1.02182 3.348,-0.79581 3.348,-0.56642 3.348,-0.33704 3.348,-0.11102 3.348,0.1082 3.348,0.31728 3.348,0.5128 4.464,0.95812 4.464,1.22572 5.58,1.81572 17.856,6.17146 3.348,0.8657 3.348,0.65292 3.348,0.3837 2.232,0.0768 2.232,-0.0879 2.232,-0.27188 2.232,-0.47576 2.232,-0.7002 2.232,-0.9459 2.232,-1.21349 2.232,-1.50367 2.232,-1.81709 2.232,-2.15443 2.232,-2.51636 1.116,-1.40176 v 0"
           style="fill:none;stroke:#ff7f0e;stroke-width:2;stroke-linecap:square;stroke-linejoin:round;stroke-miterlimit:10;stroke-dasharray:none;stroke-opacity:1"
           id="path77" /></g></g><g
       id="g79"><g
         id="g81"
         clip-path="url(#clipPath85)"><path
           d="m 98.64,155.38049 2.232,3.56138 2.232,3.1203 2.232,2.7058 2.232,2.31723 2.232,1.95391 2.232,1.61517 2.232,1.30036 2.232,1.00878 2.232,0.7398 2.232,0.49271 2.232,0.26687 2.232,0.0616 2.232,-0.12377 2.232,-0.28989 3.348,-0.70592 3.348,-0.97827 3.348,-1.19418 4.464,-1.83688 6.696,-3.04716 8.928,-4.08083 5.58,-2.28769 4.464,-1.5737 4.464,-1.28558 3.348,-0.74815 3.348,-0.54635 3.348,-0.33327 3.348,-0.11228 3.348,0.11322 3.348,0.33985 3.348,0.56423 3.348,0.78296 3.348,0.99266 3.348,1.18993 4.464,1.86566 4.464,2.14105 5.58,2.97494 8.928,5.11739 6.696,3.76252 4.464,2.27922 3.348,1.50589 3.348,1.27154 3.348,0.97962 2.232,0.46094 2.232,0.28527 2.232,0.09 2.232,-0.12543 2.232,-0.36182 2.232,-0.61976 2.232,-0.89997 2.232,-1.20307 2.232,-1.52976 2.232,-1.88071 2.232,-2.25657 2.232,-2.65803 2.232,-3.08573 2.232,-3.54037 2.232,-4.0226 2.232,-4.5331 v 0"
           style="fill:none;stroke:#2ca02c;stroke-width:2;stroke-linecap:square;stroke-linejoin:round;stroke-miterlimit:10;stroke-dasharray:none;stroke-opacity:1"
           id="path87" /></g></g><g
       id="g89"><g
         id="g91"
         clip-path="url(#clipPath95)"><path
           d="m 120.96,207.64561 2.232,2.70675 2.232,2.33228 2.232,1.98273 2.232,1.65743 2.232,1.35571 2.232,1.07692 2.232,0.82035 2.232,0.58537 2.232,0.37129 2.232,0.17745 2.232,0.003 3.348,-0.28084 3.348,-0.56962 3.348,-0.80083 4.464,-1.33427 5.58,-1.93054 12.276,-4.33642 4.464,-1.33761 4.464,-1.09878 3.348,-0.63395 3.348,-0.44934 3.348,-0.24893 3.348,-0.0361 3.348,0.18577 3.348,0.41329 3.348,0.64305 3.348,0.8717 3.348,1.09581 3.348,1.31204 3.348,1.51697 4.464,2.31555 4.464,2.60925 5.58,3.58996 6.696,4.61369 10.044,6.95323 4.464,2.84473 3.348,1.93368 3.348,1.70247 3.348,1.41368 2.232,0.75205 2.232,0.57778 2.232,0.38394 2.232,0.16986 2.232,-0.0651 2.232,-0.32168 2.232,-0.60049 2.232,-0.9022 2.232,-1.22749 2.232,-1.57705 2.232,-1.95152 2.232,-2.35157 2.232,-2.77789 2.232,-3.23114 2.232,-3.71197 2.232,-4.22108 2.232,-4.75912 2.232,-5.32675 1.116,-2.88568 v 0"
           style="fill:none;stroke:#d62728;stroke-width:2;stroke-linecap:square;stroke-linejoin:round;stroke-miterlimit:10;stroke-dasharray:none;stroke-opacity:1"
           id="path97" /></g></g><g
       id="g99"><path
         d="M 54,36 V 253.44"
         style="fill:none;stroke:#000000;stroke-width:0.8;stroke-linecap:square;stroke-linejoin:miter;stroke-miterlimit:10;stroke-dasharray:none;stroke-opacity:1"
         id="path101" /><path
         d="M 54,36 H 388.8"
         style="fill:none;stroke:#000000;stroke-width:0.8;stroke-linecap:square;stroke-linejoin:miter;stroke-miterlimit:10;stroke-dasharray:none;stroke-opacity:1"
         id="path103" /></g><path
       style="fill:none;stroke:#000000;stroke-width:0.933901px;stroke-linecap:butt;stroke-linejoin:miter;stroke-opacity:1;marker-end:url(#Arrow2Lend)"
       d="M 270.0936,36.784644 347.91374,238.21075"
       id="path494" /><text
       xml:space="preserve"
       style="font-style:normal;font-weight:normal;font-size:14px;line-height:1.25;font-family:sans-serif;fill:#000000;fill-opacity:1;stroke:none;stroke-width:0.75"
       x="151.7917"
       y="261.10538"
       id="text2301"
       transform="matrix(0.35275491,0.93571575,0.93571575,-0.35275491,0,0)"><tspan
         sodipodi:role="line"
         id="tspan2299"
         style="font-size:14px;stroke-width:0.75"
         x="151.7917"
         y="261.10538">Environmental gradient</tspan></text><text
       xml:space="preserve"
       style="font-style:normal;font-weight:normal;font-size:25px;line-height:1.25;font-family:sans-serif;fill:#000000;fill-opacity:1;stroke:none;stroke-width:0.75"
       x="163.92183"
       y="53.660988"
       id="text13165"
       transform="scale(1,-1)"><tspan
         sodipodi:role="line"
         id="tspan13163"
         style="font-size:25px;stroke-width:0.75"
         x="163.92183"
         y="53.660988">Unbiased</tspan></text><text
       xml:space="preserve"
       style="font-style:normal;font-weight:normal;font-size:25px;line-height:1.25;font-family:sans-serif;fill:#000000;fill-opacity:1;stroke:none;stroke-width:0.75"
       x="228.61893"
       y="-288.73346"
       id="text13165-0"
       transform="scale(1,-1)"><tspan
         sodipodi:role="line"
         style="font-size:25px;stroke-width:0.75"
         x="228.61893"
         y="-288.73346"
         id="tspan21583">Curated</tspan></text><text
       xml:space="preserve"
       style="font-style:normal;font-weight:normal;font-size:10px;line-height:1.25;font-family:sans-serif;fill:#000000;fill-opacity:1;stroke:none;stroke-width:3.75663"
       x="-170.90152"
       y="-9.7821808"
       id="text15144"
       transform="matrix(0,-0.5948983,-1.6809596,0,0,0)"><tspan
         sodipodi:role="line"
         id="tspan15142"
         style="font-size:10px;stroke-width:3.75663"
         x="-170.90152"
         y="-9.7821808" /></text><g
       id="g21162"
       transform="matrix(1.1441652,0,0,-1.2311583,128.87038,-200.10461)"><path
         style="fill:none;stroke:#000000;stroke-width:1.45;stroke-linecap:butt;stroke-linejoin:round;stroke-miterlimit:4;stroke-dasharray:none;stroke-opacity:1"
         d="m -65.424448,-191.77928 c -1.817346,48.15966 146.296335,0.90867 146.296335,47.25099"
         id="path21019"
         sodipodi:nodetypes="cc" /><path
         style="fill:none;stroke:#000000;stroke-width:1.45;stroke-linecap:butt;stroke-linejoin:round;stroke-miterlimit:4;stroke-dasharray:none;stroke-opacity:1"
         d="m 227.16823,-191.77928 c 1.81734,48.15966 -146.296343,0.90867 -146.296343,47.25099"
         id="path21019-9"
         sodipodi:nodetypes="cc" /></g><g
       id="g22917"><path
         style="fill:none;stroke:#000000;stroke-width:1.50000004;stroke-linecap:butt;stroke-linejoin:round;stroke-miterlimit:4;stroke-dasharray:none;stroke-opacity:1"
         d="m 349.94171,164.77324 c -0.64697,32.31685 52.08104,0.60975 52.08104,31.7071"
         id="path21019-1"
         sodipodi:nodetypes="cc" /><path
         style="fill:none;stroke:#000000;stroke-width:1.50000004;stroke-linecap:butt;stroke-linejoin:round;stroke-miterlimit:4;stroke-dasharray:none;stroke-opacity:1"
         d="m 454.10379,164.77324 c 0.64697,32.31685 -52.08104,0.60975 -52.08104,31.7071"
         id="path21019-9-1"
         sodipodi:nodetypes="cc" /></g><path
       style="fill:none;stroke:#000000;stroke-width:1.60357;stroke-linecap:butt;stroke-linejoin:miter;stroke-miterlimit:4;stroke-dasharray:4.8107, 1.60357;stroke-dashoffset:0;stroke-opacity:1"
       d="M 249.88504,269.82655 V 197.13272"
       id="path22236" /><path
       style="fill:none;stroke:#000000;stroke-width:1.60357;stroke-linecap:butt;stroke-linejoin:miter;stroke-miterlimit:4;stroke-dasharray:4.8107, 1.60357;stroke-dashoffset:0;stroke-opacity:1"
       d="M 310.68,269.83926 V 197.14543"
       id="path22236-4" /></g></svg>
