<?xml version="1.0" encoding="utf-8" standalone="no"?>
<!DOCTYPE svg PUBLIC "-//W3C//DTD SVG 1.1//EN"
  "http://www.w3.org/Graphics/SVG/1.1/DTD/svg11.dtd">
<svg xmlns:xlink="http://www.w3.org/1999/xlink" width="218.020994pt" height="239.65625pt" viewBox="0 0 218.020994 239.65625" xmlns="http://www.w3.org/2000/svg" version="1.1">
 <metadata>
  <rdf:RDF xmlns:dc="http://purl.org/dc/elements/1.1/" xmlns:cc="http://creativecommons.org/ns#" xmlns:rdf="http://www.w3.org/1999/02/22-rdf-syntax-ns#">
   <cc:Work>
    <dc:type rdf:resource="http://purl.org/dc/dcmitype/StillImage"/>
    <dc:date>2024-03-04T16:27:23.457968</dc:date>
    <dc:format>image/svg+xml</dc:format>
    <dc:creator>
     <cc:Agent>
      <dc:title>Matplotlib v3.5.2, https://matplotlib.org/</dc:title>
     </cc:Agent>
    </dc:creator>
   </cc:Work>
  </rdf:RDF>
 </metadata>
 <defs>
  <style type="text/css">*{stroke-linejoin: round; stroke-linecap: butt}</style>
 </defs>
 <g id="figure_1">
  <g id="patch_1">
   <path d="M 0 239.65625 
L 218.020994 239.65625 
L 218.020994 0 
L 0 0 
z
" style="fill: #ffffff"/>
  </g>
  <g id="axes_1">
   <g id="patch_2">
    <path d="M 52.882813 202.1 
L 209.122813 202.1 
L 209.122813 63.5 
L 52.882813 63.5 
z
" style="fill: #ffffff"/>
   </g>
   <g id="matplotlib.axis_1">
    <g id="xtick_1">
     <g id="line2d_1">
      <defs>
       <path id="med87248631" d="M 0 0 
L 0 3.5 
" style="stroke: #000000; stroke-width: 0.8"/>
      </defs>
      <g>
       <use xlink:href="#med87248631" x="59.984631" y="202.1" style="stroke: #000000; stroke-width: 0.8"/>
      </g>
     </g>
     <g id="text_1">
      <!-- $\mathdefault{0}$ -->
      <g transform="translate(56.784631 216.698438)scale(0.1 -0.1)">
       <defs>
        <path id="DejaVuSans-30" d="M 2034 4250 
Q 1547 4250 1301 3770 
Q 1056 3291 1056 2328 
Q 1056 1369 1301 889 
Q 1547 409 2034 409 
Q 2525 409 2770 889 
Q 3016 1369 3016 2328 
Q 3016 3291 2770 3770 
Q 2525 4250 2034 4250 
z
M 2034 4750 
Q 2819 4750 3233 4129 
Q 3647 3509 3647 2328 
Q 3647 1150 3233 529 
Q 2819 -91 2034 -91 
Q 1250 -91 836 529 
Q 422 1150 422 2328 
Q 422 3509 836 4129 
Q 1250 4750 2034 4750 
z
" transform="scale(0.015625)"/>
       </defs>
       <use xlink:href="#DejaVuSans-30" transform="translate(0 0.78125)"/>
      </g>
     </g>
    </g>
    <g id="xtick_2">
     <g id="line2d_2">
      <g>
       <use xlink:href="#med87248631" x="89.640575" y="202.1" style="stroke: #000000; stroke-width: 0.8"/>
      </g>
     </g>
     <g id="text_2">
      <!-- $\mathdefault{10^{-3}}$ -->
      <g transform="translate(77.890575 216.698438)scale(0.1 -0.1)">
       <defs>
        <path id="DejaVuSans-31" d="M 794 531 
L 1825 531 
L 1825 4091 
L 703 3866 
L 703 4441 
L 1819 4666 
L 2450 4666 
L 2450 531 
L 3481 531 
L 3481 0 
L 794 0 
L 794 531 
z
" transform="scale(0.015625)"/>
        <path id="DejaVuSans-2212" d="M 678 2272 
L 4684 2272 
L 4684 1741 
L 678 1741 
L 678 2272 
z
" transform="scale(0.015625)"/>
        <path id="DejaVuSans-33" d="M 2597 2516 
Q 3050 2419 3304 2112 
Q 3559 1806 3559 1356 
Q 3559 666 3084 287 
Q 2609 -91 1734 -91 
Q 1441 -91 1130 -33 
Q 819 25 488 141 
L 488 750 
Q 750 597 1062 519 
Q 1375 441 1716 441 
Q 2309 441 2620 675 
Q 2931 909 2931 1356 
Q 2931 1769 2642 2001 
Q 2353 2234 1838 2234 
L 1294 2234 
L 1294 2753 
L 1863 2753 
Q 2328 2753 2575 2939 
Q 2822 3125 2822 3475 
Q 2822 3834 2567 4026 
Q 2313 4219 1838 4219 
Q 1578 4219 1281 4162 
Q 984 4106 628 3988 
L 628 4550 
Q 988 4650 1302 4700 
Q 1616 4750 1894 4750 
Q 2613 4750 3031 4423 
Q 3450 4097 3450 3541 
Q 3450 3153 3228 2886 
Q 3006 2619 2597 2516 
z
" transform="scale(0.015625)"/>
       </defs>
       <use xlink:href="#DejaVuSans-31" transform="translate(0 0.765625)"/>
       <use xlink:href="#DejaVuSans-30" transform="translate(63.623047 0.765625)"/>
       <use xlink:href="#DejaVuSans-2212" transform="translate(128.203125 39.046875)scale(0.7)"/>
       <use xlink:href="#DejaVuSans-33" transform="translate(186.855469 39.046875)scale(0.7)"/>
      </g>
     </g>
    </g>
    <g id="xtick_3">
     <g id="line2d_3">
      <g>
       <use xlink:href="#med87248631" x="117.73568" y="202.1" style="stroke: #000000; stroke-width: 0.8"/>
      </g>
     </g>
     <g id="text_3">
      <!-- $\mathdefault{10^{-1}}$ -->
      <g transform="translate(105.98568 216.698438)scale(0.1 -0.1)">
       <use xlink:href="#DejaVuSans-31" transform="translate(0 0.684375)"/>
       <use xlink:href="#DejaVuSans-30" transform="translate(63.623047 0.684375)"/>
       <use xlink:href="#DejaVuSans-2212" transform="translate(128.203125 38.965625)scale(0.7)"/>
       <use xlink:href="#DejaVuSans-31" transform="translate(186.855469 38.965625)scale(0.7)"/>
      </g>
     </g>
    </g>
    <g id="xtick_4">
     <g id="line2d_4">
      <g>
       <use xlink:href="#med87248631" x="145.830785" y="202.1" style="stroke: #000000; stroke-width: 0.8"/>
      </g>
     </g>
     <g id="text_4">
      <!-- $\mathdefault{10^{1}}$ -->
      <g transform="translate(137.030785 216.698438)scale(0.1 -0.1)">
       <use xlink:href="#DejaVuSans-31" transform="translate(0 0.684375)"/>
       <use xlink:href="#DejaVuSans-30" transform="translate(63.623047 0.684375)"/>
       <use xlink:href="#DejaVuSans-31" transform="translate(128.203125 38.965625)scale(0.7)"/>
      </g>
     </g>
    </g>
    <g id="xtick_5">
     <g id="line2d_5">
      <g>
       <use xlink:href="#med87248631" x="173.925889" y="202.1" style="stroke: #000000; stroke-width: 0.8"/>
      </g>
     </g>
     <g id="text_5">
      <!-- $\mathdefault{10^{3}}$ -->
      <g transform="translate(165.125889 216.698438)scale(0.1 -0.1)">
       <use xlink:href="#DejaVuSans-31" transform="translate(0 0.765625)"/>
       <use xlink:href="#DejaVuSans-30" transform="translate(63.623047 0.765625)"/>
       <use xlink:href="#DejaVuSans-33" transform="translate(128.203125 39.046875)scale(0.7)"/>
      </g>
     </g>
    </g>
    <g id="xtick_6">
     <g id="line2d_6">
      <g>
       <use xlink:href="#med87248631" x="202.020994" y="202.1" style="stroke: #000000; stroke-width: 0.8"/>
      </g>
     </g>
     <g id="text_6">
      <!-- $\mathdefault{10^{5}}$ -->
      <g transform="translate(193.220994 216.698438)scale(0.1 -0.1)">
       <defs>
        <path id="DejaVuSans-35" d="M 691 4666 
L 3169 4666 
L 3169 4134 
L 1269 4134 
L 1269 2991 
Q 1406 3038 1543 3061 
Q 1681 3084 1819 3084 
Q 2600 3084 3056 2656 
Q 3513 2228 3513 1497 
Q 3513 744 3044 326 
Q 2575 -91 1722 -91 
Q 1428 -91 1123 -41 
Q 819 9 494 109 
L 494 744 
Q 775 591 1075 516 
Q 1375 441 1709 441 
Q 2250 441 2565 725 
Q 2881 1009 2881 1497 
Q 2881 1984 2565 2268 
Q 2250 2553 1709 2553 
Q 1456 2553 1204 2497 
Q 953 2441 691 2322 
L 691 4666 
z
" transform="scale(0.015625)"/>
       </defs>
       <use xlink:href="#DejaVuSans-31" transform="translate(0 0.684375)"/>
       <use xlink:href="#DejaVuSans-30" transform="translate(63.623047 0.684375)"/>
       <use xlink:href="#DejaVuSans-35" transform="translate(128.203125 38.965625)scale(0.7)"/>
      </g>
     </g>
    </g>
    <g id="xtick_7">
     <g id="line2d_7">
      <defs>
       <path id="mc1f55021be" d="M 0 0 
L 0 2 
" style="stroke: #000000; stroke-width: 0.6"/>
      </defs>
      <g>
       <use xlink:href="#mc1f55021be" x="75.593022" y="202.1" style="stroke: #000000; stroke-width: 0.6"/>
      </g>
     </g>
    </g>
    <g id="xtick_8">
     <g id="line2d_8">
      <g>
       <use xlink:href="#mc1f55021be" x="103.688127" y="202.1" style="stroke: #000000; stroke-width: 0.6"/>
      </g>
     </g>
    </g>
    <g id="xtick_9">
     <g id="line2d_9">
      <g>
       <use xlink:href="#mc1f55021be" x="131.783232" y="202.1" style="stroke: #000000; stroke-width: 0.6"/>
      </g>
     </g>
    </g>
    <g id="xtick_10">
     <g id="line2d_10">
      <g>
       <use xlink:href="#mc1f55021be" x="159.878337" y="202.1" style="stroke: #000000; stroke-width: 0.6"/>
      </g>
     </g>
    </g>
    <g id="xtick_11">
     <g id="line2d_11">
      <g>
       <use xlink:href="#mc1f55021be" x="187.973442" y="202.1" style="stroke: #000000; stroke-width: 0.6"/>
      </g>
     </g>
    </g>
    <g id="text_7">
     <!-- Drug Concentration (µg/ml) -->
     <g transform="translate(62.004375 230.376563)scale(0.1 -0.1)">
      <defs>
       <path id="DejaVuSans-44" d="M 1259 4147 
L 1259 519 
L 2022 519 
Q 2988 519 3436 956 
Q 3884 1394 3884 2338 
Q 3884 3275 3436 3711 
Q 2988 4147 2022 4147 
L 1259 4147 
z
M 628 4666 
L 1925 4666 
Q 3281 4666 3915 4102 
Q 4550 3538 4550 2338 
Q 4550 1131 3912 565 
Q 3275 0 1925 0 
L 628 0 
L 628 4666 
z
" transform="scale(0.015625)"/>
       <path id="DejaVuSans-72" d="M 2631 2963 
Q 2534 3019 2420 3045 
Q 2306 3072 2169 3072 
Q 1681 3072 1420 2755 
Q 1159 2438 1159 1844 
L 1159 0 
L 581 0 
L 581 3500 
L 1159 3500 
L 1159 2956 
Q 1341 3275 1631 3429 
Q 1922 3584 2338 3584 
Q 2397 3584 2469 3576 
Q 2541 3569 2628 3553 
L 2631 2963 
z
" transform="scale(0.015625)"/>
       <path id="DejaVuSans-75" d="M 544 1381 
L 544 3500 
L 1119 3500 
L 1119 1403 
Q 1119 906 1312 657 
Q 1506 409 1894 409 
Q 2359 409 2629 706 
Q 2900 1003 2900 1516 
L 2900 3500 
L 3475 3500 
L 3475 0 
L 2900 0 
L 2900 538 
Q 2691 219 2414 64 
Q 2138 -91 1772 -91 
Q 1169 -91 856 284 
Q 544 659 544 1381 
z
M 1991 3584 
L 1991 3584 
z
" transform="scale(0.015625)"/>
       <path id="DejaVuSans-67" d="M 2906 1791 
Q 2906 2416 2648 2759 
Q 2391 3103 1925 3103 
Q 1463 3103 1205 2759 
Q 947 2416 947 1791 
Q 947 1169 1205 825 
Q 1463 481 1925 481 
Q 2391 481 2648 825 
Q 2906 1169 2906 1791 
z
M 3481 434 
Q 3481 -459 3084 -895 
Q 2688 -1331 1869 -1331 
Q 1566 -1331 1297 -1286 
Q 1028 -1241 775 -1147 
L 775 -588 
Q 1028 -725 1275 -790 
Q 1522 -856 1778 -856 
Q 2344 -856 2625 -561 
Q 2906 -266 2906 331 
L 2906 616 
Q 2728 306 2450 153 
Q 2172 0 1784 0 
Q 1141 0 747 490 
Q 353 981 353 1791 
Q 353 2603 747 3093 
Q 1141 3584 1784 3584 
Q 2172 3584 2450 3431 
Q 2728 3278 2906 2969 
L 2906 3500 
L 3481 3500 
L 3481 434 
z
" transform="scale(0.015625)"/>
       <path id="DejaVuSans-20" transform="scale(0.015625)"/>
       <path id="DejaVuSans-43" d="M 4122 4306 
L 4122 3641 
Q 3803 3938 3442 4084 
Q 3081 4231 2675 4231 
Q 1875 4231 1450 3742 
Q 1025 3253 1025 2328 
Q 1025 1406 1450 917 
Q 1875 428 2675 428 
Q 3081 428 3442 575 
Q 3803 722 4122 1019 
L 4122 359 
Q 3791 134 3420 21 
Q 3050 -91 2638 -91 
Q 1578 -91 968 557 
Q 359 1206 359 2328 
Q 359 3453 968 4101 
Q 1578 4750 2638 4750 
Q 3056 4750 3426 4639 
Q 3797 4528 4122 4306 
z
" transform="scale(0.015625)"/>
       <path id="DejaVuSans-6f" d="M 1959 3097 
Q 1497 3097 1228 2736 
Q 959 2375 959 1747 
Q 959 1119 1226 758 
Q 1494 397 1959 397 
Q 2419 397 2687 759 
Q 2956 1122 2956 1747 
Q 2956 2369 2687 2733 
Q 2419 3097 1959 3097 
z
M 1959 3584 
Q 2709 3584 3137 3096 
Q 3566 2609 3566 1747 
Q 3566 888 3137 398 
Q 2709 -91 1959 -91 
Q 1206 -91 779 398 
Q 353 888 353 1747 
Q 353 2609 779 3096 
Q 1206 3584 1959 3584 
z
" transform="scale(0.015625)"/>
       <path id="DejaVuSans-6e" d="M 3513 2113 
L 3513 0 
L 2938 0 
L 2938 2094 
Q 2938 2591 2744 2837 
Q 2550 3084 2163 3084 
Q 1697 3084 1428 2787 
Q 1159 2491 1159 1978 
L 1159 0 
L 581 0 
L 581 3500 
L 1159 3500 
L 1159 2956 
Q 1366 3272 1645 3428 
Q 1925 3584 2291 3584 
Q 2894 3584 3203 3211 
Q 3513 2838 3513 2113 
z
" transform="scale(0.015625)"/>
       <path id="DejaVuSans-63" d="M 3122 3366 
L 3122 2828 
Q 2878 2963 2633 3030 
Q 2388 3097 2138 3097 
Q 1578 3097 1268 2742 
Q 959 2388 959 1747 
Q 959 1106 1268 751 
Q 1578 397 2138 397 
Q 2388 397 2633 464 
Q 2878 531 3122 666 
L 3122 134 
Q 2881 22 2623 -34 
Q 2366 -91 2075 -91 
Q 1284 -91 818 406 
Q 353 903 353 1747 
Q 353 2603 823 3093 
Q 1294 3584 2113 3584 
Q 2378 3584 2631 3529 
Q 2884 3475 3122 3366 
z
" transform="scale(0.015625)"/>
       <path id="DejaVuSans-65" d="M 3597 1894 
L 3597 1613 
L 953 1613 
Q 991 1019 1311 708 
Q 1631 397 2203 397 
Q 2534 397 2845 478 
Q 3156 559 3463 722 
L 3463 178 
Q 3153 47 2828 -22 
Q 2503 -91 2169 -91 
Q 1331 -91 842 396 
Q 353 884 353 1716 
Q 353 2575 817 3079 
Q 1281 3584 2069 3584 
Q 2775 3584 3186 3129 
Q 3597 2675 3597 1894 
z
M 3022 2063 
Q 3016 2534 2758 2815 
Q 2500 3097 2075 3097 
Q 1594 3097 1305 2825 
Q 1016 2553 972 2059 
L 3022 2063 
z
" transform="scale(0.015625)"/>
       <path id="DejaVuSans-74" d="M 1172 4494 
L 1172 3500 
L 2356 3500 
L 2356 3053 
L 1172 3053 
L 1172 1153 
Q 1172 725 1289 603 
Q 1406 481 1766 481 
L 2356 481 
L 2356 0 
L 1766 0 
Q 1100 0 847 248 
Q 594 497 594 1153 
L 594 3053 
L 172 3053 
L 172 3500 
L 594 3500 
L 594 4494 
L 1172 4494 
z
" transform="scale(0.015625)"/>
       <path id="DejaVuSans-61" d="M 2194 1759 
Q 1497 1759 1228 1600 
Q 959 1441 959 1056 
Q 959 750 1161 570 
Q 1363 391 1709 391 
Q 2188 391 2477 730 
Q 2766 1069 2766 1631 
L 2766 1759 
L 2194 1759 
z
M 3341 1997 
L 3341 0 
L 2766 0 
L 2766 531 
Q 2569 213 2275 61 
Q 1981 -91 1556 -91 
Q 1019 -91 701 211 
Q 384 513 384 1019 
Q 384 1609 779 1909 
Q 1175 2209 1959 2209 
L 2766 2209 
L 2766 2266 
Q 2766 2663 2505 2880 
Q 2244 3097 1772 3097 
Q 1472 3097 1187 3025 
Q 903 2953 641 2809 
L 641 3341 
Q 956 3463 1253 3523 
Q 1550 3584 1831 3584 
Q 2591 3584 2966 3190 
Q 3341 2797 3341 1997 
z
" transform="scale(0.015625)"/>
       <path id="DejaVuSans-69" d="M 603 3500 
L 1178 3500 
L 1178 0 
L 603 0 
L 603 3500 
z
M 603 4863 
L 1178 4863 
L 1178 4134 
L 603 4134 
L 603 4863 
z
" transform="scale(0.015625)"/>
       <path id="DejaVuSans-28" d="M 1984 4856 
Q 1566 4138 1362 3434 
Q 1159 2731 1159 2009 
Q 1159 1288 1364 580 
Q 1569 -128 1984 -844 
L 1484 -844 
Q 1016 -109 783 600 
Q 550 1309 550 2009 
Q 550 2706 781 3412 
Q 1013 4119 1484 4856 
L 1984 4856 
z
" transform="scale(0.015625)"/>
       <path id="DejaVuSans-b5" d="M 544 -1331 
L 544 3500 
L 1119 3500 
L 1119 1325 
Q 1119 872 1334 640 
Q 1550 409 1972 409 
Q 2434 409 2667 671 
Q 2900 934 2900 1459 
L 2900 3500 
L 3475 3500 
L 3475 806 
Q 3475 619 3529 530 
Q 3584 441 3700 441 
Q 3728 441 3778 458 
Q 3828 475 3916 513 
L 3916 50 
Q 3788 -22 3673 -56 
Q 3559 -91 3450 -91 
Q 3234 -91 3106 31 
Q 2978 153 2931 403 
Q 2775 156 2548 32 
Q 2322 -91 2016 -91 
Q 1697 -91 1473 31 
Q 1250 153 1119 397 
L 1119 -1331 
L 544 -1331 
z
" transform="scale(0.015625)"/>
       <path id="DejaVuSans-2f" d="M 1625 4666 
L 2156 4666 
L 531 -594 
L 0 -594 
L 1625 4666 
z
" transform="scale(0.015625)"/>
       <path id="DejaVuSans-6d" d="M 3328 2828 
Q 3544 3216 3844 3400 
Q 4144 3584 4550 3584 
Q 5097 3584 5394 3201 
Q 5691 2819 5691 2113 
L 5691 0 
L 5113 0 
L 5113 2094 
Q 5113 2597 4934 2840 
Q 4756 3084 4391 3084 
Q 3944 3084 3684 2787 
Q 3425 2491 3425 1978 
L 3425 0 
L 2847 0 
L 2847 2094 
Q 2847 2600 2669 2842 
Q 2491 3084 2119 3084 
Q 1678 3084 1418 2786 
Q 1159 2488 1159 1978 
L 1159 0 
L 581 0 
L 581 3500 
L 1159 3500 
L 1159 2956 
Q 1356 3278 1631 3431 
Q 1906 3584 2284 3584 
Q 2666 3584 2933 3390 
Q 3200 3197 3328 2828 
z
" transform="scale(0.015625)"/>
       <path id="DejaVuSans-6c" d="M 603 4863 
L 1178 4863 
L 1178 0 
L 603 0 
L 603 4863 
z
" transform="scale(0.015625)"/>
       <path id="DejaVuSans-29" d="M 513 4856 
L 1013 4856 
Q 1481 4119 1714 3412 
Q 1947 2706 1947 2009 
Q 1947 1309 1714 600 
Q 1481 -109 1013 -844 
L 513 -844 
Q 928 -128 1133 580 
Q 1338 1288 1338 2009 
Q 1338 2731 1133 3434 
Q 928 4138 513 4856 
z
" transform="scale(0.015625)"/>
      </defs>
      <use xlink:href="#DejaVuSans-44"/>
      <use xlink:href="#DejaVuSans-72" x="77.001953"/>
      <use xlink:href="#DejaVuSans-75" x="118.115234"/>
      <use xlink:href="#DejaVuSans-67" x="181.494141"/>
      <use xlink:href="#DejaVuSans-20" x="244.970703"/>
      <use xlink:href="#DejaVuSans-43" x="276.757812"/>
      <use xlink:href="#DejaVuSans-6f" x="346.582031"/>
      <use xlink:href="#DejaVuSans-6e" x="407.763672"/>
      <use xlink:href="#DejaVuSans-63" x="471.142578"/>
      <use xlink:href="#DejaVuSans-65" x="526.123047"/>
      <use xlink:href="#DejaVuSans-6e" x="587.646484"/>
      <use xlink:href="#DejaVuSans-74" x="651.025391"/>
      <use xlink:href="#DejaVuSans-72" x="690.234375"/>
      <use xlink:href="#DejaVuSans-61" x="731.347656"/>
      <use xlink:href="#DejaVuSans-74" x="792.626953"/>
      <use xlink:href="#DejaVuSans-69" x="831.835938"/>
      <use xlink:href="#DejaVuSans-6f" x="859.619141"/>
      <use xlink:href="#DejaVuSans-6e" x="920.800781"/>
      <use xlink:href="#DejaVuSans-20" x="984.179688"/>
      <use xlink:href="#DejaVuSans-28" x="1015.966797"/>
      <use xlink:href="#DejaVuSans-b5" x="1054.980469"/>
      <use xlink:href="#DejaVuSans-67" x="1118.603516"/>
      <use xlink:href="#DejaVuSans-2f" x="1182.080078"/>
      <use xlink:href="#DejaVuSans-6d" x="1215.771484"/>
      <use xlink:href="#DejaVuSans-6c" x="1313.183594"/>
      <use xlink:href="#DejaVuSans-29" x="1340.966797"/>
     </g>
    </g>
   </g>
   <g id="matplotlib.axis_2">
    <g id="ytick_1">
     <g id="line2d_12">
      <defs>
       <path id="m21bd4b6adb" d="M 0 0 
L -3.5 0 
" style="stroke: #000000; stroke-width: 0.8"/>
      </defs>
      <g>
       <use xlink:href="#m21bd4b6adb" x="52.882813" y="185.837635" style="stroke: #000000; stroke-width: 0.8"/>
      </g>
     </g>
     <g id="text_8">
      <!-- −0.5 -->
      <g transform="translate(21.6 189.636854)scale(0.1 -0.1)">
       <defs>
        <path id="DejaVuSans-2e" d="M 684 794 
L 1344 794 
L 1344 0 
L 684 0 
L 684 794 
z
" transform="scale(0.015625)"/>
       </defs>
       <use xlink:href="#DejaVuSans-2212"/>
       <use xlink:href="#DejaVuSans-30" x="83.789062"/>
       <use xlink:href="#DejaVuSans-2e" x="147.412109"/>
       <use xlink:href="#DejaVuSans-35" x="179.199219"/>
      </g>
     </g>
    </g>
    <g id="ytick_2">
     <g id="line2d_13">
      <g>
       <use xlink:href="#m21bd4b6adb" x="52.882813" y="154.6908" style="stroke: #000000; stroke-width: 0.8"/>
      </g>
     </g>
     <g id="text_9">
      <!-- 0.0 -->
      <g transform="translate(29.979688 158.490018)scale(0.1 -0.1)">
       <use xlink:href="#DejaVuSans-30"/>
       <use xlink:href="#DejaVuSans-2e" x="63.623047"/>
       <use xlink:href="#DejaVuSans-30" x="95.410156"/>
      </g>
     </g>
    </g>
    <g id="ytick_3">
     <g id="line2d_14">
      <g>
       <use xlink:href="#m21bd4b6adb" x="52.882813" y="123.543965" style="stroke: #000000; stroke-width: 0.8"/>
      </g>
     </g>
     <g id="text_10">
      <!-- 0.5 -->
      <g transform="translate(29.979688 127.343183)scale(0.1 -0.1)">
       <use xlink:href="#DejaVuSans-30"/>
       <use xlink:href="#DejaVuSans-2e" x="63.623047"/>
       <use xlink:href="#DejaVuSans-35" x="95.410156"/>
      </g>
     </g>
    </g>
    <g id="ytick_4">
     <g id="line2d_15">
      <g>
       <use xlink:href="#m21bd4b6adb" x="52.882813" y="92.397129" style="stroke: #000000; stroke-width: 0.8"/>
      </g>
     </g>
     <g id="text_11">
      <!-- 1.0 -->
      <g transform="translate(29.979688 96.196348)scale(0.1 -0.1)">
       <use xlink:href="#DejaVuSans-31"/>
       <use xlink:href="#DejaVuSans-2e" x="63.623047"/>
       <use xlink:href="#DejaVuSans-30" x="95.410156"/>
      </g>
     </g>
    </g>
    <g id="text_12">
     <!-- Net Growth Rate (hr$^{-1}$) -->
     <g transform="translate(15.520313 190.6)rotate(-90)scale(0.1 -0.1)">
      <defs>
       <path id="DejaVuSans-4e" d="M 628 4666 
L 1478 4666 
L 3547 763 
L 3547 4666 
L 4159 4666 
L 4159 0 
L 3309 0 
L 1241 3903 
L 1241 0 
L 628 0 
L 628 4666 
z
" transform="scale(0.015625)"/>
       <path id="DejaVuSans-47" d="M 3809 666 
L 3809 1919 
L 2778 1919 
L 2778 2438 
L 4434 2438 
L 4434 434 
Q 4069 175 3628 42 
Q 3188 -91 2688 -91 
Q 1594 -91 976 548 
Q 359 1188 359 2328 
Q 359 3472 976 4111 
Q 1594 4750 2688 4750 
Q 3144 4750 3555 4637 
Q 3966 4525 4313 4306 
L 4313 3634 
Q 3963 3931 3569 4081 
Q 3175 4231 2741 4231 
Q 1884 4231 1454 3753 
Q 1025 3275 1025 2328 
Q 1025 1384 1454 906 
Q 1884 428 2741 428 
Q 3075 428 3337 486 
Q 3600 544 3809 666 
z
" transform="scale(0.015625)"/>
       <path id="DejaVuSans-77" d="M 269 3500 
L 844 3500 
L 1563 769 
L 2278 3500 
L 2956 3500 
L 3675 769 
L 4391 3500 
L 4966 3500 
L 4050 0 
L 3372 0 
L 2619 2869 
L 1863 0 
L 1184 0 
L 269 3500 
z
" transform="scale(0.015625)"/>
       <path id="DejaVuSans-68" d="M 3513 2113 
L 3513 0 
L 2938 0 
L 2938 2094 
Q 2938 2591 2744 2837 
Q 2550 3084 2163 3084 
Q 1697 3084 1428 2787 
Q 1159 2491 1159 1978 
L 1159 0 
L 581 0 
L 581 4863 
L 1159 4863 
L 1159 2956 
Q 1366 3272 1645 3428 
Q 1925 3584 2291 3584 
Q 2894 3584 3203 3211 
Q 3513 2838 3513 2113 
z
" transform="scale(0.015625)"/>
       <path id="DejaVuSans-52" d="M 2841 2188 
Q 3044 2119 3236 1894 
Q 3428 1669 3622 1275 
L 4263 0 
L 3584 0 
L 2988 1197 
Q 2756 1666 2539 1819 
Q 2322 1972 1947 1972 
L 1259 1972 
L 1259 0 
L 628 0 
L 628 4666 
L 2053 4666 
Q 2853 4666 3247 4331 
Q 3641 3997 3641 3322 
Q 3641 2881 3436 2590 
Q 3231 2300 2841 2188 
z
M 1259 4147 
L 1259 2491 
L 2053 2491 
Q 2509 2491 2742 2702 
Q 2975 2913 2975 3322 
Q 2975 3731 2742 3939 
Q 2509 4147 2053 4147 
L 1259 4147 
z
" transform="scale(0.015625)"/>
      </defs>
      <use xlink:href="#DejaVuSans-4e" transform="translate(0 0.684375)"/>
      <use xlink:href="#DejaVuSans-65" transform="translate(74.804688 0.684375)"/>
      <use xlink:href="#DejaVuSans-74" transform="translate(136.328125 0.684375)"/>
      <use xlink:href="#DejaVuSans-20" transform="translate(175.537109 0.684375)"/>
      <use xlink:href="#DejaVuSans-47" transform="translate(207.324219 0.684375)"/>
      <use xlink:href="#DejaVuSans-72" transform="translate(284.814453 0.684375)"/>
      <use xlink:href="#DejaVuSans-6f" transform="translate(325.927734 0.684375)"/>
      <use xlink:href="#DejaVuSans-77" transform="translate(387.109375 0.684375)"/>
      <use xlink:href="#DejaVuSans-74" transform="translate(468.896484 0.684375)"/>
      <use xlink:href="#DejaVuSans-68" transform="translate(508.105469 0.684375)"/>
      <use xlink:href="#DejaVuSans-20" transform="translate(571.484375 0.684375)"/>
      <use xlink:href="#DejaVuSans-52" transform="translate(603.271484 0.684375)"/>
      <use xlink:href="#DejaVuSans-61" transform="translate(672.753906 0.684375)"/>
      <use xlink:href="#DejaVuSans-74" transform="translate(734.033203 0.684375)"/>
      <use xlink:href="#DejaVuSans-65" transform="translate(773.242188 0.684375)"/>
      <use xlink:href="#DejaVuSans-20" transform="translate(834.765625 0.684375)"/>
      <use xlink:href="#DejaVuSans-28" transform="translate(866.552734 0.684375)"/>
      <use xlink:href="#DejaVuSans-68" transform="translate(905.566406 0.684375)"/>
      <use xlink:href="#DejaVuSans-72" transform="translate(968.945312 0.684375)"/>
      <use xlink:href="#DejaVuSans-2212" transform="translate(1011.015625 38.965625)scale(0.7)"/>
      <use xlink:href="#DejaVuSans-31" transform="translate(1069.667969 38.965625)scale(0.7)"/>
      <use xlink:href="#DejaVuSans-29" transform="translate(1116.938477 0.684375)"/>
     </g>
    </g>
   </g>
   <g id="line2d_16">
    <path d="M 59.984631 69.8 
L 75.593022 90.982872 
L 76.870073 93.169421 
L 78.147123 95.526278 
L 79.424173 98.055391 
L 80.701223 100.756384 
L 81.978273 103.626223 
L 83.255324 106.65894 
L 84.532374 109.845434 
L 85.809424 113.173373 
L 87.086474 116.627216 
L 88.363525 120.188376 
L 89.640575 123.835533 
L 90.917625 127.54508 
L 92.194675 131.291701 
L 93.471725 135.049043 
L 94.748776 138.79045 
L 96.025826 142.489717 
L 97.302876 146.121812 
L 98.579926 149.663535 
L 99.856977 153.094069 
L 101.134027 156.395407 
L 102.411077 159.552627 
L 103.688127 162.554031 
L 104.965177 165.391146 
L 106.242228 168.058597 
L 107.519278 170.553896 
L 108.796328 172.877147 
L 110.073378 175.030715 
L 111.350429 177.018866 
L 112.627479 178.847403 
L 113.904529 180.523325 
L 115.181579 182.054496 
L 116.458629 183.449366 
L 117.73568 184.71671 
L 119.01273 185.865426 
L 120.28978 186.904351 
L 121.56683 187.842129 
L 122.843881 188.687104 
L 124.120931 189.44724 
L 125.397981 190.130069 
L 126.675031 190.742661 
L 127.952081 191.291601 
L 129.229132 191.782991 
L 130.506182 192.222455 
L 131.783232 192.615152 
L 133.060282 192.965798 
L 134.337333 193.278687 
L 135.614383 193.557719 
L 136.891433 193.806426 
L 138.168483 194.028 
L 139.445533 194.225316 
L 140.722584 194.400966 
L 141.999634 194.557276 
L 143.276684 194.696334 
L 144.553734 194.820012 
L 145.830785 194.929985 
L 147.107835 195.027751 
L 148.384885 195.114649 
L 149.661935 195.191875 
L 150.938985 195.260494 
L 152.216036 195.321459 
L 153.493086 195.375617 
L 154.770136 195.423722 
L 156.047186 195.466448 
L 157.324237 195.504393 
L 158.601287 195.538089 
L 159.878337 195.56801 
L 161.155387 195.594578 
L 162.432437 195.618167 
L 163.709488 195.639111 
L 164.986538 195.657705 
L 166.263588 195.674212 
L 167.540638 195.688866 
L 168.817689 195.701875 
L 170.094739 195.713422 
L 171.371789 195.723673 
L 172.648839 195.732773 
L 173.925889 195.74085 
L 175.20294 195.748019 
L 176.47999 195.754383 
L 177.75704 195.760031 
L 179.03409 195.765045 
L 180.311141 195.769495 
L 181.588191 195.773445 
L 182.865241 195.776951 
L 184.142291 195.780062 
L 185.419341 195.782824 
L 186.696392 195.785275 
L 187.973442 195.787451 
L 189.250492 195.789382 
L 190.527542 195.791096 
L 191.804593 195.792617 
L 193.081643 195.793967 
L 194.358693 195.795166 
L 195.635743 195.796229 
L 196.912793 195.797173 
L 198.189844 195.798011 
L 199.466894 195.798754 
L 200.743944 195.799414 
L 202.020994 195.8 
" clip-path="url(#pf75edc7208)" style="fill: none; stroke: #023eff; stroke-width: 1.5; stroke-linecap: square"/>
   </g>
   <g id="line2d_17">
    <path d="M 59.984631 91.672816 
L 75.593022 91.792052 
L 76.870073 91.807143 
L 78.147123 91.82414 
L 79.424173 91.843286 
L 80.701223 91.864849 
L 81.978273 91.889134 
L 83.255324 91.916482 
L 84.532374 91.94728 
L 85.809424 91.981958 
L 87.086474 92.021003 
L 88.363525 92.064962 
L 89.640575 92.114446 
L 90.917625 92.170144 
L 92.194675 92.232829 
L 93.471725 92.303368 
L 94.748776 92.38273 
L 96.025826 92.472004 
L 97.302876 92.572407 
L 98.579926 92.685299 
L 99.856977 92.812203 
L 101.134027 92.954815 
L 102.411077 93.115027 
L 103.688127 93.294945 
L 104.965177 93.496909 
L 106.242228 93.723517 
L 107.519278 93.977641 
L 108.796328 94.262458 
L 110.073378 94.581465 
L 111.350429 94.938506 
L 112.627479 95.337787 
L 113.904529 95.783896 
L 115.181579 96.281816 
L 116.458629 96.836929 
L 117.73568 97.455016 
L 119.01273 98.142245 
L 120.28978 98.905147 
L 121.56683 99.750572 
L 122.843881 100.685631 
L 124.120931 101.717611 
L 125.397981 102.853864 
L 126.675031 104.10167 
L 127.952081 105.468063 
L 129.229132 106.959633 
L 130.506182 108.582287 
L 131.783232 110.34099 
L 133.060282 112.239479 
L 134.337333 114.279967 
L 135.614383 116.462842 
L 136.891433 118.78639 
L 138.168483 121.246546 
L 139.445533 123.836703 
L 140.722584 126.547603 
L 141.999634 129.367315 
L 143.276684 132.281332 
L 144.553734 135.272784 
L 145.830785 138.322772 
L 147.107835 141.410804 
L 148.384885 144.515335 
L 149.661935 147.614353 
L 150.938985 150.686 
L 152.216036 153.709188 
L 153.493086 156.664161 
L 154.770136 159.532984 
L 156.047186 162.299936 
L 157.324237 164.951779 
L 158.601287 167.477914 
L 159.878337 169.870417 
L 161.155387 172.123972 
L 162.432437 174.235717 
L 163.709488 176.205024 
L 164.986538 178.033228 
L 166.263588 179.723344 
L 167.540638 181.279758 
L 168.817689 182.707942 
L 170.094739 184.014174 
L 171.371789 185.205295 
L 172.648839 186.288484 
L 173.925889 187.271077 
L 175.20294 188.160409 
L 176.47999 188.96369 
L 177.75704 189.687912 
L 179.03409 190.339769 
L 180.311141 190.925616 
L 181.588191 191.451429 
L 182.865241 191.922792 
L 184.142291 192.344885 
L 185.419341 192.722493 
L 186.696392 193.060011 
L 187.973442 193.361462 
L 189.250492 193.630513 
L 190.527542 193.870499 
L 191.804593 194.084441 
L 193.081643 194.275072 
L 194.358693 194.444858 
L 195.635743 194.596019 
L 196.912793 194.730551 
L 198.189844 194.850248 
L 199.466894 194.956715 
L 200.743944 195.051391 
L 202.020994 195.135564 
" clip-path="url(#pf75edc7208)" style="fill: none; stroke: #ff7c00; stroke-width: 1.5; stroke-linecap: square"/>
   </g>
   <g id="line2d_18">
    <path d="M 59.984631 112.379784 
L 75.593022 112.546552 
L 76.870073 112.567638 
L 78.147123 112.591383 
L 79.424173 112.618122 
L 80.701223 112.648228 
L 81.978273 112.682124 
L 83.255324 112.720281 
L 84.532374 112.763233 
L 85.809424 112.811574 
L 87.086474 112.865974 
L 88.363525 112.927182 
L 89.640575 112.996039 
L 90.917625 113.073485 
L 92.194675 113.160572 
L 93.471725 113.258475 
L 94.748776 113.368508 
L 96.025826 113.492134 
L 97.302876 113.630984 
L 98.579926 113.786868 
L 99.856977 113.9618 
L 101.134027 114.158009 
L 102.411077 114.377958 
L 103.688127 114.624365 
L 104.965177 114.900217 
L 106.242228 115.20879 
L 107.519278 115.553658 
L 108.796328 115.938711 
L 110.073378 116.368156 
L 111.350429 116.846524 
L 112.627479 117.378656 
L 113.904529 117.969694 
L 115.181579 118.625049 
L 116.458629 119.350355 
L 117.73568 120.151415 
L 119.01273 121.034112 
L 120.28978 122.004311 
L 121.56683 123.067727 
L 122.843881 124.229774 
L 124.120931 125.495383 
L 125.397981 126.8688 
L 126.675031 128.353361 
L 127.952081 129.95126 
L 129.229132 131.663305 
L 130.506182 133.48869 
L 131.783232 135.424786 
L 133.060282 137.46697 
L 134.337333 139.608515 
L 135.614383 141.840552 
L 136.891433 144.152109 
L 138.168483 146.530259 
L 139.445533 148.960349 
L 140.722584 151.426332 
L 141.999634 153.91117 
L 143.276684 156.397293 
L 144.553734 158.867096 
L 145.830785 161.303435 
L 147.107835 163.69009 
L 148.384885 166.012184 
L 149.661935 168.256521 
L 150.938985 170.411835 
L 152.216036 172.468945 
L 153.493086 174.420812 
L 154.770136 176.262515 
L 156.047186 177.991142 
L 157.324237 179.605635 
L 158.601287 181.106581 
L 159.878337 182.495985 
L 161.155387 183.777035 
L 162.432437 184.953858 
L 163.709488 186.031298 
L 164.986538 187.014709 
L 166.263588 187.909775 
L 167.540638 188.722346 
L 168.817689 189.458311 
L 170.094739 190.123489 
L 171.371789 190.723543 
L 172.648839 191.26392 
L 173.925889 191.749801 
L 175.20294 192.186076 
L 176.47999 192.577318 
L 177.75704 192.927784 
L 179.03409 193.241408 
L 180.311141 193.52181 
L 181.588191 193.772309 
L 182.865241 193.995933 
L 184.142291 194.195437 
L 185.419341 194.37332 
L 186.696392 194.531846 
L 187.973442 194.673057 
L 189.250492 194.798793 
L 190.527542 194.910708 
L 191.804593 195.010292 
L 193.081643 195.098876 
L 194.358693 195.177657 
L 195.635743 195.247702 
L 196.912793 195.309969 
L 198.189844 195.365311 
L 199.466894 195.41449 
L 200.743944 195.458187 
L 202.020994 195.497008 
" clip-path="url(#pf75edc7208)" style="fill: none; stroke: #1ac938; stroke-width: 1.5; stroke-linecap: square"/>
   </g>
   <g id="line2d_19">
    <path d="M 59.984631 96.906944 
L 75.593022 96.93725 
L 76.870073 96.941089 
L 78.147123 96.945414 
L 79.424173 96.950287 
L 80.701223 96.955777 
L 81.978273 96.961962 
L 83.255324 96.96893 
L 84.532374 96.97678 
L 85.809424 96.985622 
L 87.086474 96.995584 
L 88.363525 97.006806 
L 89.640575 97.019446 
L 90.917625 97.033685 
L 92.194675 97.049723 
L 93.471725 97.067787 
L 94.748776 97.088133 
L 96.025826 97.111046 
L 97.302876 97.136851 
L 98.579926 97.16591 
L 99.856977 97.198631 
L 101.134027 97.235472 
L 102.411077 97.276949 
L 103.688127 97.323641 
L 104.965177 97.376196 
L 106.242228 97.435345 
L 107.519278 97.501904 
L 108.796328 97.57679 
L 110.073378 97.661029 
L 111.350429 97.755771 
L 112.627479 97.8623 
L 113.904529 97.982052 
L 115.181579 98.116629 
L 116.458629 98.267818 
L 117.73568 98.437606 
L 119.01273 98.628204 
L 120.28978 98.842064 
L 121.56683 99.0819 
L 122.843881 99.350712 
L 124.120931 99.651805 
L 125.397981 99.988809 
L 126.675031 100.365702 
L 127.952081 100.78682 
L 129.229132 101.256873 
L 130.506182 101.780953 
L 131.783232 102.36453 
L 133.060282 103.013442 
L 134.337333 103.733873 
L 135.614383 104.532314 
L 136.891433 105.415507 
L 138.168483 106.390365 
L 139.445533 107.463871 
L 140.722584 108.642946 
L 141.999634 109.934289 
L 143.276684 111.344187 
L 144.553734 112.878292 
L 145.830785 114.541376 
L 147.107835 116.33706 
L 148.384885 118.267531 
L 149.661935 120.333262 
L 150.938985 122.532741 
L 152.216036 124.862235 
L 153.493086 127.315607 
L 154.770136 129.884203 
L 156.047186 132.55683 
L 157.324237 135.319841 
L 158.601287 138.157331 
L 159.878337 141.051446 
L 161.155387 143.982797 
L 162.432437 146.93096 
L 163.709488 149.875039 
L 164.986538 152.794254 
L 166.263588 155.668519 
L 167.540638 158.478989 
L 168.817689 161.208527 
L 170.094739 163.842076 
L 171.371789 166.366931 
L 172.648839 168.772883 
L 173.925889 171.05227 
L 175.20294 173.199909 
L 176.47999 175.212958 
L 177.75704 177.09071 
L 179.03409 178.834338 
L 180.311141 180.446625 
L 181.588191 181.931671 
L 182.865241 183.294624 
L 184.142291 184.541412 
L 185.419341 185.678506 
L 186.696392 186.712713 
L 187.973442 187.650995 
L 189.250492 188.500322 
L 190.527542 189.267552 
L 191.804593 189.959337 
L 193.081643 190.582053 
L 194.358693 191.141754 
L 195.635743 191.644136 
L 196.912793 192.094521 
L 198.189844 192.497853 
L 199.466894 192.858695 
L 200.743944 193.181242 
L 202.020994 193.469333 
" clip-path="url(#pf75edc7208)" style="fill: none; stroke: #e8000b; stroke-width: 1.5; stroke-linecap: square"/>
   </g>
   <g id="line2d_20">
    <path d="M 59.984631 82.788779 
L 75.593022 83.745574 
L 76.870073 83.865669 
L 78.147123 84.000675 
L 79.424173 84.152401 
L 80.701223 84.322861 
L 81.978273 84.5143 
L 83.255324 84.729213 
L 84.532374 84.970369 
L 85.809424 85.240834 
L 87.086474 85.543997 
L 88.363525 85.883593 
L 89.640575 86.263726 
L 90.917625 86.688894 
L 92.194675 87.164005 
L 93.471725 87.694391 
L 94.748776 88.285821 
L 96.025826 88.944494 
L 97.302876 89.677035 
L 98.579926 90.490467 
L 99.856977 91.392169 
L 101.134027 92.389818 
L 102.411077 93.491295 
L 103.688127 94.704579 
L 104.965177 96.037595 
L 106.242228 97.498039 
L 107.519278 99.093161 
L 108.796328 100.82952 
L 110.073378 102.712698 
L 111.350429 104.747004 
L 112.627479 106.935144 
L 113.904529 109.277901 
L 115.181579 111.773824 
L 116.458629 114.418955 
L 117.73568 117.206606 
L 119.01273 120.127224 
L 120.28978 123.168354 
L 121.56683 126.314716 
L 122.843881 129.548417 
L 124.120931 132.849291 
L 125.397981 136.195355 
L 126.675031 139.563376 
L 127.952081 142.929504 
L 129.229132 146.269941 
L 130.506182 149.56161 
L 131.783232 152.782783 
L 133.060282 155.913623 
L 134.337333 158.936633 
L 135.614383 161.83697 
L 136.891433 164.602634 
L 138.168483 167.224531 
L 139.445533 169.696418 
L 140.722584 172.014748 
L 141.999634 174.178444 
L 143.276684 176.188615 
L 144.553734 178.048241 
L 145.830785 179.761854 
L 147.107835 181.335211 
L 148.384885 182.774997 
L 149.661935 184.088549 
L 150.938985 185.283613 
L 152.216036 186.368133 
L 153.493086 187.350081 
L 154.770136 188.237314 
L 156.047186 189.037465 
L 157.324237 189.757861 
L 158.601287 190.405465 
L 159.878337 190.986835 
L 161.155387 191.508103 
L 162.432437 191.974969 
L 163.709488 192.392696 
L 164.986538 192.766126 
L 166.263588 193.099694 
L 167.540638 193.397444 
L 168.817689 193.663055 
L 170.094739 193.899863 
L 171.371789 194.110885 
L 172.648839 194.298846 
L 173.925889 194.466199 
L 175.20294 194.61515 
L 176.47999 194.747682 
L 177.75704 194.865571 
L 179.03409 194.970409 
L 180.311141 195.06362 
L 181.588191 195.146477 
L 182.865241 195.220117 
L 184.142291 195.285556 
L 185.419341 195.343698 
L 186.696392 195.395352 
L 187.973442 195.441236 
L 189.250492 195.48199 
L 190.527542 195.518185 
L 191.804593 195.550329 
L 193.081643 195.578873 
L 194.358693 195.604218 
L 195.635743 195.626723 
L 196.912793 195.646704 
L 198.189844 195.664443 
L 199.466894 195.680192 
L 200.743944 195.694173 
L 202.020994 195.706585 
" clip-path="url(#pf75edc7208)" style="fill: none; stroke: #8b2be2; stroke-width: 1.5; stroke-linecap: square"/>
   </g>
   <g id="line2d_21">
    <path d="M 59.984631 99.692583 
L 75.593022 99.704073 
L 76.870073 99.705528 
L 78.147123 99.707169 
L 79.424173 99.709017 
L 80.701223 99.711099 
L 81.978273 99.713445 
L 83.255324 99.716088 
L 84.532374 99.719066 
L 85.809424 99.722421 
L 87.086474 99.726201 
L 88.363525 99.73046 
L 89.640575 99.735258 
L 90.917625 99.740663 
L 92.194675 99.746753 
L 93.471725 99.753613 
L 94.748776 99.761342 
L 96.025826 99.770048 
L 97.302876 99.779856 
L 98.579926 99.790905 
L 99.856977 99.803351 
L 101.134027 99.81737 
L 102.411077 99.83316 
L 103.688127 99.850946 
L 104.965177 99.870977 
L 106.242228 99.893537 
L 107.519278 99.918943 
L 108.796328 99.947552 
L 110.073378 99.979767 
L 111.350429 100.016038 
L 112.627479 100.056873 
L 113.904529 100.102841 
L 115.181579 100.154581 
L 116.458629 100.212811 
L 117.73568 100.278336 
L 119.01273 100.352057 
L 120.28978 100.434983 
L 121.56683 100.528247 
L 122.843881 100.63311 
L 124.120931 100.750987 
L 125.397981 100.883452 
L 126.675031 101.032262 
L 127.952081 101.199372 
L 129.229132 101.386955 
L 130.506182 101.59742 
L 131.783232 101.833435 
L 133.060282 102.097946 
L 134.337333 102.394199 
L 135.614383 102.725759 
L 136.891433 103.096526 
L 138.168483 103.510757 
L 139.445533 103.973068 
L 140.722584 104.488448 
L 141.999634 105.062252 
L 143.276684 105.700193 
L 144.553734 106.408315 
L 145.830785 107.192956 
L 147.107835 108.06069 
L 148.384885 109.018249 
L 149.661935 110.072419 
L 150.938985 111.229911 
L 152.216036 112.4972 
L 153.493086 113.880339 
L 154.770136 115.384741 
L 156.047186 117.014933 
L 157.324237 118.774296 
L 158.601287 120.664786 
L 159.878337 122.686663 
L 161.155387 124.838233 
L 162.432437 127.11562 
L 163.709488 129.512596 
L 164.986538 132.020479 
L 166.263588 134.628126 
L 167.540638 137.322022 
L 168.817689 140.086487 
L 170.094739 142.903984 
L 171.371789 145.755536 
L 172.648839 148.621216 
L 173.925889 151.480703 
L 175.20294 154.313845 
L 176.47999 157.101234 
L 177.75704 159.824713 
L 179.03409 162.467834 
L 180.311141 165.016205 
L 181.588191 167.457736 
L 182.865241 169.782781 
L 184.142291 171.984157 
L 185.419341 174.057086 
L 186.696392 175.999045 
L 187.973442 177.809557 
L 189.250492 179.489949 
L 190.527542 181.043076 
L 191.804593 182.473051 
L 193.081643 183.784968 
L 194.358693 184.984659 
L 195.635743 186.078457 
L 196.912793 187.073001 
L 198.189844 187.975067 
L 199.466894 188.791419 
L 200.743944 189.528705 
L 202.020994 190.193363 
" clip-path="url(#pf75edc7208)" style="fill: none; stroke: #9f4800; stroke-width: 1.5; stroke-linecap: square"/>
   </g>
   <g id="line2d_22">
    <path d="M 59.984631 93.877367 
L 75.593022 94.241971 
L 76.870073 94.287989 
L 78.147123 94.339789 
L 79.424173 94.398091 
L 80.701223 94.4637 
L 81.978273 94.537522 
L 83.255324 94.620571 
L 84.532374 94.713981 
L 85.809424 94.819022 
L 87.086474 94.937113 
L 88.363525 95.069839 
L 89.640575 95.218966 
L 90.917625 95.386464 
L 92.194675 95.574521 
L 93.471725 95.785568 
L 94.748776 96.022297 
L 96.025826 96.287687 
L 97.302876 96.585022 
L 98.579926 96.917916 
L 99.856977 97.290329 
L 101.134027 97.70659 
L 102.411077 98.171408 
L 103.688127 98.68988 
L 104.965177 99.267498 
L 106.242228 99.910137 
L 107.519278 100.62404 
L 108.796328 101.415783 
L 110.073378 102.292226 
L 111.350429 103.260437 
L 112.627479 104.327601 
L 113.904529 105.500893 
L 115.181579 106.787324 
L 116.458629 108.193559 
L 117.73568 109.725699 
L 119.01273 111.389037 
L 120.28978 113.187785 
L 121.56683 115.12479 
L 122.843881 117.201241 
L 124.120931 119.416383 
L 125.397981 121.767256 
L 126.675031 124.248491 
L 127.952081 126.852155 
L 129.229132 129.567696 
L 130.506182 132.381987 
L 131.783232 135.279483 
L 133.060282 138.242496 
L 134.337333 141.251584 
L 135.614383 144.286035 
L 136.891433 147.324427 
L 138.168483 150.345225 
L 139.445533 153.327391 
L 140.722584 156.250957 
L 141.999634 159.097546 
L 143.276684 161.850792 
L 144.553734 164.49666 
L 145.830785 167.023647 
L 147.107835 169.422867 
L 148.384885 171.688027 
L 149.661935 173.815308 
L 150.938985 175.803181 
L 152.216036 177.652154 
L 153.493086 179.364504 
L 154.770136 180.943978 
L 156.047186 182.395508 
L 157.324237 183.724928 
L 158.601287 184.938725 
L 159.878337 186.043807 
L 161.155387 187.047308 
L 162.432437 187.956426 
L 163.709488 188.778283 
L 164.986538 189.519825 
L 166.263588 190.187739 
L 167.540638 190.788393 
L 168.817689 191.327801 
L 170.094739 191.811594 
L 171.371789 192.245016 
L 172.648839 192.632916 
L 173.925889 192.979759 
L 175.20294 193.289639 
L 176.47999 193.566294 
L 177.75704 193.813125 
L 179.03409 194.033221 
L 180.311141 194.229376 
L 181.588191 194.404113 
L 182.865241 194.559708 
L 184.142291 194.698207 
L 185.419341 194.821448 
L 186.696392 194.93108 
L 187.973442 195.028582 
L 189.250492 195.115275 
L 190.527542 195.192341 
L 191.804593 195.260839 
L 193.081643 195.32171 
L 194.358693 195.375796 
L 195.635743 195.423847 
L 196.912793 195.466531 
L 198.189844 195.504445 
L 199.466894 195.538119 
L 200.743944 195.568023 
L 202.020994 195.594579 
" clip-path="url(#pf75edc7208)" style="fill: none; stroke: #f14cc1; stroke-width: 1.5; stroke-linecap: square"/>
   </g>
   <g id="line2d_23">
    <path d="M 59.984631 107.322055 
L 75.593022 107.330918 
L 76.870073 107.332041 
L 78.147123 107.333306 
L 79.424173 107.334731 
L 80.701223 107.336338 
L 81.978273 107.338147 
L 83.255324 107.340186 
L 84.532374 107.342483 
L 85.809424 107.345072 
L 87.086474 107.347987 
L 88.363525 107.351273 
L 89.640575 107.354974 
L 90.917625 107.359144 
L 92.194675 107.363842 
L 93.471725 107.369135 
L 94.748776 107.375097 
L 96.025826 107.381815 
L 97.302876 107.389382 
L 98.579926 107.397907 
L 99.856977 107.40751 
L 101.134027 107.418327 
L 102.411077 107.430512 
L 103.688127 107.444238 
L 104.965177 107.459697 
L 106.242228 107.47711 
L 107.519278 107.49672 
L 108.796328 107.518806 
L 110.073378 107.543677 
L 111.350429 107.571683 
L 112.627479 107.603216 
L 113.904529 107.638719 
L 115.181579 107.678687 
L 116.458629 107.723676 
L 117.73568 107.774312 
L 119.01273 107.831295 
L 120.28978 107.89541 
L 121.56683 107.967539 
L 122.843881 108.048667 
L 124.120931 108.139896 
L 125.397981 108.24246 
L 126.675031 108.357733 
L 127.952081 108.487252 
L 129.229132 108.632725 
L 130.506182 108.796054 
L 131.783232 108.979348 
L 133.060282 109.184948 
L 134.337333 109.415439 
L 135.614383 109.673674 
L 136.891433 109.962791 
L 138.168483 110.286229 
L 139.445533 110.647747 
L 140.722584 111.051434 
L 141.999634 111.501718 
L 143.276684 112.003365 
L 144.553734 112.561479 
L 145.830785 113.18148 
L 147.107835 113.869077 
L 148.384885 114.630226 
L 149.661935 115.471064 
L 150.938985 116.397829 
L 152.216036 117.416747 
L 153.493086 118.533905 
L 154.770136 119.755088 
L 156.047186 121.085589 
L 157.324237 122.529999 
L 158.601287 124.09197 
L 159.878337 125.77397 
L 161.155387 127.577022 
L 162.432437 129.500464 
L 163.709488 131.541721 
L 164.986538 133.696119 
L 166.263588 135.956765 
L 167.540638 138.314488 
L 168.817689 140.757886 
L 170.094739 143.273453 
L 171.371789 145.84583 
L 172.648839 148.458132 
L 173.925889 151.092377 
L 175.20294 153.729966 
L 176.47999 156.352206 
L 177.75704 158.940836 
L 179.03409 161.478529 
L 180.311141 163.949335 
L 181.588191 166.339057 
L 182.865241 168.635519 
L 184.142291 170.828745 
L 185.419341 172.91103 
L 186.696392 174.87692 
L 187.973442 176.723109 
L 189.250492 178.448277 
L 190.527542 180.052871 
L 191.804593 181.538875 
L 193.081643 182.909545 
L 194.358693 184.169167 
L 195.635743 185.322808 
L 196.912793 186.376101 
L 198.189844 187.335044 
L 199.466894 188.205831 
L 200.743944 188.994709 
L 202.020994 189.707862 
" clip-path="url(#pf75edc7208)" style="fill: none; stroke: #ffc400; stroke-width: 1.5; stroke-linecap: square"/>
   </g>
   <g id="line2d_24">
    <path d="M 59.984631 76.26551 
L 75.593022 77.662953 
L 76.870073 77.837715 
L 78.147123 78.034006 
L 79.424173 78.254391 
L 80.701223 78.501719 
L 81.978273 78.779145 
L 83.255324 79.09016 
L 84.532374 79.438613 
L 85.809424 79.828741 
L 87.086474 80.265185 
L 88.363525 80.753018 
L 89.640575 81.297761 
L 90.917625 81.905389 
L 92.194675 82.582338 
L 93.471725 83.335497 
L 94.748776 84.172185 
L 96.025826 85.100112 
L 97.302876 86.127319 
L 98.579926 87.262098 
L 99.856977 88.512872 
L 101.134027 89.888056 
L 102.411077 91.395876 
L 103.688127 93.044153 
L 104.965177 94.840045 
L 106.242228 96.789768 
L 107.519278 98.898271 
L 108.796328 101.168905 
L 110.073378 103.603077 
L 111.350429 106.199916 
L 112.627479 108.955974 
L 113.904529 111.864967 
L 115.181579 114.917615 
L 116.458629 118.101561 
L 117.73568 121.401431 
L 119.01273 124.799009 
L 120.28978 128.273568 
L 121.56683 131.802317 
L 122.843881 135.360973 
L 124.120931 138.924416 
L 125.397981 142.467389 
L 126.675031 145.965211 
L 127.952081 149.394456 
L 129.229132 152.733556 
L 130.506182 155.963301 
L 131.783232 159.067213 
L 133.060282 162.03178 
L 134.337333 164.846562 
L 135.614383 167.504158 
L 136.891433 170.000072 
L 138.168483 172.332492 
L 139.445533 174.502002 
L 140.722584 176.511258 
L 141.999634 178.364646 
L 143.276684 180.067941 
L 144.553734 181.62798 
L 145.830785 183.052365 
L 147.107835 184.349196 
L 148.384885 185.526841 
L 149.661935 186.593737 
L 150.938985 187.558242 
L 152.216036 188.428503 
L 153.493086 189.212362 
L 154.770136 189.917294 
L 156.047186 190.550351 
L 157.324237 191.118144 
L 158.601287 191.626822 
L 159.878337 192.082077 
L 161.155387 192.489149 
L 162.432437 192.85284 
L 163.709488 193.177538 
L 164.986538 193.467236 
L 166.263588 193.725555 
L 167.540638 193.955776 
L 168.817689 194.160861 
L 170.094739 194.343479 
L 171.371789 194.506032 
L 172.648839 194.650678 
L 173.925889 194.779352 
L 175.20294 194.893788 
L 176.47999 194.995538 
L 177.75704 195.085991 
L 179.03409 195.166386 
L 180.311141 195.237829 
L 181.588191 195.30131 
L 182.865241 195.357707 
L 184.142291 195.407806 
L 185.419341 195.452305 
L 186.696392 195.491827 
L 187.973442 195.526926 
L 189.250492 195.558095 
L 190.527542 195.585772 
L 191.804593 195.610346 
L 193.081643 195.632166 
L 194.358693 195.651537 
L 195.635743 195.668736 
L 196.912793 195.684004 
L 198.189844 195.697558 
L 199.466894 195.70959 
L 200.743944 195.720271 
L 202.020994 195.729752 
" clip-path="url(#pf75edc7208)" style="fill: none; stroke: #a3a3a3; stroke-width: 1.5; stroke-linecap: square"/>
   </g>
   <g id="line2d_25">
    <path d="M 59.984631 95.514778 
L 75.593022 95.546834 
L 76.870073 95.550895 
L 78.147123 95.55547 
L 79.424173 95.560624 
L 80.701223 95.566431 
L 81.978273 95.572973 
L 83.255324 95.580343 
L 84.532374 95.588646 
L 85.809424 95.597999 
L 87.086474 95.608536 
L 88.363525 95.620405 
L 89.640575 95.633775 
L 90.917625 95.648835 
L 92.194675 95.665797 
L 93.471725 95.684903 
L 94.748776 95.706421 
L 96.025826 95.730655 
L 97.302876 95.757946 
L 98.579926 95.788677 
L 99.856977 95.823281 
L 101.134027 95.86224 
L 102.411077 95.906101 
L 103.688127 95.955474 
L 104.965177 96.011045 
L 106.242228 96.073584 
L 107.519278 96.143955 
L 108.796328 96.223125 
L 110.073378 96.312177 
L 111.350429 96.412323 
L 112.627479 96.524919 
L 113.904529 96.651479 
L 115.181579 96.793692 
L 116.458629 96.953438 
L 117.73568 97.132812 
L 119.01273 97.334138 
L 120.28978 97.559996 
L 121.56683 97.813238 
L 122.843881 98.097012 
L 124.120931 98.414785 
L 125.397981 98.770361 
L 126.675031 99.167898 
L 127.952081 99.61193 
L 129.229132 100.107368 
L 130.506182 100.659511 
L 131.783232 101.27404 
L 133.060282 101.957004 
L 134.337333 102.714789 
L 135.614383 103.554074 
L 136.891433 104.481769 
L 138.168483 105.504922 
L 139.445533 106.630609 
L 140.722584 107.865789 
L 141.999634 109.217131 
L 143.276684 110.69081 
L 144.553734 112.292271 
L 145.830785 114.025974 
L 147.107835 115.895108 
L 148.384885 117.90131 
L 149.661935 120.044378 
L 150.938985 122.322005 
L 152.216036 124.729562 
L 153.493086 127.259933 
L 154.770136 129.903427 
L 156.047186 132.647799 
L 157.324237 135.478371 
L 158.601287 138.378273 
L 159.878337 141.328795 
L 161.155387 144.309845 
L 162.432437 147.300472 
L 163.709488 150.279461 
L 164.986538 153.225921 
L 166.263588 156.119871 
L 167.540638 158.942761 
L 168.817689 161.677921 
L 170.094739 164.310902 
L 171.371789 166.829702 
L 172.648839 169.224885 
L 173.925889 171.48958 
L 175.20294 173.619391 
L 176.47999 175.612229 
L 177.75704 177.468083 
L 179.03409 179.188751 
L 180.311141 180.777561 
L 181.588191 182.239079 
L 182.865241 183.578834 
L 184.142291 184.803057 
L 185.419341 185.918456 
L 186.696392 186.932006 
L 187.973442 187.850787 
L 189.250492 188.68184 
L 190.527542 189.432053 
L 191.804593 190.10808 
L 193.081643 190.716277 
L 194.358693 191.262658 
L 195.635743 191.752865 
L 196.912793 192.192162 
L 198.189844 192.585422 
L 199.466894 192.937142 
L 200.743944 193.251444 
L 202.020994 193.532099 
" clip-path="url(#pf75edc7208)" style="fill: none; stroke-dasharray: 5.55,2.4; stroke-dashoffset: 0; stroke: #023eff; stroke-width: 1.5"/>
   </g>
   <g id="line2d_26">
    <path d="M 59.984631 101.930179 
L 75.593022 102.734705 
L 76.870073 102.835675 
L 78.147123 102.949179 
L 79.424173 103.076736 
L 80.701223 103.220037 
L 81.978273 103.380969 
L 83.255324 103.561626 
L 84.532374 103.764333 
L 85.809424 103.991663 
L 87.086474 104.24646 
L 88.363525 104.531857 
L 89.640575 104.851297 
L 90.917625 105.20855 
L 92.194675 105.607728 
L 93.471725 106.053298 
L 94.748776 106.550089 
L 96.025826 107.103287 
L 97.302876 107.718431 
L 98.579926 108.401386 
L 99.856977 109.15831 
L 101.134027 109.9956 
L 102.411077 110.919818 
L 103.688127 111.93759 
L 104.965177 113.055488 
L 106.242228 114.279875 
L 107.519278 115.616724 
L 108.796328 117.071409 
L 110.073378 118.648471 
L 111.350429 120.351363 
L 112.627479 122.18218 
L 113.904529 124.141392 
L 115.181579 126.22759 
L 116.458629 128.437256 
L 117.73568 130.764595 
L 119.01273 133.201423 
L 120.28978 135.737145 
L 121.56683 138.358837 
L 122.843881 141.051424 
L 124.120931 143.797981 
L 125.397981 146.580119 
L 126.675031 149.378461 
L 127.952081 152.173175 
L 129.229132 154.944529 
L 130.506182 157.673449 
L 131.783232 160.342028 
L 133.060282 162.933976 
L 134.337333 165.434977 
L 135.614383 167.832939 
L 136.891433 170.118144 
L 138.168483 172.283289 
L 139.445533 174.323424 
L 140.722584 176.235826 
L 141.999634 178.0198 
L 143.276684 179.67644 
L 144.553734 181.208367 
L 145.830785 182.619462 
L 147.107835 183.914599 
L 148.384885 185.099397 
L 149.661935 186.179994 
L 150.938985 187.162848 
L 152.216036 188.054567 
L 153.493086 188.861767 
L 154.770136 189.59096 
L 156.047186 190.248462 
L 157.324237 190.840331 
L 158.601287 191.372314 
L 159.878337 191.849826 
L 161.155387 192.277921 
L 162.432437 192.661296 
L 163.709488 193.004287 
L 164.986538 193.310881 
L 166.263588 193.584726 
L 167.540638 193.829149 
L 168.817689 194.047176 
L 170.094739 194.241549 
L 171.371789 194.414749 
L 172.648839 194.569014 
L 173.925889 194.70636 
L 175.20294 194.8286 
L 176.47999 194.937361 
L 177.75704 195.034104 
L 179.03409 195.120134 
L 180.311141 195.196621 
L 181.588191 195.264611 
L 182.865241 195.325037 
L 184.142291 195.378733 
L 185.419341 195.426441 
L 186.696392 195.468824 
L 187.973442 195.506472 
L 189.250492 195.539911 
L 190.527542 195.569609 
L 191.804593 195.595983 
L 193.081643 195.619403 
L 194.358693 195.640198 
L 195.635743 195.658663 
L 196.912793 195.675056 
L 198.189844 195.689611 
L 199.466894 195.702533 
L 200.743944 195.714004 
L 202.020994 195.724187 
" clip-path="url(#pf75edc7208)" style="fill: none; stroke-dasharray: 5.55,2.4; stroke-dashoffset: 0; stroke: #ff7c00; stroke-width: 1.5"/>
   </g>
   <g id="line2d_27">
    <path d="M 59.984631 102.277448 
L 75.593022 102.303685 
L 76.870073 102.307009 
L 78.147123 102.310754 
L 79.424173 102.314973 
L 80.701223 102.319726 
L 81.978273 102.325081 
L 83.255324 102.331113 
L 84.532374 102.33791 
L 85.809424 102.345566 
L 87.086474 102.354192 
L 88.363525 102.363908 
L 89.640575 102.374853 
L 90.917625 102.387182 
L 92.194675 102.40107 
L 93.471725 102.416713 
L 94.748776 102.434332 
L 96.025826 102.454175 
L 97.302876 102.476524 
L 98.579926 102.501691 
L 99.856977 102.530032 
L 101.134027 102.561943 
L 102.411077 102.597873 
L 103.688127 102.638322 
L 104.965177 102.683855 
L 106.242228 102.735105 
L 107.519278 102.792783 
L 108.796328 102.857684 
L 110.073378 102.930701 
L 111.350429 103.012834 
L 112.627479 103.105201 
L 113.904529 103.209054 
L 115.181579 103.325789 
L 116.458629 103.456966 
L 117.73568 103.60432 
L 119.01273 103.769786 
L 120.28978 103.95551 
L 121.56683 104.163875 
L 122.843881 104.397514 
L 124.120931 104.659339 
L 125.397981 104.952552 
L 126.675031 105.28067 
L 127.952081 105.647542 
L 129.229132 106.057359 
L 130.506182 106.514669 
L 131.783232 107.02438 
L 133.060282 107.591757 
L 134.337333 108.222409 
L 135.614383 108.922263 
L 136.891433 109.697525 
L 138.168483 110.554621 
L 139.445533 111.500116 
L 140.722584 112.540613 
L 141.999634 113.682617 
L 143.276684 114.932381 
L 144.553734 116.295715 
L 145.830785 117.777773 
L 147.107835 119.382809 
L 148.384885 121.113922 
L 149.661935 122.972786 
L 150.938985 124.959384 
L 152.216036 127.07176 
L 153.493086 129.305809 
L 154.770136 131.655116 
L 156.047186 134.110872 
L 157.324237 136.661878 
L 158.601287 139.294652 
L 159.878337 141.993642 
L 161.155387 144.741545 
L 162.432437 147.519722 
L 163.709488 150.308691 
L 164.986538 153.088665 
L 166.263588 155.84011 
L 167.540638 158.54429 
L 168.817689 161.183762 
L 170.094739 163.7428 
L 171.371789 166.207723 
L 172.648839 168.567118 
L 173.925889 170.811956 
L 175.20294 172.935609 
L 176.47999 174.933765 
L 177.75704 176.804281 
L 179.03409 178.546974 
L 180.311141 180.163375 
L 181.588191 181.656464 
L 182.865241 183.030401 
L 184.142291 184.290268 
L 185.419341 185.441825 
L 186.696392 186.491293 
L 187.973442 187.445161 
L 189.250492 188.310029 
L 190.527542 189.09247 
L 191.804593 189.798926 
L 193.081643 190.435625 
L 194.358693 191.008523 
L 195.635743 191.523259 
L 196.912793 191.98513 
L 198.189844 192.399075 
L 199.466894 192.769676 
L 200.743944 193.101157 
L 202.020994 193.397397 
" clip-path="url(#pf75edc7208)" style="fill: none; stroke-dasharray: 5.55,2.4; stroke-dashoffset: 0; stroke: #1ac938; stroke-width: 1.5"/>
   </g>
   <g id="line2d_28">
    <path d="M 59.984631 79.63284 
L 75.593022 79.923155 
L 76.870073 79.959842 
L 78.147123 80.00115 
L 79.424173 80.047658 
L 80.701223 80.100015 
L 81.978273 80.15895 
L 83.255324 80.225282 
L 84.532374 80.299928 
L 85.809424 80.383919 
L 87.086474 80.478407 
L 88.363525 80.584684 
L 89.640575 80.704194 
L 90.917625 80.838553 
L 92.194675 80.989564 
L 93.471725 81.159237 
L 94.748776 81.349811 
L 96.025826 81.563779 
L 97.302876 81.803906 
L 98.579926 82.073256 
L 99.856977 82.375219 
L 101.134027 82.713532 
L 102.411077 83.092309 
L 103.688127 83.516059 
L 104.965177 83.989706 
L 106.242228 84.518613 
L 107.519278 85.108582 
L 108.796328 85.765865 
L 110.073378 86.497153 
L 111.350429 87.309555 
L 112.627479 88.210561 
L 113.904529 89.207984 
L 115.181579 90.309878 
L 116.458629 91.524431 
L 117.73568 92.859822 
L 119.01273 94.324046 
L 120.28978 95.924707 
L 121.56683 97.668772 
L 122.843881 99.562286 
L 124.120931 101.610073 
L 125.397981 103.815405 
L 126.675031 106.179665 
L 127.952081 108.702027 
L 129.229132 111.379162 
L 130.506182 114.204989 
L 131.783232 117.170511 
L 133.060282 120.263748 
L 134.337333 123.469781 
L 135.614383 126.770931 
L 136.891433 130.147072 
L 138.168483 133.57607 
L 139.445533 137.034338 
L 140.722584 140.497465 
L 141.999634 143.940905 
L 143.276684 147.340664 
L 144.553734 150.673964 
L 145.830785 153.919827 
L 147.107835 157.059562 
L 148.384885 160.077131 
L 149.661935 162.959381 
L 150.938985 165.696137 
L 152.216036 168.280184 
L 153.493086 170.707129 
L 154.770136 172.97519 
L 156.047186 175.084917 
L 157.324237 177.038874 
L 158.601287 178.841312 
L 159.878337 180.497832 
L 161.155387 182.015073 
L 162.432437 183.400416 
L 163.709488 184.661731 
L 164.986538 185.807146 
L 166.263588 186.844865 
L 167.540638 187.783008 
L 168.817689 188.629496 
L 170.094739 189.391954 
L 171.371789 190.077647 
L 172.648839 190.693434 
L 173.925889 191.245743 
L 175.20294 191.740554 
L 176.47999 192.183402 
L 177.75704 192.579382 
L 179.03409 192.933167 
L 180.311141 193.249022 
L 181.588191 193.530831 
L 182.865241 193.782117 
L 184.142291 194.006072 
L 185.419341 194.205575 
L 186.696392 194.383223 
L 187.973442 194.541353 
L 189.250492 194.682063 
L 190.527542 194.807236 
L 191.804593 194.918559 
L 193.081643 195.017542 
L 194.358693 195.105534 
L 195.635743 195.183742 
L 196.912793 195.253242 
L 198.189844 195.314996 
L 199.466894 195.369859 
L 200.743944 195.418596 
L 202.020994 195.461885 
" clip-path="url(#pf75edc7208)" style="fill: none; stroke-dasharray: 5.55,2.4; stroke-dashoffset: 0; stroke: #e8000b; stroke-width: 1.5"/>
   </g>
   <g id="line2d_29">
    <path d="M 59.984631 100.634252 
L 75.593022 100.868425 
L 76.870073 100.898018 
L 78.147123 100.93134 
L 79.424173 100.968856 
L 80.701223 101.011091 
L 81.978273 101.058633 
L 83.255324 101.112143 
L 84.532374 101.172361 
L 85.809424 101.240119 
L 87.086474 101.316348 
L 88.363525 101.40209 
L 89.640575 101.498511 
L 90.917625 101.606915 
L 92.194675 101.728759 
L 93.471725 101.865666 
L 94.748776 102.019446 
L 96.025826 102.192113 
L 97.302876 102.3859 
L 98.579926 102.603286 
L 99.856977 102.847011 
L 101.134027 103.1201 
L 102.411077 103.42588 
L 103.688127 103.768002 
L 104.965177 104.150457 
L 106.242228 104.577587 
L 107.519278 105.054101 
L 108.796328 105.585072 
L 110.073378 106.175935 
L 111.350429 106.832471 
L 112.627479 107.560777 
L 113.904529 108.367223 
L 115.181579 109.258387 
L 116.458629 110.240966 
L 117.73568 111.32167 
L 119.01273 112.507078 
L 120.28978 113.803471 
L 121.56683 115.216637 
L 122.843881 116.751641 
L 124.120931 118.41258 
L 125.397981 120.202315 
L 126.675031 122.122197 
L 127.952081 124.1718 
L 129.229132 126.348674 
L 130.506182 128.648143 
L 131.783232 131.063152 
L 133.060282 133.584205 
L 134.337333 136.199387 
L 135.614383 138.894499 
L 136.891433 141.653295 
L 138.168483 144.457835 
L 139.445533 147.28892 
L 140.722584 150.126611 
L 141.999634 152.95078 
L 143.276684 155.741681 
L 144.553734 158.480496 
L 145.830785 161.14982 
L 147.107835 163.73408 
L 148.384885 166.219841 
L 149.661935 168.596011 
L 150.938985 170.853938 
L 152.216036 172.987398 
L 153.493086 174.9925 
L 154.770136 176.867518 
L 156.047186 178.612667 
L 157.324237 180.229849 
L 158.601287 181.722381 
L 159.878337 183.094723 
L 161.155387 184.352215 
L 162.432437 185.50084 
L 163.709488 186.547001 
L 164.986538 187.497342 
L 166.263588 188.358581 
L 167.540638 189.137386 
L 168.817689 189.840271 
L 170.094739 190.473519 
L 171.371789 191.043123 
L 172.648839 191.554746 
L 173.925889 192.0137 
L 175.20294 192.424933 
L 176.47999 192.793027 
L 177.75704 193.122201 
L 179.03409 193.416329 
L 180.311141 193.678946 
L 181.588191 193.913275 
L 182.865241 194.122239 
L 184.142291 194.308486 
L 185.419341 194.474408 
L 186.696392 194.622162 
L 187.973442 194.753688 
L 189.250492 194.870729 
L 190.527542 194.97485 
L 191.804593 195.067454 
L 193.081643 195.149795 
L 194.358693 195.222995 
L 195.635743 195.288057 
L 196.912793 195.345876 
L 198.189844 195.397252 
L 199.466894 195.442895 
L 200.743944 195.483442 
L 202.020994 195.519458 
" clip-path="url(#pf75edc7208)" style="fill: none; stroke-dasharray: 5.55,2.4; stroke-dashoffset: 0; stroke: #8b2be2; stroke-width: 1.5"/>
   </g>
   <g id="line2d_30">
    <path d="M 59.984631 111.826582 
L 75.593022 111.945463 
L 76.870073 111.960504 
L 78.147123 111.977445 
L 79.424173 111.996524 
L 80.701223 112.018011 
L 81.978273 112.042208 
L 83.255324 112.069454 
L 84.532374 112.100132 
L 85.809424 112.13467 
L 87.086474 112.173552 
L 88.363525 112.217317 
L 89.640575 112.266574 
L 90.917625 112.322003 
L 92.194675 112.384369 
L 93.471725 112.454526 
L 94.748776 112.533433 
L 96.025826 112.622161 
L 97.302876 112.721906 
L 98.579926 112.834006 
L 99.856977 112.959949 
L 101.134027 113.101395 
L 102.411077 113.260189 
L 103.688127 113.438377 
L 104.965177 113.638226 
L 106.242228 113.862243 
L 107.519278 114.113189 
L 108.796328 114.394102 
L 110.073378 114.708307 
L 111.350429 115.059437 
L 112.627479 115.451439 
L 113.904529 115.888582 
L 115.181579 116.375458 
L 116.458629 116.916975 
L 117.73568 117.518337 
L 119.01273 118.185015 
L 120.28978 118.922704 
L 121.56683 119.737255 
L 122.843881 120.634595 
L 124.120931 121.620618 
L 125.397981 122.701054 
L 126.675031 123.881311 
L 127.952081 125.166292 
L 129.229132 126.560187 
L 130.506182 128.066248 
L 131.783232 129.68655 
L 133.060282 131.421751 
L 134.337333 133.27086 
L 135.614383 135.231029 
L 136.891433 137.297392 
L 138.168483 139.462957 
L 139.445533 141.718573 
L 140.722584 144.052986 
L 141.999634 146.452992 
L 143.276684 148.903678 
L 144.553734 151.388771 
L 145.830785 153.891039 
L 147.107835 156.392772 
L 148.384885 158.876272 
L 149.661935 161.324355 
L 150.938985 163.720816 
L 152.216036 166.050839 
L 153.493086 168.301329 
L 154.770136 170.461156 
L 156.047186 172.5213 
L 157.324237 174.474897 
L 158.601287 176.317206 
L 159.878337 178.045497 
L 161.155387 179.658885 
L 162.432437 181.158119 
L 163.709488 182.545351 
L 164.986538 183.823898 
L 166.263588 184.997998 
L 167.540638 186.07259 
L 168.817689 187.053107 
L 170.094739 187.945293 
L 171.371789 188.755047 
L 172.648839 189.488295 
L 173.925889 190.15088 
L 175.20294 190.748485 
L 176.47999 191.286566 
L 177.75704 191.770311 
L 179.03409 192.204609 
L 180.311141 192.594031 
L 181.588191 192.942829 
L 182.865241 193.254929 
L 184.142291 193.533946 
L 185.419341 193.783187 
L 186.696392 194.005672 
L 187.973442 194.204149 
L 189.250492 194.381107 
L 190.527542 194.5388 
L 191.804593 194.679262 
L 193.081643 194.804326 
L 194.358693 194.915641 
L 195.635743 195.014687 
L 196.912793 195.10279 
L 198.189844 195.181141 
L 199.466894 195.250803 
L 200.743944 195.312727 
L 202.020994 195.367764 
" clip-path="url(#pf75edc7208)" style="fill: none; stroke-dasharray: 5.55,2.4; stroke-dashoffset: 0; stroke: #9f4800; stroke-width: 1.5"/>
   </g>
   <g id="line2d_31">
    <path d="M 59.984631 95.698098 
L 75.593022 95.718996 
L 76.870073 95.721643 
L 78.147123 95.724626 
L 79.424173 95.727987 
L 80.701223 95.731773 
L 81.978273 95.736039 
L 83.255324 95.740845 
L 84.532374 95.74626 
L 85.809424 95.75236 
L 87.086474 95.759232 
L 88.363525 95.766974 
L 89.640575 95.775696 
L 90.917625 95.785521 
L 92.194675 95.796589 
L 93.471725 95.809056 
L 94.748776 95.8231 
L 96.025826 95.838918 
L 97.302876 95.856736 
L 98.579926 95.876803 
L 99.856977 95.899404 
L 101.134027 95.924857 
L 102.411077 95.95352 
L 103.688127 95.985795 
L 104.965177 96.022136 
L 106.242228 96.06305 
L 107.519278 96.109109 
L 108.796328 96.160954 
L 110.073378 96.219304 
L 111.350429 96.284967 
L 112.627479 96.358848 
L 113.904529 96.441959 
L 115.181579 96.535437 
L 116.458629 96.640551 
L 117.73568 96.758718 
L 119.01273 96.891524 
L 120.28978 97.040733 
L 121.56683 97.208312 
L 122.843881 97.396448 
L 124.120931 97.607567 
L 125.397981 97.844358 
L 126.675031 98.109792 
L 127.952081 98.407145 
L 129.229132 98.740019 
L 130.506182 99.11236 
L 131.783232 99.528479 
L 133.060282 99.993061 
L 134.337333 100.511174 
L 135.614383 101.088273 
L 136.891433 101.730186 
L 138.168483 102.443101 
L 139.445533 103.233525 
L 140.722584 104.108231 
L 141.999634 105.074188 
L 143.276684 106.13846 
L 144.553734 107.308078 
L 145.830785 108.589888 
L 147.107835 109.990361 
L 148.384885 111.51538 
L 149.661935 113.169992 
L 150.938985 114.958139 
L 152.216036 116.882377 
L 153.493086 118.943586 
L 154.770136 121.140695 
L 156.047186 123.470434 
L 157.324237 125.927132 
L 158.601287 128.502591 
L 159.878337 131.186038 
L 161.155387 133.964186 
L 162.432437 136.821412 
L 163.709488 139.740041 
L 164.986538 142.700744 
L 166.263588 145.68303 
L 167.540638 148.665802 
L 168.817689 151.627947 
L 170.094739 154.548934 
L 171.371789 157.40937 
L 172.648839 160.191496 
L 173.925889 162.879585 
L 175.20294 165.460241 
L 176.47999 167.922573 
L 177.75704 170.258265 
L 179.03409 172.461533 
L 180.311141 174.529001 
L 181.588191 176.459502 
L 182.865241 178.253834 
L 184.142291 179.91448 
L 185.419341 181.445327 
L 186.696392 182.851377 
L 187.973442 184.13848 
L 189.250492 185.313085 
L 190.527542 186.382025 
L 191.804593 187.352328 
L 193.081643 188.231057 
L 194.358693 189.025188 
L 195.635743 189.741505 
L 196.912793 190.386531 
L 198.189844 190.966465 
L 199.466894 191.487156 
L 200.743944 191.954074 
L 202.020994 192.372306 
" clip-path="url(#pf75edc7208)" style="fill: none; stroke-dasharray: 5.55,2.4; stroke-dashoffset: 0; stroke: #f14cc1; stroke-width: 1.5"/>
   </g>
   <g id="patch_3">
    <path d="M 52.882813 202.1 
L 52.882813 63.5 
" style="fill: none; stroke: #000000; stroke-width: 0.8; stroke-linejoin: miter; stroke-linecap: square"/>
   </g>
   <g id="patch_4">
    <path d="M 52.882813 202.1 
L 209.122813 202.1 
" style="fill: none; stroke: #000000; stroke-width: 0.8; stroke-linejoin: miter; stroke-linecap: square"/>
   </g>
   <g id="legend_1">
    <g id="line2d_32">
     <path d="M 32.646813 13.67875 
L 40.646813 13.67875 
L 48.646813 13.67875 
" style="fill: none; stroke: #023eff; stroke-width: 1.5; stroke-linecap: square"/>
    </g>
    <g id="text_13">
     <!-- 0 -->
     <g transform="translate(55.046813 16.47875)scale(0.08 -0.08)">
      <use xlink:href="#DejaVuSans-30"/>
     </g>
    </g>
    <g id="line2d_33">
     <path d="M 32.646813 25.42125 
L 40.646813 25.42125 
L 48.646813 25.42125 
" style="fill: none; stroke: #ff7c00; stroke-width: 1.5; stroke-linecap: square"/>
    </g>
    <g id="text_14">
     <!-- 1 -->
     <g transform="translate(55.046813 28.22125)scale(0.08 -0.08)">
      <use xlink:href="#DejaVuSans-31"/>
     </g>
    </g>
    <g id="line2d_34">
     <path d="M 32.646813 37.16375 
L 40.646813 37.16375 
L 48.646813 37.16375 
" style="fill: none; stroke: #1ac938; stroke-width: 1.5; stroke-linecap: square"/>
    </g>
    <g id="text_15">
     <!-- 2 -->
     <g transform="translate(55.046813 39.96375)scale(0.08 -0.08)">
      <defs>
       <path id="DejaVuSans-32" d="M 1228 531 
L 3431 531 
L 3431 0 
L 469 0 
L 469 531 
Q 828 903 1448 1529 
Q 2069 2156 2228 2338 
Q 2531 2678 2651 2914 
Q 2772 3150 2772 3378 
Q 2772 3750 2511 3984 
Q 2250 4219 1831 4219 
Q 1534 4219 1204 4116 
Q 875 4013 500 3803 
L 500 4441 
Q 881 4594 1212 4672 
Q 1544 4750 1819 4750 
Q 2544 4750 2975 4387 
Q 3406 4025 3406 3419 
Q 3406 3131 3298 2873 
Q 3191 2616 2906 2266 
Q 2828 2175 2409 1742 
Q 1991 1309 1228 531 
z
" transform="scale(0.015625)"/>
      </defs>
      <use xlink:href="#DejaVuSans-32"/>
     </g>
    </g>
    <g id="line2d_35">
     <path d="M 32.646813 48.90625 
L 40.646813 48.90625 
L 48.646813 48.90625 
" style="fill: none; stroke: #e8000b; stroke-width: 1.5; stroke-linecap: square"/>
    </g>
    <g id="text_16">
     <!-- 3 -->
     <g transform="translate(55.046813 51.70625)scale(0.08 -0.08)">
      <use xlink:href="#DejaVuSans-33"/>
     </g>
    </g>
    <g id="line2d_36">
     <path d="M 76.136813 13.67875 
L 84.136813 13.67875 
L 92.136813 13.67875 
" style="fill: none; stroke: #8b2be2; stroke-width: 1.5; stroke-linecap: square"/>
    </g>
    <g id="text_17">
     <!-- 4 -->
     <g transform="translate(98.536813 16.47875)scale(0.08 -0.08)">
      <defs>
       <path id="DejaVuSans-34" d="M 2419 4116 
L 825 1625 
L 2419 1625 
L 2419 4116 
z
M 2253 4666 
L 3047 4666 
L 3047 1625 
L 3713 1625 
L 3713 1100 
L 3047 1100 
L 3047 0 
L 2419 0 
L 2419 1100 
L 313 1100 
L 313 1709 
L 2253 4666 
z
" transform="scale(0.015625)"/>
      </defs>
      <use xlink:href="#DejaVuSans-34"/>
     </g>
    </g>
    <g id="line2d_37">
     <path d="M 76.136813 25.42125 
L 84.136813 25.42125 
L 92.136813 25.42125 
" style="fill: none; stroke: #9f4800; stroke-width: 1.5; stroke-linecap: square"/>
    </g>
    <g id="text_18">
     <!-- 5 -->
     <g transform="translate(98.536813 28.22125)scale(0.08 -0.08)">
      <use xlink:href="#DejaVuSans-35"/>
     </g>
    </g>
    <g id="line2d_38">
     <path d="M 76.136813 37.16375 
L 84.136813 37.16375 
L 92.136813 37.16375 
" style="fill: none; stroke: #f14cc1; stroke-width: 1.5; stroke-linecap: square"/>
    </g>
    <g id="text_19">
     <!-- 6 -->
     <g transform="translate(98.536813 39.96375)scale(0.08 -0.08)">
      <defs>
       <path id="DejaVuSans-36" d="M 2113 2584 
Q 1688 2584 1439 2293 
Q 1191 2003 1191 1497 
Q 1191 994 1439 701 
Q 1688 409 2113 409 
Q 2538 409 2786 701 
Q 3034 994 3034 1497 
Q 3034 2003 2786 2293 
Q 2538 2584 2113 2584 
z
M 3366 4563 
L 3366 3988 
Q 3128 4100 2886 4159 
Q 2644 4219 2406 4219 
Q 1781 4219 1451 3797 
Q 1122 3375 1075 2522 
Q 1259 2794 1537 2939 
Q 1816 3084 2150 3084 
Q 2853 3084 3261 2657 
Q 3669 2231 3669 1497 
Q 3669 778 3244 343 
Q 2819 -91 2113 -91 
Q 1303 -91 875 529 
Q 447 1150 447 2328 
Q 447 3434 972 4092 
Q 1497 4750 2381 4750 
Q 2619 4750 2861 4703 
Q 3103 4656 3366 4563 
z
" transform="scale(0.015625)"/>
      </defs>
      <use xlink:href="#DejaVuSans-36"/>
     </g>
    </g>
    <g id="line2d_39">
     <path d="M 76.136813 48.90625 
L 84.136813 48.90625 
L 92.136813 48.90625 
" style="fill: none; stroke: #ffc400; stroke-width: 1.5; stroke-linecap: square"/>
    </g>
    <g id="text_20">
     <!-- 7 -->
     <g transform="translate(98.536813 51.70625)scale(0.08 -0.08)">
      <defs>
       <path id="DejaVuSans-37" d="M 525 4666 
L 3525 4666 
L 3525 4397 
L 1831 0 
L 1172 0 
L 2766 4134 
L 525 4134 
L 525 4666 
z
" transform="scale(0.015625)"/>
      </defs>
      <use xlink:href="#DejaVuSans-37"/>
     </g>
    </g>
    <g id="line2d_40">
     <path d="M 119.626813 13.67875 
L 127.626813 13.67875 
L 135.626813 13.67875 
" style="fill: none; stroke: #a3a3a3; stroke-width: 1.5; stroke-linecap: square"/>
    </g>
    <g id="text_21">
     <!-- 8 -->
     <g transform="translate(142.026813 16.47875)scale(0.08 -0.08)">
      <defs>
       <path id="DejaVuSans-38" d="M 2034 2216 
Q 1584 2216 1326 1975 
Q 1069 1734 1069 1313 
Q 1069 891 1326 650 
Q 1584 409 2034 409 
Q 2484 409 2743 651 
Q 3003 894 3003 1313 
Q 3003 1734 2745 1975 
Q 2488 2216 2034 2216 
z
M 1403 2484 
Q 997 2584 770 2862 
Q 544 3141 544 3541 
Q 544 4100 942 4425 
Q 1341 4750 2034 4750 
Q 2731 4750 3128 4425 
Q 3525 4100 3525 3541 
Q 3525 3141 3298 2862 
Q 3072 2584 2669 2484 
Q 3125 2378 3379 2068 
Q 3634 1759 3634 1313 
Q 3634 634 3220 271 
Q 2806 -91 2034 -91 
Q 1263 -91 848 271 
Q 434 634 434 1313 
Q 434 1759 690 2068 
Q 947 2378 1403 2484 
z
M 1172 3481 
Q 1172 3119 1398 2916 
Q 1625 2713 2034 2713 
Q 2441 2713 2670 2916 
Q 2900 3119 2900 3481 
Q 2900 3844 2670 4047 
Q 2441 4250 2034 4250 
Q 1625 4250 1398 4047 
Q 1172 3844 1172 3481 
z
" transform="scale(0.015625)"/>
      </defs>
      <use xlink:href="#DejaVuSans-38"/>
     </g>
    </g>
    <g id="line2d_41">
     <path d="M 119.626813 25.42125 
L 127.626813 25.42125 
L 135.626813 25.42125 
" style="fill: none; stroke-dasharray: 5.55,2.4; stroke-dashoffset: 0; stroke: #023eff; stroke-width: 1.5"/>
    </g>
    <g id="text_22">
     <!-- 9 -->
     <g transform="translate(142.026813 28.22125)scale(0.08 -0.08)">
      <defs>
       <path id="DejaVuSans-39" d="M 703 97 
L 703 672 
Q 941 559 1184 500 
Q 1428 441 1663 441 
Q 2288 441 2617 861 
Q 2947 1281 2994 2138 
Q 2813 1869 2534 1725 
Q 2256 1581 1919 1581 
Q 1219 1581 811 2004 
Q 403 2428 403 3163 
Q 403 3881 828 4315 
Q 1253 4750 1959 4750 
Q 2769 4750 3195 4129 
Q 3622 3509 3622 2328 
Q 3622 1225 3098 567 
Q 2575 -91 1691 -91 
Q 1453 -91 1209 -44 
Q 966 3 703 97 
z
M 1959 2075 
Q 2384 2075 2632 2365 
Q 2881 2656 2881 3163 
Q 2881 3666 2632 3958 
Q 2384 4250 1959 4250 
Q 1534 4250 1286 3958 
Q 1038 3666 1038 3163 
Q 1038 2656 1286 2365 
Q 1534 2075 1959 2075 
z
" transform="scale(0.015625)"/>
      </defs>
      <use xlink:href="#DejaVuSans-39"/>
     </g>
    </g>
    <g id="line2d_42">
     <path d="M 119.626813 37.16375 
L 127.626813 37.16375 
L 135.626813 37.16375 
" style="fill: none; stroke-dasharray: 5.55,2.4; stroke-dashoffset: 0; stroke: #ff7c00; stroke-width: 1.5"/>
    </g>
    <g id="text_23">
     <!-- 10 -->
     <g transform="translate(142.026813 39.96375)scale(0.08 -0.08)">
      <use xlink:href="#DejaVuSans-31"/>
      <use xlink:href="#DejaVuSans-30" x="63.623047"/>
     </g>
    </g>
    <g id="line2d_43">
     <path d="M 119.626813 48.90625 
L 127.626813 48.90625 
L 135.626813 48.90625 
" style="fill: none; stroke-dasharray: 5.55,2.4; stroke-dashoffset: 0; stroke: #1ac938; stroke-width: 1.5"/>
    </g>
    <g id="text_24">
     <!-- 11 -->
     <g transform="translate(142.026813 51.70625)scale(0.08 -0.08)">
      <use xlink:href="#DejaVuSans-31"/>
      <use xlink:href="#DejaVuSans-31" x="63.623047"/>
     </g>
    </g>
    <g id="line2d_44">
     <path d="M 168.206813 13.67875 
L 176.206813 13.67875 
L 184.206813 13.67875 
" style="fill: none; stroke-dasharray: 5.55,2.4; stroke-dashoffset: 0; stroke: #e8000b; stroke-width: 1.5"/>
    </g>
    <g id="text_25">
     <!-- 12 -->
     <g transform="translate(190.606813 16.47875)scale(0.08 -0.08)">
      <use xlink:href="#DejaVuSans-31"/>
      <use xlink:href="#DejaVuSans-32" x="63.623047"/>
     </g>
    </g>
    <g id="line2d_45">
     <path d="M 168.206813 25.42125 
L 176.206813 25.42125 
L 184.206813 25.42125 
" style="fill: none; stroke-dasharray: 5.55,2.4; stroke-dashoffset: 0; stroke: #8b2be2; stroke-width: 1.5"/>
    </g>
    <g id="text_26">
     <!-- 13 -->
     <g transform="translate(190.606813 28.22125)scale(0.08 -0.08)">
      <use xlink:href="#DejaVuSans-31"/>
      <use xlink:href="#DejaVuSans-33" x="63.623047"/>
     </g>
    </g>
    <g id="line2d_46">
     <path d="M 168.206813 37.16375 
L 176.206813 37.16375 
L 184.206813 37.16375 
" style="fill: none; stroke-dasharray: 5.55,2.4; stroke-dashoffset: 0; stroke: #9f4800; stroke-width: 1.5"/>
    </g>
    <g id="text_27">
     <!-- 14 -->
     <g transform="translate(190.606813 39.96375)scale(0.08 -0.08)">
      <use xlink:href="#DejaVuSans-31"/>
      <use xlink:href="#DejaVuSans-34" x="63.623047"/>
     </g>
    </g>
    <g id="line2d_47">
     <path d="M 168.206813 48.90625 
L 176.206813 48.90625 
L 184.206813 48.90625 
" style="fill: none; stroke-dasharray: 5.55,2.4; stroke-dashoffset: 0; stroke: #f14cc1; stroke-width: 1.5"/>
    </g>
    <g id="text_28">
     <!-- 15 -->
     <g transform="translate(190.606813 51.70625)scale(0.08 -0.08)">
      <use xlink:href="#DejaVuSans-31"/>
      <use xlink:href="#DejaVuSans-35" x="63.623047"/>
     </g>
    </g>
   </g>
  </g>
 </g>
 <defs>
  <clipPath id="pf75edc7208">
   <rect x="52.882813" y="63.5" width="156.24" height="138.6"/>
  </clipPath>
 </defs>
</svg>
