<?xml version="1.0" encoding="utf-8" standalone="no"?>
<!DOCTYPE svg PUBLIC "-//W3C//DTD SVG 1.1//EN"
  "http://www.w3.org/Graphics/SVG/1.1/DTD/svg11.dtd">
<svg xmlns:xlink="http://www.w3.org/1999/xlink" width="218.020994pt" height="239.65625pt" viewBox="0 0 218.020994 239.65625" xmlns="http://www.w3.org/2000/svg" version="1.1">
 <metadata>
  <rdf:RDF xmlns:dc="http://purl.org/dc/elements/1.1/" xmlns:cc="http://creativecommons.org/ns#" xmlns:rdf="http://www.w3.org/1999/02/22-rdf-syntax-ns#">
   <cc:Work>
    <dc:type rdf:resource="http://purl.org/dc/dcmitype/StillImage"/>
    <dc:date>2024-03-05T10:02:07.932742</dc:date>
    <dc:format>image/svg+xml</dc:format>
    <dc:creator>
     <cc:Agent>
      <dc:title>Matplotlib v3.5.2, https://matplotlib.org/</dc:title>
     </cc:Agent>
    </dc:creator>
   </cc:Work>
  </rdf:RDF>
 </metadata>
 <defs>
  <style type="text/css">*{stroke-linejoin: round; stroke-linecap: butt}</style>
 </defs>
 <g id="figure_1">
  <g id="patch_1">
   <path d="M 0 239.65625 
L 218.020994 239.65625 
L 218.020994 0 
L 0 0 
z
" style="fill: #ffffff"/>
  </g>
  <g id="axes_1">
   <g id="patch_2">
    <path d="M 52.882813 202.1 
L 209.122813 202.1 
L 209.122813 63.5 
L 52.882813 63.5 
z
" style="fill: #ffffff"/>
   </g>
   <g id="matplotlib.axis_1">
    <g id="xtick_1">
     <g id="line2d_1">
      <defs>
       <path id="m3690494740" d="M 0 0 
L 0 3.5 
" style="stroke: #000000; stroke-width: 0.8"/>
      </defs>
      <g>
       <use xlink:href="#m3690494740" x="59.984631" y="202.1" style="stroke: #000000; stroke-width: 0.8"/>
      </g>
     </g>
     <g id="text_1">
      <!-- $\mathdefault{0}$ -->
      <g transform="translate(56.784631 216.698438)scale(0.1 -0.1)">
       <defs>
        <path id="DejaVuSans-30" d="M 2034 4250 
Q 1547 4250 1301 3770 
Q 1056 3291 1056 2328 
Q 1056 1369 1301 889 
Q 1547 409 2034 409 
Q 2525 409 2770 889 
Q 3016 1369 3016 2328 
Q 3016 3291 2770 3770 
Q 2525 4250 2034 4250 
z
M 2034 4750 
Q 2819 4750 3233 4129 
Q 3647 3509 3647 2328 
Q 3647 1150 3233 529 
Q 2819 -91 2034 -91 
Q 1250 -91 836 529 
Q 422 1150 422 2328 
Q 422 3509 836 4129 
Q 1250 4750 2034 4750 
z
" transform="scale(0.015625)"/>
       </defs>
       <use xlink:href="#DejaVuSans-30" transform="translate(0 0.78125)"/>
      </g>
     </g>
    </g>
    <g id="xtick_2">
     <g id="line2d_2">
      <g>
       <use xlink:href="#m3690494740" x="89.640575" y="202.1" style="stroke: #000000; stroke-width: 0.8"/>
      </g>
     </g>
     <g id="text_2">
      <!-- $\mathdefault{10^{-3}}$ -->
      <g transform="translate(77.890575 216.698438)scale(0.1 -0.1)">
       <defs>
        <path id="DejaVuSans-31" d="M 794 531 
L 1825 531 
L 1825 4091 
L 703 3866 
L 703 4441 
L 1819 4666 
L 2450 4666 
L 2450 531 
L 3481 531 
L 3481 0 
L 794 0 
L 794 531 
z
" transform="scale(0.015625)"/>
        <path id="DejaVuSans-2212" d="M 678 2272 
L 4684 2272 
L 4684 1741 
L 678 1741 
L 678 2272 
z
" transform="scale(0.015625)"/>
        <path id="DejaVuSans-33" d="M 2597 2516 
Q 3050 2419 3304 2112 
Q 3559 1806 3559 1356 
Q 3559 666 3084 287 
Q 2609 -91 1734 -91 
Q 1441 -91 1130 -33 
Q 819 25 488 141 
L 488 750 
Q 750 597 1062 519 
Q 1375 441 1716 441 
Q 2309 441 2620 675 
Q 2931 909 2931 1356 
Q 2931 1769 2642 2001 
Q 2353 2234 1838 2234 
L 1294 2234 
L 1294 2753 
L 1863 2753 
Q 2328 2753 2575 2939 
Q 2822 3125 2822 3475 
Q 2822 3834 2567 4026 
Q 2313 4219 1838 4219 
Q 1578 4219 1281 4162 
Q 984 4106 628 3988 
L 628 4550 
Q 988 4650 1302 4700 
Q 1616 4750 1894 4750 
Q 2613 4750 3031 4423 
Q 3450 4097 3450 3541 
Q 3450 3153 3228 2886 
Q 3006 2619 2597 2516 
z
" transform="scale(0.015625)"/>
       </defs>
       <use xlink:href="#DejaVuSans-31" transform="translate(0 0.765625)"/>
       <use xlink:href="#DejaVuSans-30" transform="translate(63.623047 0.765625)"/>
       <use xlink:href="#DejaVuSans-2212" transform="translate(128.203125 39.046875)scale(0.7)"/>
       <use xlink:href="#DejaVuSans-33" transform="translate(186.855469 39.046875)scale(0.7)"/>
      </g>
     </g>
    </g>
    <g id="xtick_3">
     <g id="line2d_3">
      <g>
       <use xlink:href="#m3690494740" x="117.73568" y="202.1" style="stroke: #000000; stroke-width: 0.8"/>
      </g>
     </g>
     <g id="text_3">
      <!-- $\mathdefault{10^{-1}}$ -->
      <g transform="translate(105.98568 216.698438)scale(0.1 -0.1)">
       <use xlink:href="#DejaVuSans-31" transform="translate(0 0.684375)"/>
       <use xlink:href="#DejaVuSans-30" transform="translate(63.623047 0.684375)"/>
       <use xlink:href="#DejaVuSans-2212" transform="translate(128.203125 38.965625)scale(0.7)"/>
       <use xlink:href="#DejaVuSans-31" transform="translate(186.855469 38.965625)scale(0.7)"/>
      </g>
     </g>
    </g>
    <g id="xtick_4">
     <g id="line2d_4">
      <g>
       <use xlink:href="#m3690494740" x="145.830785" y="202.1" style="stroke: #000000; stroke-width: 0.8"/>
      </g>
     </g>
     <g id="text_4">
      <!-- $\mathdefault{10^{1}}$ -->
      <g transform="translate(137.030785 216.698438)scale(0.1 -0.1)">
       <use xlink:href="#DejaVuSans-31" transform="translate(0 0.684375)"/>
       <use xlink:href="#DejaVuSans-30" transform="translate(63.623047 0.684375)"/>
       <use xlink:href="#DejaVuSans-31" transform="translate(128.203125 38.965625)scale(0.7)"/>
      </g>
     </g>
    </g>
    <g id="xtick_5">
     <g id="line2d_5">
      <g>
       <use xlink:href="#m3690494740" x="173.925889" y="202.1" style="stroke: #000000; stroke-width: 0.8"/>
      </g>
     </g>
     <g id="text_5">
      <!-- $\mathdefault{10^{3}}$ -->
      <g transform="translate(165.125889 216.698438)scale(0.1 -0.1)">
       <use xlink:href="#DejaVuSans-31" transform="translate(0 0.765625)"/>
       <use xlink:href="#DejaVuSans-30" transform="translate(63.623047 0.765625)"/>
       <use xlink:href="#DejaVuSans-33" transform="translate(128.203125 39.046875)scale(0.7)"/>
      </g>
     </g>
    </g>
    <g id="xtick_6">
     <g id="line2d_6">
      <g>
       <use xlink:href="#m3690494740" x="202.020994" y="202.1" style="stroke: #000000; stroke-width: 0.8"/>
      </g>
     </g>
     <g id="text_6">
      <!-- $\mathdefault{10^{5}}$ -->
      <g transform="translate(193.220994 216.698438)scale(0.1 -0.1)">
       <defs>
        <path id="DejaVuSans-35" d="M 691 4666 
L 3169 4666 
L 3169 4134 
L 1269 4134 
L 1269 2991 
Q 1406 3038 1543 3061 
Q 1681 3084 1819 3084 
Q 2600 3084 3056 2656 
Q 3513 2228 3513 1497 
Q 3513 744 3044 326 
Q 2575 -91 1722 -91 
Q 1428 -91 1123 -41 
Q 819 9 494 109 
L 494 744 
Q 775 591 1075 516 
Q 1375 441 1709 441 
Q 2250 441 2565 725 
Q 2881 1009 2881 1497 
Q 2881 1984 2565 2268 
Q 2250 2553 1709 2553 
Q 1456 2553 1204 2497 
Q 953 2441 691 2322 
L 691 4666 
z
" transform="scale(0.015625)"/>
       </defs>
       <use xlink:href="#DejaVuSans-31" transform="translate(0 0.684375)"/>
       <use xlink:href="#DejaVuSans-30" transform="translate(63.623047 0.684375)"/>
       <use xlink:href="#DejaVuSans-35" transform="translate(128.203125 38.965625)scale(0.7)"/>
      </g>
     </g>
    </g>
    <g id="xtick_7">
     <g id="line2d_7">
      <defs>
       <path id="m4c5c5ab1bf" d="M 0 0 
L 0 2 
" style="stroke: #000000; stroke-width: 0.6"/>
      </defs>
      <g>
       <use xlink:href="#m4c5c5ab1bf" x="75.593022" y="202.1" style="stroke: #000000; stroke-width: 0.6"/>
      </g>
     </g>
    </g>
    <g id="xtick_8">
     <g id="line2d_8">
      <g>
       <use xlink:href="#m4c5c5ab1bf" x="103.688127" y="202.1" style="stroke: #000000; stroke-width: 0.6"/>
      </g>
     </g>
    </g>
    <g id="xtick_9">
     <g id="line2d_9">
      <g>
       <use xlink:href="#m4c5c5ab1bf" x="131.783232" y="202.1" style="stroke: #000000; stroke-width: 0.6"/>
      </g>
     </g>
    </g>
    <g id="xtick_10">
     <g id="line2d_10">
      <g>
       <use xlink:href="#m4c5c5ab1bf" x="159.878337" y="202.1" style="stroke: #000000; stroke-width: 0.6"/>
      </g>
     </g>
    </g>
    <g id="xtick_11">
     <g id="line2d_11">
      <g>
       <use xlink:href="#m4c5c5ab1bf" x="187.973442" y="202.1" style="stroke: #000000; stroke-width: 0.6"/>
      </g>
     </g>
    </g>
    <g id="text_7">
     <!-- Drug Concentration (µg/ml) -->
     <g transform="translate(62.004375 230.376563)scale(0.1 -0.1)">
      <defs>
       <path id="DejaVuSans-44" d="M 1259 4147 
L 1259 519 
L 2022 519 
Q 2988 519 3436 956 
Q 3884 1394 3884 2338 
Q 3884 3275 3436 3711 
Q 2988 4147 2022 4147 
L 1259 4147 
z
M 628 4666 
L 1925 4666 
Q 3281 4666 3915 4102 
Q 4550 3538 4550 2338 
Q 4550 1131 3912 565 
Q 3275 0 1925 0 
L 628 0 
L 628 4666 
z
" transform="scale(0.015625)"/>
       <path id="DejaVuSans-72" d="M 2631 2963 
Q 2534 3019 2420 3045 
Q 2306 3072 2169 3072 
Q 1681 3072 1420 2755 
Q 1159 2438 1159 1844 
L 1159 0 
L 581 0 
L 581 3500 
L 1159 3500 
L 1159 2956 
Q 1341 3275 1631 3429 
Q 1922 3584 2338 3584 
Q 2397 3584 2469 3576 
Q 2541 3569 2628 3553 
L 2631 2963 
z
" transform="scale(0.015625)"/>
       <path id="DejaVuSans-75" d="M 544 1381 
L 544 3500 
L 1119 3500 
L 1119 1403 
Q 1119 906 1312 657 
Q 1506 409 1894 409 
Q 2359 409 2629 706 
Q 2900 1003 2900 1516 
L 2900 3500 
L 3475 3500 
L 3475 0 
L 2900 0 
L 2900 538 
Q 2691 219 2414 64 
Q 2138 -91 1772 -91 
Q 1169 -91 856 284 
Q 544 659 544 1381 
z
M 1991 3584 
L 1991 3584 
z
" transform="scale(0.015625)"/>
       <path id="DejaVuSans-67" d="M 2906 1791 
Q 2906 2416 2648 2759 
Q 2391 3103 1925 3103 
Q 1463 3103 1205 2759 
Q 947 2416 947 1791 
Q 947 1169 1205 825 
Q 1463 481 1925 481 
Q 2391 481 2648 825 
Q 2906 1169 2906 1791 
z
M 3481 434 
Q 3481 -459 3084 -895 
Q 2688 -1331 1869 -1331 
Q 1566 -1331 1297 -1286 
Q 1028 -1241 775 -1147 
L 775 -588 
Q 1028 -725 1275 -790 
Q 1522 -856 1778 -856 
Q 2344 -856 2625 -561 
Q 2906 -266 2906 331 
L 2906 616 
Q 2728 306 2450 153 
Q 2172 0 1784 0 
Q 1141 0 747 490 
Q 353 981 353 1791 
Q 353 2603 747 3093 
Q 1141 3584 1784 3584 
Q 2172 3584 2450 3431 
Q 2728 3278 2906 2969 
L 2906 3500 
L 3481 3500 
L 3481 434 
z
" transform="scale(0.015625)"/>
       <path id="DejaVuSans-20" transform="scale(0.015625)"/>
       <path id="DejaVuSans-43" d="M 4122 4306 
L 4122 3641 
Q 3803 3938 3442 4084 
Q 3081 4231 2675 4231 
Q 1875 4231 1450 3742 
Q 1025 3253 1025 2328 
Q 1025 1406 1450 917 
Q 1875 428 2675 428 
Q 3081 428 3442 575 
Q 3803 722 4122 1019 
L 4122 359 
Q 3791 134 3420 21 
Q 3050 -91 2638 -91 
Q 1578 -91 968 557 
Q 359 1206 359 2328 
Q 359 3453 968 4101 
Q 1578 4750 2638 4750 
Q 3056 4750 3426 4639 
Q 3797 4528 4122 4306 
z
" transform="scale(0.015625)"/>
       <path id="DejaVuSans-6f" d="M 1959 3097 
Q 1497 3097 1228 2736 
Q 959 2375 959 1747 
Q 959 1119 1226 758 
Q 1494 397 1959 397 
Q 2419 397 2687 759 
Q 2956 1122 2956 1747 
Q 2956 2369 2687 2733 
Q 2419 3097 1959 3097 
z
M 1959 3584 
Q 2709 3584 3137 3096 
Q 3566 2609 3566 1747 
Q 3566 888 3137 398 
Q 2709 -91 1959 -91 
Q 1206 -91 779 398 
Q 353 888 353 1747 
Q 353 2609 779 3096 
Q 1206 3584 1959 3584 
z
" transform="scale(0.015625)"/>
       <path id="DejaVuSans-6e" d="M 3513 2113 
L 3513 0 
L 2938 0 
L 2938 2094 
Q 2938 2591 2744 2837 
Q 2550 3084 2163 3084 
Q 1697 3084 1428 2787 
Q 1159 2491 1159 1978 
L 1159 0 
L 581 0 
L 581 3500 
L 1159 3500 
L 1159 2956 
Q 1366 3272 1645 3428 
Q 1925 3584 2291 3584 
Q 2894 3584 3203 3211 
Q 3513 2838 3513 2113 
z
" transform="scale(0.015625)"/>
       <path id="DejaVuSans-63" d="M 3122 3366 
L 3122 2828 
Q 2878 2963 2633 3030 
Q 2388 3097 2138 3097 
Q 1578 3097 1268 2742 
Q 959 2388 959 1747 
Q 959 1106 1268 751 
Q 1578 397 2138 397 
Q 2388 397 2633 464 
Q 2878 531 3122 666 
L 3122 134 
Q 2881 22 2623 -34 
Q 2366 -91 2075 -91 
Q 1284 -91 818 406 
Q 353 903 353 1747 
Q 353 2603 823 3093 
Q 1294 3584 2113 3584 
Q 2378 3584 2631 3529 
Q 2884 3475 3122 3366 
z
" transform="scale(0.015625)"/>
       <path id="DejaVuSans-65" d="M 3597 1894 
L 3597 1613 
L 953 1613 
Q 991 1019 1311 708 
Q 1631 397 2203 397 
Q 2534 397 2845 478 
Q 3156 559 3463 722 
L 3463 178 
Q 3153 47 2828 -22 
Q 2503 -91 2169 -91 
Q 1331 -91 842 396 
Q 353 884 353 1716 
Q 353 2575 817 3079 
Q 1281 3584 2069 3584 
Q 2775 3584 3186 3129 
Q 3597 2675 3597 1894 
z
M 3022 2063 
Q 3016 2534 2758 2815 
Q 2500 3097 2075 3097 
Q 1594 3097 1305 2825 
Q 1016 2553 972 2059 
L 3022 2063 
z
" transform="scale(0.015625)"/>
       <path id="DejaVuSans-74" d="M 1172 4494 
L 1172 3500 
L 2356 3500 
L 2356 3053 
L 1172 3053 
L 1172 1153 
Q 1172 725 1289 603 
Q 1406 481 1766 481 
L 2356 481 
L 2356 0 
L 1766 0 
Q 1100 0 847 248 
Q 594 497 594 1153 
L 594 3053 
L 172 3053 
L 172 3500 
L 594 3500 
L 594 4494 
L 1172 4494 
z
" transform="scale(0.015625)"/>
       <path id="DejaVuSans-61" d="M 2194 1759 
Q 1497 1759 1228 1600 
Q 959 1441 959 1056 
Q 959 750 1161 570 
Q 1363 391 1709 391 
Q 2188 391 2477 730 
Q 2766 1069 2766 1631 
L 2766 1759 
L 2194 1759 
z
M 3341 1997 
L 3341 0 
L 2766 0 
L 2766 531 
Q 2569 213 2275 61 
Q 1981 -91 1556 -91 
Q 1019 -91 701 211 
Q 384 513 384 1019 
Q 384 1609 779 1909 
Q 1175 2209 1959 2209 
L 2766 2209 
L 2766 2266 
Q 2766 2663 2505 2880 
Q 2244 3097 1772 3097 
Q 1472 3097 1187 3025 
Q 903 2953 641 2809 
L 641 3341 
Q 956 3463 1253 3523 
Q 1550 3584 1831 3584 
Q 2591 3584 2966 3190 
Q 3341 2797 3341 1997 
z
" transform="scale(0.015625)"/>
       <path id="DejaVuSans-69" d="M 603 3500 
L 1178 3500 
L 1178 0 
L 603 0 
L 603 3500 
z
M 603 4863 
L 1178 4863 
L 1178 4134 
L 603 4134 
L 603 4863 
z
" transform="scale(0.015625)"/>
       <path id="DejaVuSans-28" d="M 1984 4856 
Q 1566 4138 1362 3434 
Q 1159 2731 1159 2009 
Q 1159 1288 1364 580 
Q 1569 -128 1984 -844 
L 1484 -844 
Q 1016 -109 783 600 
Q 550 1309 550 2009 
Q 550 2706 781 3412 
Q 1013 4119 1484 4856 
L 1984 4856 
z
" transform="scale(0.015625)"/>
       <path id="DejaVuSans-b5" d="M 544 -1331 
L 544 3500 
L 1119 3500 
L 1119 1325 
Q 1119 872 1334 640 
Q 1550 409 1972 409 
Q 2434 409 2667 671 
Q 2900 934 2900 1459 
L 2900 3500 
L 3475 3500 
L 3475 806 
Q 3475 619 3529 530 
Q 3584 441 3700 441 
Q 3728 441 3778 458 
Q 3828 475 3916 513 
L 3916 50 
Q 3788 -22 3673 -56 
Q 3559 -91 3450 -91 
Q 3234 -91 3106 31 
Q 2978 153 2931 403 
Q 2775 156 2548 32 
Q 2322 -91 2016 -91 
Q 1697 -91 1473 31 
Q 1250 153 1119 397 
L 1119 -1331 
L 544 -1331 
z
" transform="scale(0.015625)"/>
       <path id="DejaVuSans-2f" d="M 1625 4666 
L 2156 4666 
L 531 -594 
L 0 -594 
L 1625 4666 
z
" transform="scale(0.015625)"/>
       <path id="DejaVuSans-6d" d="M 3328 2828 
Q 3544 3216 3844 3400 
Q 4144 3584 4550 3584 
Q 5097 3584 5394 3201 
Q 5691 2819 5691 2113 
L 5691 0 
L 5113 0 
L 5113 2094 
Q 5113 2597 4934 2840 
Q 4756 3084 4391 3084 
Q 3944 3084 3684 2787 
Q 3425 2491 3425 1978 
L 3425 0 
L 2847 0 
L 2847 2094 
Q 2847 2600 2669 2842 
Q 2491 3084 2119 3084 
Q 1678 3084 1418 2786 
Q 1159 2488 1159 1978 
L 1159 0 
L 581 0 
L 581 3500 
L 1159 3500 
L 1159 2956 
Q 1356 3278 1631 3431 
Q 1906 3584 2284 3584 
Q 2666 3584 2933 3390 
Q 3200 3197 3328 2828 
z
" transform="scale(0.015625)"/>
       <path id="DejaVuSans-6c" d="M 603 4863 
L 1178 4863 
L 1178 0 
L 603 0 
L 603 4863 
z
" transform="scale(0.015625)"/>
       <path id="DejaVuSans-29" d="M 513 4856 
L 1013 4856 
Q 1481 4119 1714 3412 
Q 1947 2706 1947 2009 
Q 1947 1309 1714 600 
Q 1481 -109 1013 -844 
L 513 -844 
Q 928 -128 1133 580 
Q 1338 1288 1338 2009 
Q 1338 2731 1133 3434 
Q 928 4138 513 4856 
z
" transform="scale(0.015625)"/>
      </defs>
      <use xlink:href="#DejaVuSans-44"/>
      <use xlink:href="#DejaVuSans-72" x="77.001953"/>
      <use xlink:href="#DejaVuSans-75" x="118.115234"/>
      <use xlink:href="#DejaVuSans-67" x="181.494141"/>
      <use xlink:href="#DejaVuSans-20" x="244.970703"/>
      <use xlink:href="#DejaVuSans-43" x="276.757812"/>
      <use xlink:href="#DejaVuSans-6f" x="346.582031"/>
      <use xlink:href="#DejaVuSans-6e" x="407.763672"/>
      <use xlink:href="#DejaVuSans-63" x="471.142578"/>
      <use xlink:href="#DejaVuSans-65" x="526.123047"/>
      <use xlink:href="#DejaVuSans-6e" x="587.646484"/>
      <use xlink:href="#DejaVuSans-74" x="651.025391"/>
      <use xlink:href="#DejaVuSans-72" x="690.234375"/>
      <use xlink:href="#DejaVuSans-61" x="731.347656"/>
      <use xlink:href="#DejaVuSans-74" x="792.626953"/>
      <use xlink:href="#DejaVuSans-69" x="831.835938"/>
      <use xlink:href="#DejaVuSans-6f" x="859.619141"/>
      <use xlink:href="#DejaVuSans-6e" x="920.800781"/>
      <use xlink:href="#DejaVuSans-20" x="984.179688"/>
      <use xlink:href="#DejaVuSans-28" x="1015.966797"/>
      <use xlink:href="#DejaVuSans-b5" x="1054.980469"/>
      <use xlink:href="#DejaVuSans-67" x="1118.603516"/>
      <use xlink:href="#DejaVuSans-2f" x="1182.080078"/>
      <use xlink:href="#DejaVuSans-6d" x="1215.771484"/>
      <use xlink:href="#DejaVuSans-6c" x="1313.183594"/>
      <use xlink:href="#DejaVuSans-29" x="1340.966797"/>
     </g>
    </g>
   </g>
   <g id="matplotlib.axis_2">
    <g id="ytick_1">
     <g id="line2d_12">
      <defs>
       <path id="md2ae89690d" d="M 0 0 
L -3.5 0 
" style="stroke: #000000; stroke-width: 0.8"/>
      </defs>
      <g>
       <use xlink:href="#md2ae89690d" x="52.882813" y="185.839708" style="stroke: #000000; stroke-width: 0.8"/>
      </g>
     </g>
     <g id="text_8">
      <!-- −0.5 -->
      <g transform="translate(21.6 189.638927)scale(0.1 -0.1)">
       <defs>
        <path id="DejaVuSans-2e" d="M 684 794 
L 1344 794 
L 1344 0 
L 684 0 
L 684 794 
z
" transform="scale(0.015625)"/>
       </defs>
       <use xlink:href="#DejaVuSans-2212"/>
       <use xlink:href="#DejaVuSans-30" x="83.789062"/>
       <use xlink:href="#DejaVuSans-2e" x="147.412109"/>
       <use xlink:href="#DejaVuSans-35" x="179.199219"/>
      </g>
     </g>
    </g>
    <g id="ytick_2">
     <g id="line2d_13">
      <g>
       <use xlink:href="#md2ae89690d" x="52.882813" y="154.692316" style="stroke: #000000; stroke-width: 0.8"/>
      </g>
     </g>
     <g id="text_9">
      <!-- 0.0 -->
      <g transform="translate(29.979688 158.491535)scale(0.1 -0.1)">
       <use xlink:href="#DejaVuSans-30"/>
       <use xlink:href="#DejaVuSans-2e" x="63.623047"/>
       <use xlink:href="#DejaVuSans-30" x="95.410156"/>
      </g>
     </g>
    </g>
    <g id="ytick_3">
     <g id="line2d_14">
      <g>
       <use xlink:href="#md2ae89690d" x="52.882813" y="123.544925" style="stroke: #000000; stroke-width: 0.8"/>
      </g>
     </g>
     <g id="text_10">
      <!-- 0.5 -->
      <g transform="translate(29.979688 127.344143)scale(0.1 -0.1)">
       <use xlink:href="#DejaVuSans-30"/>
       <use xlink:href="#DejaVuSans-2e" x="63.623047"/>
       <use xlink:href="#DejaVuSans-35" x="95.410156"/>
      </g>
     </g>
    </g>
    <g id="ytick_4">
     <g id="line2d_15">
      <g>
       <use xlink:href="#md2ae89690d" x="52.882813" y="92.397533" style="stroke: #000000; stroke-width: 0.8"/>
      </g>
     </g>
     <g id="text_11">
      <!-- 1.0 -->
      <g transform="translate(29.979688 96.196752)scale(0.1 -0.1)">
       <use xlink:href="#DejaVuSans-31"/>
       <use xlink:href="#DejaVuSans-2e" x="63.623047"/>
       <use xlink:href="#DejaVuSans-30" x="95.410156"/>
      </g>
     </g>
    </g>
    <g id="text_12">
     <!-- Net Growth Rate (hr$^{-1}$) -->
     <g transform="translate(15.520313 190.6)rotate(-90)scale(0.1 -0.1)">
      <defs>
       <path id="DejaVuSans-4e" d="M 628 4666 
L 1478 4666 
L 3547 763 
L 3547 4666 
L 4159 4666 
L 4159 0 
L 3309 0 
L 1241 3903 
L 1241 0 
L 628 0 
L 628 4666 
z
" transform="scale(0.015625)"/>
       <path id="DejaVuSans-47" d="M 3809 666 
L 3809 1919 
L 2778 1919 
L 2778 2438 
L 4434 2438 
L 4434 434 
Q 4069 175 3628 42 
Q 3188 -91 2688 -91 
Q 1594 -91 976 548 
Q 359 1188 359 2328 
Q 359 3472 976 4111 
Q 1594 4750 2688 4750 
Q 3144 4750 3555 4637 
Q 3966 4525 4313 4306 
L 4313 3634 
Q 3963 3931 3569 4081 
Q 3175 4231 2741 4231 
Q 1884 4231 1454 3753 
Q 1025 3275 1025 2328 
Q 1025 1384 1454 906 
Q 1884 428 2741 428 
Q 3075 428 3337 486 
Q 3600 544 3809 666 
z
" transform="scale(0.015625)"/>
       <path id="DejaVuSans-77" d="M 269 3500 
L 844 3500 
L 1563 769 
L 2278 3500 
L 2956 3500 
L 3675 769 
L 4391 3500 
L 4966 3500 
L 4050 0 
L 3372 0 
L 2619 2869 
L 1863 0 
L 1184 0 
L 269 3500 
z
" transform="scale(0.015625)"/>
       <path id="DejaVuSans-68" d="M 3513 2113 
L 3513 0 
L 2938 0 
L 2938 2094 
Q 2938 2591 2744 2837 
Q 2550 3084 2163 3084 
Q 1697 3084 1428 2787 
Q 1159 2491 1159 1978 
L 1159 0 
L 581 0 
L 581 4863 
L 1159 4863 
L 1159 2956 
Q 1366 3272 1645 3428 
Q 1925 3584 2291 3584 
Q 2894 3584 3203 3211 
Q 3513 2838 3513 2113 
z
" transform="scale(0.015625)"/>
       <path id="DejaVuSans-52" d="M 2841 2188 
Q 3044 2119 3236 1894 
Q 3428 1669 3622 1275 
L 4263 0 
L 3584 0 
L 2988 1197 
Q 2756 1666 2539 1819 
Q 2322 1972 1947 1972 
L 1259 1972 
L 1259 0 
L 628 0 
L 628 4666 
L 2053 4666 
Q 2853 4666 3247 4331 
Q 3641 3997 3641 3322 
Q 3641 2881 3436 2590 
Q 3231 2300 2841 2188 
z
M 1259 4147 
L 1259 2491 
L 2053 2491 
Q 2509 2491 2742 2702 
Q 2975 2913 2975 3322 
Q 2975 3731 2742 3939 
Q 2509 4147 2053 4147 
L 1259 4147 
z
" transform="scale(0.015625)"/>
      </defs>
      <use xlink:href="#DejaVuSans-4e" transform="translate(0 0.684375)"/>
      <use xlink:href="#DejaVuSans-65" transform="translate(74.804688 0.684375)"/>
      <use xlink:href="#DejaVuSans-74" transform="translate(136.328125 0.684375)"/>
      <use xlink:href="#DejaVuSans-20" transform="translate(175.537109 0.684375)"/>
      <use xlink:href="#DejaVuSans-47" transform="translate(207.324219 0.684375)"/>
      <use xlink:href="#DejaVuSans-72" transform="translate(284.814453 0.684375)"/>
      <use xlink:href="#DejaVuSans-6f" transform="translate(325.927734 0.684375)"/>
      <use xlink:href="#DejaVuSans-77" transform="translate(387.109375 0.684375)"/>
      <use xlink:href="#DejaVuSans-74" transform="translate(468.896484 0.684375)"/>
      <use xlink:href="#DejaVuSans-68" transform="translate(508.105469 0.684375)"/>
      <use xlink:href="#DejaVuSans-20" transform="translate(571.484375 0.684375)"/>
      <use xlink:href="#DejaVuSans-52" transform="translate(603.271484 0.684375)"/>
      <use xlink:href="#DejaVuSans-61" transform="translate(672.753906 0.684375)"/>
      <use xlink:href="#DejaVuSans-74" transform="translate(734.033203 0.684375)"/>
      <use xlink:href="#DejaVuSans-65" transform="translate(773.242188 0.684375)"/>
      <use xlink:href="#DejaVuSans-20" transform="translate(834.765625 0.684375)"/>
      <use xlink:href="#DejaVuSans-28" transform="translate(866.552734 0.684375)"/>
      <use xlink:href="#DejaVuSans-68" transform="translate(905.566406 0.684375)"/>
      <use xlink:href="#DejaVuSans-72" transform="translate(968.945312 0.684375)"/>
      <use xlink:href="#DejaVuSans-2212" transform="translate(1011.015625 38.965625)scale(0.7)"/>
      <use xlink:href="#DejaVuSans-31" transform="translate(1069.667969 38.965625)scale(0.7)"/>
      <use xlink:href="#DejaVuSans-29" transform="translate(1116.938477 0.684375)"/>
     </g>
    </g>
   </g>
   <g id="line2d_16">
    <path d="M 59.984631 69.8 
L 75.593022 84.875616 
L 76.870073 86.532393 
L 78.147123 88.340814 
L 79.424173 90.308007 
L 80.701223 92.439949 
L 81.978273 94.741124 
L 83.255324 97.214164 
L 84.532374 99.859486 
L 85.809424 102.674952 
L 87.086474 105.655578 
L 88.363525 108.793297 
L 89.640575 112.076831 
L 90.917625 115.491672 
L 92.194675 119.020197 
L 93.471725 122.641932 
L 94.748776 126.333956 
L 96.025826 130.071439 
L 97.302876 133.828286 
L 98.579926 137.577858 
L 99.856977 141.293719 
L 101.134027 144.950379 
L 102.411077 148.523976 
L 103.688127 151.992864 
L 104.965177 155.338083 
L 106.242228 158.543687 
L 107.519278 161.596922 
L 108.796328 164.488272 
L 110.073378 167.211376 
L 111.350429 169.762833 
L 112.627479 172.141941 
L 113.904529 174.350368 
L 115.181579 176.3918 
L 116.458629 178.27158 
L 117.73568 179.996355 
L 119.01273 181.573741 
L 120.28978 183.012026 
L 121.56683 184.319907 
L 122.843881 185.506261 
L 124.120931 186.579963 
L 125.397981 187.549732 
L 126.675031 188.42402 
L 127.952081 189.210921 
L 129.229132 189.918114 
L 130.506182 190.552821 
L 131.783232 191.121786 
L 133.060282 191.631268 
L 134.337333 192.087044 
L 135.614383 192.494424 
L 136.891433 192.858266 
L 138.168483 193.182997 
L 139.445533 193.472644 
L 140.722584 193.730855 
L 141.999634 193.96093 
L 143.276684 194.165844 
L 144.553734 194.348278 
L 145.830785 194.510642 
L 147.107835 194.6551 
L 148.384885 194.783591 
L 149.661935 194.897851 
L 150.938985 194.999436 
L 152.216036 195.089734 
L 153.493086 195.169985 
L 154.770136 195.241296 
L 156.047186 195.304654 
L 157.324237 195.36094 
L 158.601287 195.410937 
L 159.878337 195.455345 
L 161.155387 195.494784 
L 162.432437 195.529809 
L 163.709488 195.56091 
L 164.986538 195.588526 
L 166.263588 195.613046 
L 167.540638 195.634817 
L 168.817689 195.654145 
L 170.094739 195.671304 
L 171.371789 195.686537 
L 172.648839 195.70006 
L 173.925889 195.712065 
L 175.20294 195.722721 
L 176.47999 195.73218 
L 177.75704 195.740577 
L 179.03409 195.74803 
L 180.311141 195.754645 
L 181.588191 195.760517 
L 182.865241 195.765729 
L 184.142291 195.770355 
L 185.419341 195.774462 
L 186.696392 195.778106 
L 187.973442 195.781341 
L 189.250492 195.784212 
L 190.527542 195.78676 
L 191.804593 195.789022 
L 193.081643 195.79103 
L 194.358693 195.792811 
L 195.635743 195.794393 
L 196.912793 195.795796 
L 198.189844 195.797042 
L 199.466894 195.798148 
L 200.743944 195.799129 
L 202.020994 195.8 
" clip-path="url(#p6d5f159f20)" style="fill: none; stroke: #023eff; stroke-width: 1.5; stroke-linecap: square"/>
   </g>
   <g id="line2d_17">
    <path d="M 59.984631 91.673207 
L 75.593022 91.757527 
L 76.870073 91.768202 
L 78.147123 91.780228 
L 79.424173 91.793775 
L 80.701223 91.809034 
L 81.978273 91.826222 
L 83.255324 91.84558 
L 84.532374 91.867384 
L 85.809424 91.891939 
L 87.086474 91.919593 
L 88.363525 91.950733 
L 89.640575 91.985797 
L 90.917625 92.025276 
L 92.194675 92.069723 
L 93.471725 92.119756 
L 94.748776 92.176072 
L 96.025826 92.239451 
L 97.302876 92.31077 
L 98.579926 92.391008 
L 99.856977 92.481266 
L 101.134027 92.582774 
L 102.411077 92.696906 
L 103.688127 92.8252 
L 104.965177 92.96937 
L 106.242228 93.131327 
L 107.519278 93.313198 
L 108.796328 93.517346 
L 110.073378 93.746393 
L 111.350429 94.003241 
L 112.627479 94.291093 
L 113.904529 94.613479 
L 115.181579 94.974275 
L 116.458629 95.377723 
L 117.73568 95.828447 
L 119.01273 96.331467 
L 120.28978 96.892203 
L 121.56683 97.516471 
L 122.843881 98.210476 
L 124.120931 98.98078 
L 125.397981 99.834261 
L 126.675031 100.77805 
L 127.952081 101.819446 
L 129.229132 102.965799 
L 130.506182 104.224375 
L 131.783232 105.602177 
L 133.060282 107.10574 
L 134.337333 108.740895 
L 135.614383 110.512507 
L 136.891433 112.424181 
L 138.168483 114.477975 
L 139.445533 116.674092 
L 140.722584 119.010608 
L 141.999634 121.48323 
L 143.276684 124.085106 
L 144.553734 126.806728 
L 145.830785 129.63592 
L 147.107835 132.557945 
L 148.384885 135.555726 
L 149.661935 138.610195 
L 150.938985 141.70074 
L 152.216036 144.805744 
L 153.493086 147.903184 
L 154.770136 150.971249 
L 156.047186 153.98895 
L 157.324237 156.936681 
L 158.601287 159.796699 
L 159.878337 162.553503 
L 161.155387 165.194097 
L 162.432437 167.70813 
L 163.709488 170.087926 
L 164.986538 172.328404 
L 166.263588 174.426921 
L 167.540638 176.383042 
L 168.817689 178.198274 
L 170.094739 179.875769 
L 171.371789 181.420028 
L 172.648839 182.836608 
L 173.925889 184.131852 
L 175.20294 185.312639 
L 176.47999 186.386172 
L 177.75704 187.359792 
L 179.03409 188.240828 
L 180.311141 189.036473 
L 181.588191 189.753692 
L 182.865241 190.399153 
L 184.142291 190.979176 
L 185.419341 191.4997 
L 186.696392 191.966272 
L 187.973442 192.384035 
L 189.250492 192.757738 
L 190.527542 193.09174 
L 191.804593 193.39003 
L 193.081643 193.656245 
L 194.358693 193.893687 
L 195.635743 194.105352 
L 196.912793 194.293946 
L 198.189844 194.461911 
L 199.466894 194.611446 
L 200.743944 194.744527 
L 202.020994 194.862928 
" clip-path="url(#p6d5f159f20)" style="fill: none; stroke: #ff7c00; stroke-width: 1.5; stroke-linecap: square"/>
   </g>
   <g id="line2d_18">
    <path d="M 59.984631 112.380545 
L 75.593022 112.421389 
L 76.870073 112.426562 
L 78.147123 112.43239 
L 79.424173 112.438955 
L 80.701223 112.446351 
L 81.978273 112.454683 
L 83.255324 112.464069 
L 84.532374 112.474642 
L 85.809424 112.486551 
L 87.086474 112.499965 
L 88.363525 112.515075 
L 89.640575 112.532092 
L 90.917625 112.551257 
L 92.194675 112.572841 
L 93.471725 112.597147 
L 94.748776 112.624516 
L 96.025826 112.655331 
L 97.302876 112.690024 
L 98.579926 112.729079 
L 99.856977 112.77304 
L 101.134027 112.822515 
L 102.411077 112.87819 
L 103.688127 112.940831 
L 104.965177 113.011297 
L 106.242228 113.090549 
L 107.519278 113.179663 
L 108.796328 113.27984 
L 110.073378 113.392421 
L 111.350429 113.518902 
L 112.627479 113.660947 
L 113.904529 113.820407 
L 115.181579 113.999334 
L 116.458629 114.200002 
L 117.73568 114.424923 
L 119.01273 114.676867 
L 120.28978 114.958877 
L 121.56683 115.274284 
L 122.843881 115.626726 
L 124.120931 116.020154 
L 125.397981 116.458838 
L 126.675031 116.947371 
L 127.952081 117.490656 
L 129.229132 118.093889 
L 130.506182 118.762529 
L 131.783232 119.502251 
L 133.060282 120.318877 
L 134.337333 121.218298 
L 135.614383 122.206359 
L 136.891433 123.288732 
L 138.168483 124.470748 
L 139.445533 125.757222 
L 140.722584 127.152239 
L 141.999634 128.65893 
L 143.276684 130.279237 
L 144.553734 132.013669 
L 145.830785 133.861076 
L 147.107835 135.81845 
L 148.384885 137.880763 
L 149.661935 140.040868 
L 150.938985 142.289475 
L 152.216036 144.615217 
L 153.493086 147.004804 
L 154.770136 149.443283 
L 156.047186 151.914376 
L 157.324237 154.400904 
L 158.601287 156.88525 
L 159.878337 159.349861 
L 161.155387 161.777737 
L 162.432437 164.152892 
L 163.709488 166.460755 
L 164.986538 168.68849 
L 166.263588 170.825232 
L 167.540638 172.862218 
L 168.817689 174.792829 
L 170.094739 176.612548 
L 171.371789 178.318842 
L 172.648839 179.910991 
L 173.925889 181.38988 
L 175.20294 182.757767 
L 176.47999 184.018039 
L 177.75704 185.174983 
L 179.03409 186.233558 
L 180.311141 187.199199 
L 181.588191 188.077631 
L 182.865241 188.874723 
L 184.142291 189.596358 
L 185.419341 190.248329 
L 186.696392 190.836264 
L 187.973442 191.365558 
L 189.250492 191.84134 
L 190.527542 192.268436 
L 191.804593 192.65136 
L 193.081643 192.994303 
L 194.358693 193.301139 
L 195.635743 193.575427 
L 196.912793 193.820427 
L 198.189844 194.039114 
L 199.466894 194.23419 
L 200.743944 194.408108 
L 202.020994 194.563085 
" clip-path="url(#p6d5f159f20)" style="fill: none; stroke: #1ac938; stroke-width: 1.5; stroke-linecap: square"/>
   </g>
   <g id="line2d_19">
    <path d="M 59.984631 96.907429 
L 75.593022 96.934498 
L 76.870073 96.937927 
L 78.147123 96.941791 
L 79.424173 96.946143 
L 80.701223 96.951047 
L 81.978273 96.956572 
L 83.255324 96.962797 
L 84.532374 96.969809 
L 85.809424 96.977708 
L 87.086474 96.986607 
L 88.363525 96.996632 
L 89.640575 97.007925 
L 90.917625 97.020646 
L 92.194675 97.034975 
L 93.471725 97.051115 
L 94.748776 97.069294 
L 96.025826 97.089769 
L 97.302876 97.112828 
L 98.579926 97.138796 
L 99.856977 97.168039 
L 101.134027 97.200967 
L 102.411077 97.238042 
L 103.688127 97.279781 
L 104.965177 97.326767 
L 106.242228 97.379655 
L 107.519278 97.439176 
L 108.796328 97.506154 
L 110.073378 97.581511 
L 111.350429 97.666279 
L 112.627479 97.761614 
L 113.904529 97.868809 
L 115.181579 97.989308 
L 116.458629 98.124722 
L 117.73568 98.276848 
L 119.01273 98.447686 
L 120.28978 98.639458 
L 121.56683 98.854629 
L 122.843881 99.095929 
L 124.120931 99.366373 
L 125.397981 99.669282 
L 126.675031 100.008306 
L 127.952081 100.387439 
L 129.229132 100.811039 
L 130.506182 101.283836 
L 131.783232 101.810941 
L 133.060282 102.397845 
L 134.337333 103.050405 
L 135.614383 103.774822 
L 136.891433 104.577602 
L 138.168483 105.465499 
L 139.445533 106.445433 
L 140.722584 107.524386 
L 141.999634 108.709273 
L 143.276684 110.006776 
L 144.553734 111.423153 
L 145.830785 112.964018 
L 147.107835 114.634087 
L 148.384885 116.436913 
L 149.661935 118.374599 
L 150.938985 120.447519 
L 152.216036 122.65405 
L 153.493086 124.990334 
L 154.770136 127.450102 
L 156.047186 130.024566 
L 157.324237 132.7024 
L 158.601287 135.469831 
L 159.878337 138.31084 
L 161.155387 141.20748 
L 162.432437 144.140295 
L 163.709488 147.088821 
L 164.986538 150.032151 
L 166.263588 152.949529 
L 167.540638 155.820921 
L 168.817689 158.627562 
L 170.094739 161.352414 
L 171.371789 163.980541 
L 172.648839 166.499366 
L 173.925889 168.898818 
L 175.20294 171.171364 
L 176.47999 173.311952 
L 177.75704 175.317859 
L 179.03409 177.188484 
L 180.311141 178.925093 
L 181.588191 180.530544 
L 182.865241 182.009002 
L 184.142291 183.365662 
L 185.419341 184.606486 
L 186.696392 185.737968 
L 187.973442 186.766929 
L 189.250492 187.700334 
L 190.527542 188.54515 
L 191.804593 189.308226 
L 193.081643 189.996201 
L 194.358693 190.615436 
L 195.635743 191.171966 
L 196.912793 191.671468 
L 198.189844 192.119245 
L 199.466894 192.520218 
L 200.743944 192.878933 
L 202.020994 193.199564 
" clip-path="url(#p6d5f159f20)" style="fill: none; stroke: #e8000b; stroke-width: 1.5; stroke-linecap: square"/>
   </g>
   <g id="line2d_20">
    <path d="M 59.984631 82.789011 
L 75.593022 83.514717 
L 76.870073 83.606017 
L 78.147123 83.70871 
L 79.424173 83.824192 
L 80.701223 83.954024 
L 81.978273 84.099949 
L 83.255324 84.26391 
L 84.532374 84.448074 
L 85.809424 84.654848 
L 87.086474 84.886909 
L 88.363525 85.147219 
L 89.640575 85.439057 
L 90.917625 85.76604 
L 92.194675 86.132146 
L 93.471725 86.541739 
L 94.748776 86.999588 
L 96.025826 87.510883 
L 97.302876 88.081245 
L 98.579926 88.716731 
L 99.856977 89.423826 
L 101.134027 90.209422 
L 102.411077 91.080788 
L 103.688127 92.045507 
L 104.965177 93.111404 
L 106.242228 94.28644 
L 107.519278 95.578577 
L 108.796328 96.995609 
L 110.073378 98.544962 
L 111.350429 100.233454 
L 112.627479 102.06703 
L 113.904529 104.050457 
L 115.181579 106.187014 
L 116.458629 108.478163 
L 117.73568 110.923232 
L 119.01273 113.51913 
L 120.28978 116.260099 
L 121.56683 119.137557 
L 122.843881 122.140012 
L 124.120931 125.253115 
L 125.397981 128.459813 
L 126.675031 131.740654 
L 127.952081 135.074204 
L 129.229132 138.437582 
L 130.506182 141.807068 
L 131.783232 145.158771 
L 133.060282 148.469301 
L 134.337333 151.716412 
L 135.614383 154.879581 
L 136.891433 157.940485 
L 138.168483 160.883367 
L 139.445533 163.695262 
L 140.722584 166.366107 
L 141.999634 168.888717 
L 143.276684 171.258665 
L 144.553734 173.474079 
L 145.830785 175.535369 
L 147.107835 177.444928 
L 148.384885 179.206803 
L 149.661935 180.826377 
L 150.938985 182.310058 
L 152.216036 183.664992 
L 153.493086 184.898815 
L 154.770136 186.019424 
L 156.047186 187.034801 
L 157.324237 187.952855 
L 158.601287 188.781303 
L 159.878337 189.527584 
L 161.155387 190.198786 
L 162.432437 190.801607 
L 163.709488 191.342324 
L 164.986538 191.826779 
L 166.263588 192.260383 
L 167.540638 192.648117 
L 168.817689 192.99455 
L 170.094739 193.303853 
L 171.371789 193.579827 
L 172.648839 193.825918 
L 173.925889 194.045248 
L 175.20294 194.240637 
L 176.47999 194.414625 
L 177.75704 194.5695 
L 179.03409 194.707317 
L 180.311141 194.829917 
L 181.588191 194.938954 
L 182.865241 195.035905 
L 184.142291 195.122093 
L 185.419341 195.198697 
L 186.696392 195.266773 
L 187.973442 195.327262 
L 189.250492 195.381002 
L 190.527542 195.42874 
L 191.804593 195.471143 
L 193.081643 195.508804 
L 194.358693 195.54225 
L 195.635743 195.571951 
L 196.912793 195.598325 
L 198.189844 195.621742 
L 199.466894 195.642534 
L 200.743944 195.660994 
L 202.020994 195.677382 
" clip-path="url(#p6d5f159f20)" style="fill: none; stroke: #8b2be2; stroke-width: 1.5; stroke-linecap: square"/>
   </g>
   <g id="line2d_21">
    <path d="M 59.984631 99.693117 
L 75.593022 99.703366 
L 76.870073 99.704664 
L 78.147123 99.706128 
L 79.424173 99.707776 
L 80.701223 99.709634 
L 81.978273 99.711727 
L 83.255324 99.714084 
L 84.532374 99.716741 
L 85.809424 99.719734 
L 87.086474 99.723106 
L 88.363525 99.726905 
L 89.640575 99.731185 
L 90.917625 99.736007 
L 92.194675 99.74144 
L 93.471725 99.74756 
L 94.748776 99.754455 
L 96.025826 99.762223 
L 97.302876 99.770973 
L 98.579926 99.780831 
L 99.856977 99.791935 
L 101.134027 99.804443 
L 102.411077 99.818532 
L 103.688127 99.834403 
L 104.965177 99.852277 
L 106.242228 99.87241 
L 107.519278 99.895083 
L 108.796328 99.920617 
L 110.073378 99.94937 
L 111.350429 99.981746 
L 112.627479 100.018199 
L 113.904529 100.059239 
L 115.181579 100.105437 
L 116.458629 100.157436 
L 117.73568 100.215957 
L 119.01273 100.281808 
L 120.28978 100.355896 
L 121.56683 100.439235 
L 122.843881 100.532961 
L 124.120931 100.638345 
L 125.397981 100.756804 
L 126.675031 100.889922 
L 127.952081 101.039463 
L 129.229132 101.207392 
L 130.506182 101.395889 
L 131.783232 101.607377 
L 133.060282 101.844532 
L 134.337333 102.110315 
L 135.614383 102.407984 
L 136.891433 102.741117 
L 138.168483 103.11363 
L 139.445533 103.529794 
L 140.722584 103.994241 
L 141.999634 104.511977 
L 143.276684 105.08837 
L 144.553734 105.729149 
L 145.830785 106.440371 
L 147.107835 107.228386 
L 148.384885 108.099776 
L 149.661935 109.061277 
L 150.938985 110.119676 
L 152.216036 111.281676 
L 153.493086 112.55374 
L 154.770136 113.941899 
L 156.047186 115.451532 
L 157.324237 117.087125 
L 158.601287 118.852003 
L 159.878337 120.748059 
L 161.155387 122.775474 
L 162.432437 124.932466 
L 163.709488 127.215064 
L 164.986538 129.616937 
L 166.263588 132.129301 
L 167.540638 134.740908 
L 168.817689 137.43815 
L 170.094739 140.205258 
L 171.371789 143.024628 
L 172.648839 145.877231 
L 173.925889 148.743112 
L 175.20294 151.601944 
L 176.47999 154.433598 
L 177.75704 157.218704 
L 179.03409 159.939172 
L 180.311141 162.578631 
L 181.588191 165.122782 
L 182.865241 167.559637 
L 184.142291 169.879651 
L 185.419341 172.075746 
L 186.696392 174.143241 
L 187.973442 176.079704 
L 189.250492 177.88474 
L 190.527542 179.559744 
L 191.804593 181.107631 
L 193.081643 182.532559 
L 194.358693 183.83966 
L 195.635743 185.03479 
L 196.912793 186.124299 
L 198.189844 187.114836 
L 199.466894 188.013179 
L 200.743944 188.826089 
L 202.020994 189.560206 
" clip-path="url(#p6d5f159f20)" style="fill: none; stroke: #9f4800; stroke-width: 1.5; stroke-linecap: square"/>
   </g>
   <g id="line2d_22">
    <path d="M 59.984631 93.877797 
L 75.593022 93.989256 
L 76.870073 94.003363 
L 78.147123 94.019254 
L 79.424173 94.037152 
L 80.701223 94.057311 
L 81.978273 94.080014 
L 83.255324 94.105583 
L 84.532374 94.134377 
L 85.809424 94.1668 
L 87.086474 94.203307 
L 88.363525 94.244409 
L 89.640575 94.29068 
L 90.917625 94.342764 
L 92.194675 94.401384 
L 93.471725 94.467352 
L 94.748776 94.541578 
L 96.025826 94.625079 
L 97.302876 94.718997 
L 98.579926 94.824608 
L 99.856977 94.943339 
L 101.134027 95.076783 
L 102.411077 95.226714 
L 103.688127 95.395112 
L 104.965177 95.584175 
L 106.242228 95.796347 
L 107.519278 96.034332 
L 108.796328 96.301123 
L 110.073378 96.600019 
L 111.350429 96.934649 
L 112.627479 97.30899 
L 113.904529 97.727388 
L 115.181579 98.19457 
L 116.458629 98.715651 
L 117.73568 99.296141 
L 119.01273 99.941933 
L 120.28978 100.659287 
L 121.56683 101.454792 
L 122.843881 102.335319 
L 124.120931 103.307946 
L 125.397981 104.379859 
L 126.675031 105.558229 
L 127.952081 106.850057 
L 129.229132 108.261986 
L 130.506182 109.800086 
L 131.783232 111.469605 
L 133.060282 113.274701 
L 134.337333 115.21815 
L 135.614383 117.301056 
L 136.891433 119.52257 
L 138.168483 121.879626 
L 139.445533 124.366736 
L 140.722584 126.97585 
L 141.999634 129.696294 
L 143.276684 132.514826 
L 144.553734 135.415794 
L 145.830785 138.38142 
L 147.107835 141.392193 
L 148.384885 144.427353 
L 149.661935 147.465461 
L 150.938985 150.48499 
L 152.216036 153.464938 
L 153.493086 156.385402 
L 154.770136 159.228086 
L 156.047186 161.976726 
L 157.324237 164.6174 
L 158.601287 167.138724 
L 159.878337 169.531933 
L 161.155387 171.79085 
L 162.432437 173.911767 
L 163.709488 175.893253 
L 164.986538 177.735906 
L 166.263588 179.442075 
L 167.540638 181.01557 
L 168.817689 182.461369 
L 170.094739 183.785343 
L 171.371789 184.994002 
L 172.648839 186.094268 
L 173.925889 187.093283 
L 175.20294 187.998243 
L 176.47999 188.816266 
L 177.75704 189.554286 
L 179.03409 190.218977 
L 180.311141 190.816693 
L 181.588191 191.353429 
L 182.865241 191.8348 
L 184.142291 192.266029 
L 185.419341 192.65195 
L 186.696392 192.99701 
L 187.973442 193.305287 
L 189.250492 193.580501 
L 190.527542 193.82604 
L 191.804593 194.044978 
L 193.081643 194.240097 
L 194.358693 194.413908 
L 195.635743 194.568675 
L 196.912793 194.706435 
L 198.189844 194.829016 
L 199.466894 194.938061 
L 200.743944 195.035038 
L 202.020994 195.121265 
" clip-path="url(#p6d5f159f20)" style="fill: none; stroke: #f14cc1; stroke-width: 1.5; stroke-linecap: square"/>
   </g>
   <g id="line2d_23">
    <path d="M 59.984631 107.322725 
L 75.593022 107.331565 
L 76.870073 107.332685 
L 78.147123 107.333947 
L 79.424173 107.335369 
L 80.701223 107.336971 
L 81.978273 107.338776 
L 83.255324 107.340809 
L 84.532374 107.3431 
L 85.809424 107.345682 
L 87.086474 107.34859 
L 88.363525 107.351867 
L 89.640575 107.355559 
L 90.917625 107.359718 
L 92.194675 107.364403 
L 93.471725 107.369682 
L 94.748776 107.375629 
L 96.025826 107.382329 
L 97.302876 107.389877 
L 98.579926 107.398379 
L 99.856977 107.407957 
L 101.134027 107.418747 
L 102.411077 107.4309 
L 103.688127 107.44459 
L 104.965177 107.46001 
L 106.242228 107.477377 
L 107.519278 107.496936 
L 108.796328 107.518964 
L 110.073378 107.543771 
L 111.350429 107.571704 
L 112.627479 107.603156 
L 113.904529 107.638567 
L 115.181579 107.678432 
L 116.458629 107.723305 
L 117.73568 107.77381 
L 119.01273 107.830645 
L 120.28978 107.894596 
L 121.56683 107.966539 
L 122.843881 108.047459 
L 124.120931 108.138455 
L 125.397981 108.240756 
L 126.675031 108.355736 
L 127.952081 108.484925 
L 129.229132 108.63003 
L 130.506182 108.792946 
L 131.783232 108.97578 
L 133.060282 109.180866 
L 134.337333 109.410783 
L 135.614383 109.668379 
L 136.891433 109.956785 
L 138.168483 110.279434 
L 139.445533 110.640077 
L 140.722584 111.042796 
L 141.999634 111.492011 
L 143.276684 111.992483 
L 144.553734 112.549306 
L 145.830785 113.167894 
L 147.107835 113.853952 
L 148.384885 114.613429 
L 149.661935 115.45246 
L 150.938985 116.377282 
L 152.216036 117.394122 
L 153.493086 118.509074 
L 154.770136 119.727928 
L 156.047186 121.055993 
L 157.324237 122.497877 
L 158.601287 124.057256 
L 159.878337 125.736625 
L 161.155387 127.537045 
L 162.432437 129.45789 
L 163.709488 131.496631 
L 164.986538 133.648642 
L 166.263588 135.907079 
L 167.540638 138.262821 
L 168.817689 140.704513 
L 170.094739 143.218696 
L 171.371789 145.790044 
L 172.648839 148.401704 
L 173.925889 151.035712 
L 175.20294 153.673477 
L 176.47999 156.296301 
L 177.75704 158.885908 
L 179.03409 161.424945 
L 180.311141 163.897428 
L 181.588191 166.289117 
L 182.865241 168.58779 
L 184.142291 170.78342 
L 185.419341 172.868253 
L 186.696392 174.836784 
L 187.973442 176.685664 
L 189.250492 178.413528 
L 190.527542 180.020791 
L 191.804593 181.509402 
L 193.081643 182.882594 
L 194.358693 184.144631 
L 195.635743 185.300568 
L 196.912793 186.356026 
L 198.189844 187.316998 
L 199.466894 188.189674 
L 200.743944 188.980303 
L 202.020994 189.695071 
" clip-path="url(#p6d5f159f20)" style="fill: none; stroke: #ffc400; stroke-width: 1.5; stroke-linecap: square"/>
   </g>
   <g id="line2d_24">
    <path d="M 59.984631 76.265626 
L 75.593022 77.535001 
L 76.870073 77.693941 
L 78.147123 77.872513 
L 79.424173 78.073067 
L 80.701223 78.298222 
L 81.978273 78.55088 
L 83.255324 78.834257 
L 84.532374 79.15191 
L 85.809424 79.507756 
L 87.086474 79.906104 
L 88.363525 80.351677 
L 89.640575 80.849629 
L 90.917625 81.405562 
L 92.194675 82.025539 
L 93.471725 82.71608 
L 94.748776 83.484157 
L 96.025826 84.337164 
L 97.302876 85.282877 
L 98.579926 86.329393 
L 99.856977 87.485035 
L 101.134027 88.758239 
L 102.411077 90.157399 
L 103.688127 91.690683 
L 104.965177 93.36581 
L 106.242228 95.189786 
L 107.519278 97.168617 
L 108.796328 99.306983 
L 110.073378 101.6079 
L 111.350429 104.072379 
L 112.627479 106.699092 
L 113.904529 109.484082 
L 115.181579 112.420522 
L 116.458629 115.498563 
L 117.73568 118.705282 
L 119.01273 122.024759 
L 120.28978 125.438286 
L 121.56683 128.924715 
L 122.843881 132.460932 
L 124.120931 136.022447 
L 125.397981 139.584061 
L 126.675031 143.120569 
L 127.952081 146.607474 
L 129.229132 150.021649 
L 130.506182 153.34193 
L 131.783232 156.549587 
L 133.060282 159.628677 
L 134.337333 162.566255 
L 135.614383 165.352448 
L 136.891433 167.980405 
L 138.168483 170.446148 
L 139.445533 172.74833 
L 140.722584 174.887945 
L 141.999634 176.867995 
L 143.276684 178.693149 
L 144.553734 180.369402 
L 145.830785 181.903756 
L 147.107835 183.303923 
L 148.384885 184.57807 
L 149.661935 185.734589 
L 150.938985 186.781918 
L 152.216036 187.72838 
L 153.493086 188.582074 
L 154.770136 189.35078 
L 156.047186 190.041894 
L 157.324237 190.662392 
L 158.601287 191.218797 
L 159.878337 191.717175 
L 161.155387 192.163133 
L 162.432437 192.561829 
L 163.709488 192.917987 
L 164.986538 193.235919 
L 166.263588 193.519548 
L 167.540638 193.772431 
L 168.817689 193.997787 
L 170.094739 194.198521 
L 171.371789 194.377253 
L 172.648839 194.536337 
L 173.925889 194.677888 
L 175.20294 194.803802 
L 176.47999 194.915779 
L 177.75704 195.015339 
L 179.03409 195.103841 
L 180.311141 195.1825 
L 181.588191 195.252399 
L 182.865241 195.314505 
L 184.142291 195.369681 
L 185.419341 195.418693 
L 186.696392 195.462227 
L 187.973442 195.500891 
L 189.250492 195.535227 
L 190.527542 195.565718 
L 191.804593 195.592793 
L 193.081643 195.616833 
L 194.358693 195.638177 
L 195.635743 195.657127 
L 196.912793 195.67395 
L 198.189844 195.688886 
L 199.466894 195.702145 
L 200.743944 195.713914 
L 202.020994 195.724363 
" clip-path="url(#p6d5f159f20)" style="fill: none; stroke: #a3a3a3; stroke-width: 1.5; stroke-linecap: square"/>
   </g>
   <g id="line2d_25">
    <path d="M 59.984631 95.515237 
L 75.593022 95.543348 
L 76.870073 95.54691 
L 78.147123 95.550922 
L 79.424173 95.555442 
L 80.701223 95.560535 
L 81.978273 95.566273 
L 83.255324 95.572736 
L 84.532374 95.580018 
L 85.809424 95.588222 
L 87.086474 95.597463 
L 88.363525 95.607874 
L 89.640575 95.619601 
L 90.917625 95.632811 
L 92.194675 95.647691 
L 93.471725 95.664451 
L 94.748776 95.683329 
L 96.025826 95.70459 
L 97.302876 95.728535 
L 98.579926 95.755501 
L 99.856977 95.785866 
L 101.134027 95.820057 
L 102.411077 95.858554 
L 103.688127 95.901893 
L 104.965177 95.95068 
L 106.242228 96.005591 
L 107.519278 96.06739 
L 108.796328 96.136928 
L 110.073378 96.215162 
L 111.350429 96.303164 
L 112.627479 96.402131 
L 113.904529 96.513405 
L 115.181579 96.638482 
L 116.458629 96.779032 
L 117.73568 96.936917 
L 119.01273 97.114208 
L 120.28978 97.313206 
L 121.56683 97.536463 
L 122.843881 97.786803 
L 124.120931 98.067343 
L 125.397981 98.381517 
L 126.675031 98.733094 
L 127.952081 99.126197 
L 129.229132 99.565319 
L 130.506182 100.055334 
L 131.783232 100.601502 
L 133.060282 101.209466 
L 134.337333 101.885238 
L 135.614383 102.635173 
L 136.891433 103.465922 
L 138.168483 104.384376 
L 139.445533 105.397575 
L 140.722584 106.512596 
L 141.999634 107.736418 
L 143.276684 109.07575 
L 144.553734 110.536824 
L 145.830785 112.125174 
L 147.107835 113.845369 
L 148.384885 115.700742 
L 149.661935 117.693098 
L 150.938985 119.822434 
L 152.216036 122.086668 
L 153.493086 124.481413 
L 154.770136 126.999809 
L 156.047186 129.632427 
L 157.324237 132.367277 
L 158.601287 135.189917 
L 159.878337 138.083684 
L 161.155387 141.030036 
L 162.432437 144.008994 
L 163.709488 146.999671 
L 164.986538 149.98085 
L 166.263588 152.931579 
L 167.540638 155.831759 
L 168.817689 158.662676 
L 170.094739 161.407451 
L 171.371789 164.051396 
L 172.648839 166.582258 
L 173.925889 168.990336 
L 175.20294 171.268504 
L 176.47999 173.412122 
L 177.75704 175.418878 
L 179.03409 177.28856 
L 180.311141 179.022798 
L 181.588191 180.624779 
L 182.865241 182.098956 
L 184.142291 183.450772 
L 185.419341 184.686399 
L 186.696392 185.812506 
L 187.973442 186.83605 
L 189.250492 187.764108 
L 190.527542 188.603728 
L 191.804593 189.361821 
L 193.081643 190.045067 
L 194.358693 190.659853 
L 195.635743 191.212231 
L 196.912793 191.707881 
L 198.189844 192.152104 
L 199.466894 192.549816 
L 200.743944 192.905548 
L 202.020994 193.223461 
" clip-path="url(#p6d5f159f20)" style="fill: none; stroke-dasharray: 5.55,2.4; stroke-dashoffset: 0; stroke: #023eff; stroke-width: 1.5"/>
   </g>
   <g id="line2d_26">
    <path d="M 59.984631 101.930753 
L 75.593022 102.569501 
L 76.870073 102.649827 
L 78.147123 102.740166 
L 79.424173 102.841744 
L 80.701223 102.95593 
L 81.978273 103.084249 
L 83.255324 103.228406 
L 84.532374 103.390295 
L 85.809424 103.572023 
L 87.086474 103.775926 
L 88.363525 104.004591 
L 89.640575 104.260876 
L 90.917625 104.54793 
L 92.194675 104.869212 
L 93.471725 105.228509 
L 94.748776 105.629951 
L 96.025826 106.078025 
L 97.302876 106.577575 
L 98.579926 107.133809 
L 99.856977 107.75228 
L 101.134027 108.438872 
L 102.411077 109.199756 
L 103.688127 110.04134 
L 104.965177 110.970189 
L 106.242228 111.992933 
L 107.519278 113.116136 
L 108.796328 114.346146 
L 110.073378 115.68891 
L 111.350429 117.149767 
L 112.627479 118.733208 
L 113.904529 120.442623 
L 115.181579 122.280031 
L 116.458629 124.245813 
L 117.73568 126.338454 
L 119.01273 128.554328 
L 120.28978 130.887517 
L 121.56683 133.329714 
L 122.843881 135.870203 
L 124.120931 138.495943 
L 125.397981 141.191758 
L 126.675031 143.940636 
L 127.952081 146.724126 
L 129.229132 149.522815 
L 130.506182 152.316861 
L 131.783232 155.086552 
L 133.060282 157.812862 
L 134.337333 160.477956 
L 135.614383 163.065636 
L 136.891433 165.561694 
L 138.168483 167.954157 
L 139.445533 170.233431 
L 140.722584 172.392332 
L 141.999634 174.426031 
L 143.276684 176.331912 
L 144.553734 178.109376 
L 145.830785 179.759603 
L 147.107835 181.285285 
L 148.384885 182.690361 
L 149.661935 183.979746 
L 150.938985 185.159094 
L 152.216036 186.234561 
L 153.493086 187.21262 
L 154.770136 188.09988 
L 156.047186 188.902956 
L 157.324237 189.628351 
L 158.601287 190.28237 
L 159.878337 190.871055 
L 161.155387 191.400139 
L 162.432437 191.875017 
L 163.709488 192.300726 
L 164.986538 192.681944 
L 166.263588 193.02299 
L 167.540638 193.327832 
L 168.817689 193.600101 
L 170.094739 193.84311 
L 171.371789 194.059869 
L 172.648839 194.253107 
L 173.925889 194.425291 
L 175.20294 194.578648 
L 176.47999 194.715183 
L 177.75704 194.836699 
L 179.03409 194.944815 
L 180.311141 195.040982 
L 181.588191 195.126499 
L 182.865241 195.20253 
L 184.142291 195.270113 
L 185.419341 195.330177 
L 186.696392 195.383551 
L 187.973442 195.430972 
L 189.250492 195.4731 
L 190.527542 195.510522 
L 191.804593 195.54376 
L 193.081643 195.573279 
L 194.358693 195.599494 
L 195.635743 195.622773 
L 196.912793 195.643443 
L 198.189844 195.661796 
L 199.466894 195.678091 
L 200.743944 195.692558 
L 202.020994 195.705401 
" clip-path="url(#p6d5f159f20)" style="fill: none; stroke-dasharray: 5.55,2.4; stroke-dashoffset: 0; stroke: #ff7c00; stroke-width: 1.5"/>
   </g>
   <g id="line2d_27">
    <path d="M 59.984631 102.278028 
L 75.593022 102.301249 
L 76.870073 102.30419 
L 78.147123 102.307505 
L 79.424173 102.311239 
L 80.701223 102.315446 
L 81.978273 102.320186 
L 83.255324 102.325525 
L 84.532374 102.331541 
L 85.809424 102.338318 
L 87.086474 102.345953 
L 88.363525 102.354554 
L 89.640575 102.364242 
L 90.917625 102.375157 
L 92.194675 102.387451 
L 93.471725 102.401299 
L 94.748776 102.416898 
L 96.025826 102.434467 
L 97.302876 102.454254 
L 98.579926 102.476539 
L 99.856977 102.501635 
L 101.134027 102.529895 
L 102.411077 102.561717 
L 103.688127 102.597545 
L 104.965177 102.63788 
L 106.242228 102.683284 
L 107.519278 102.73439 
L 108.796328 102.791905 
L 110.073378 102.856624 
L 111.350429 102.929436 
L 112.627479 103.011339 
L 113.904529 103.103448 
L 115.181579 103.207011 
L 116.458629 103.323421 
L 117.73568 103.454233 
L 119.01273 103.60118 
L 120.28978 103.766189 
L 121.56683 103.951403 
L 122.843881 104.159197 
L 124.120931 104.392201 
L 125.397981 104.653317 
L 126.675031 104.945741 
L 127.952081 105.272983 
L 129.229132 105.638882 
L 130.506182 106.047623 
L 131.783232 106.503744 
L 133.060282 107.012146 
L 134.337333 107.578083 
L 135.614383 108.207157 
L 136.891433 108.905289 
L 138.168483 109.678679 
L 139.445533 110.533748 
L 140.722584 111.477059 
L 141.999634 112.515215 
L 143.276684 113.654726 
L 144.553734 114.901853 
L 145.830785 116.262419 
L 147.107835 117.741597 
L 148.384885 119.343666 
L 149.661935 121.071756 
L 150.938985 122.927577 
L 152.216036 124.911156 
L 153.493086 127.020587 
L 154.770136 129.251818 
L 156.047186 131.598492 
L 157.324237 134.051856 
L 158.601287 136.600769 
L 159.878337 139.2318 
L 161.155387 141.929444 
L 162.432437 144.676435 
L 163.709488 147.45416 
L 164.986538 150.243152 
L 166.263588 153.023623 
L 167.540638 155.776026 
L 168.817689 158.4816 
L 170.094739 161.122866 
L 171.371789 163.684052 
L 172.648839 166.151423 
L 173.925889 168.51351 
L 175.20294 170.761229 
L 176.47999 172.88789 
L 177.75704 174.88913 
L 179.03409 176.762756 
L 180.311141 178.50854 
L 181.588191 180.127974 
L 182.865241 181.624007 
L 184.142291 183.000775 
L 185.419341 184.26334 
L 186.696392 185.417448 
L 187.973442 186.469312 
L 189.250492 187.425417 
L 190.527542 188.292361 
L 191.804593 189.076719 
L 193.081643 189.784939 
L 194.358693 190.423255 
L 195.635743 190.997629 
L 196.912793 191.513708 
L 198.189844 191.976797 
L 199.466894 192.391846 
L 200.743944 192.763444 
L 202.020994 193.095824 
" clip-path="url(#p6d5f159f20)" style="fill: none; stroke-dasharray: 5.55,2.4; stroke-dashoffset: 0; stroke: #1ac938; stroke-width: 1.5"/>
   </g>
   <g id="line2d_28">
    <path d="M 59.984631 79.633015 
L 75.593022 79.889683 
L 76.870073 79.922128 
L 78.147123 79.958663 
L 79.424173 79.999801 
L 80.701223 80.046117 
L 81.978273 80.098258 
L 83.255324 80.15695 
L 84.532374 80.223009 
L 85.809424 80.297349 
L 87.086474 80.380995 
L 88.363525 80.475096 
L 89.640575 80.580938 
L 90.917625 80.699961 
L 92.194675 80.833773 
L 93.471725 80.98417 
L 94.748776 81.153155 
L 96.025826 81.342961 
L 97.302876 81.556068 
L 98.579926 81.795232 
L 99.856977 82.063508 
L 101.134027 82.364272 
L 102.411077 82.701251 
L 103.688127 83.078543 
L 104.965177 83.500644 
L 106.242228 83.972464 
L 107.519278 84.499348 
L 108.796328 85.087085 
L 110.073378 85.741911 
L 111.350429 86.470502 
L 112.627479 87.279952 
L 113.904529 88.177739 
L 115.181579 89.171667 
L 116.458629 90.269783 
L 117.73568 91.480271 
L 119.01273 92.811315 
L 120.28978 94.27092 
L 121.56683 95.866708 
L 122.843881 97.605671 
L 124.120931 99.493893 
L 125.397981 101.536247 
L 126.675031 103.736063 
L 127.952081 106.094797 
L 129.229132 108.611706 
L 130.506182 111.283552 
L 131.783232 114.104355 
L 133.060282 117.065221 
L 134.337333 120.154274 
L 135.614383 123.356696 
L 136.891433 126.654899 
L 138.168483 130.028837 
L 139.445533 133.456437 
L 140.722584 136.914151 
L 141.999634 140.377586 
L 143.276684 143.822187 
L 144.553734 147.223932 
L 145.830785 150.559987 
L 147.107835 153.809301 
L 148.384885 156.953097 
L 149.661935 159.975241 
L 150.938985 162.862472 
L 152.216036 165.604514 
L 153.493086 168.194047 
L 154.770136 170.626584 
L 156.047186 172.900256 
L 157.324237 175.015535 
L 158.601287 176.974922 
L 159.878337 178.782613 
L 161.155387 180.444168 
L 162.432437 181.966194 
L 163.709488 183.356053 
L 164.986538 184.621599 
L 166.263588 185.770957 
L 167.540638 186.812329 
L 168.817689 187.753842 
L 170.094739 188.603425 
L 171.371789 189.368716 
L 172.648839 190.056992 
L 173.925889 190.675129 
L 175.20294 191.229568 
L 176.47999 191.726306 
L 177.75704 192.170893 
L 179.03409 192.568441 
L 180.311141 192.923636 
L 181.588191 193.240758 
L 182.865241 193.523703 
L 184.142291 193.776008 
L 185.419341 194.000874 
L 186.696392 194.201191 
L 187.973442 194.379568 
L 189.250492 194.538347 
L 190.527542 194.679637 
L 191.804593 194.805327 
L 193.081643 194.917111 
L 194.358693 195.016504 
L 195.635743 195.104861 
L 196.912793 195.183395 
L 198.189844 195.253185 
L 199.466894 195.315196 
L 200.743944 195.370288 
L 202.020994 195.419228 
" clip-path="url(#p6d5f159f20)" style="fill: none; stroke-dasharray: 5.55,2.4; stroke-dashoffset: 0; stroke: #e8000b; stroke-width: 1.5"/>
   </g>
   <g id="line2d_29">
    <path d="M 59.984631 100.634803 
L 75.593022 100.801338 
L 76.870073 100.8224 
L 78.147123 100.846121 
L 79.424173 100.872833 
L 80.701223 100.902913 
L 81.978273 100.936781 
L 83.255324 100.974913 
L 84.532374 101.01784 
L 85.809424 101.066161 
L 87.086474 101.120546 
L 88.363525 101.181748 
L 89.640575 101.250612 
L 90.917625 101.328082 
L 92.194675 101.415218 
L 93.471725 101.513203 
L 94.748776 101.623363 
L 96.025826 101.747175 
L 97.302876 101.886287 
L 98.579926 102.042536 
L 99.856977 102.217965 
L 101.134027 102.414839 
L 102.411077 102.635673 
L 103.688127 102.883244 
L 104.965177 103.160617 
L 106.242228 103.471164 
L 107.519278 103.818579 
L 108.796328 104.206902 
L 110.073378 104.640525 
L 111.350429 105.124207 
L 112.627479 105.663072 
L 113.904529 106.262603 
L 115.181579 106.928625 
L 116.458629 107.667278 
L 117.73568 108.484964 
L 119.01273 109.388282 
L 120.28978 110.38394 
L 121.56683 111.478638 
L 122.843881 112.678925 
L 124.120931 113.991027 
L 125.397981 115.420646 
L 126.675031 116.972731 
L 127.952081 118.651224 
L 129.229132 120.458797 
L 130.506182 122.396571 
L 131.783232 124.463857 
L 133.060282 126.657912 
L 134.337333 128.973739 
L 135.614383 131.403951 
L 136.891433 133.938715 
L 138.168483 136.565795 
L 139.445533 139.270692 
L 140.722584 142.036905 
L 141.999634 144.846294 
L 143.276684 147.679525 
L 144.553734 150.516601 
L 145.830785 153.337411 
L 147.107835 156.122306 
L 148.384885 158.852631 
L 149.661935 161.511214 
L 150.938985 164.082756 
L 152.216036 166.554134 
L 153.493086 168.914588 
L 154.770136 171.1558 
L 156.047186 173.271875 
L 157.324237 175.259229 
L 158.601287 177.116418 
L 159.878337 178.843901 
L 161.155387 180.443793 
L 162.432437 181.919582 
L 163.709488 183.275865 
L 164.986538 184.518084 
L 166.263588 185.652292 
L 167.540638 186.684935 
L 168.817689 187.622676 
L 170.094739 188.472233 
L 171.371789 189.240259 
L 172.648839 189.933241 
L 173.925889 190.557425 
L 175.20294 191.11876 
L 176.47999 191.622863 
L 177.75704 192.074997 
L 179.03409 192.480058 
L 180.311141 192.842579 
L 181.588191 193.166732 
L 182.865241 193.456341 
L 184.142291 193.7149 
L 185.419341 193.945588 
L 186.696392 194.15129 
L 187.973442 194.334617 
L 189.250492 194.497928 
L 190.527542 194.643348 
L 191.804593 194.772791 
L 193.081643 194.887974 
L 194.358693 194.990438 
L 195.635743 195.081565 
L 196.912793 195.16259 
L 198.189844 195.234618 
L 199.466894 195.298637 
L 200.743944 195.355529 
L 202.020994 195.406079 
" clip-path="url(#p6d5f159f20)" style="fill: none; stroke-dasharray: 5.55,2.4; stroke-dashoffset: 0; stroke: #8b2be2; stroke-width: 1.5"/>
   </g>
   <g id="line2d_30">
    <path d="M 59.984631 111.827333 
L 75.593022 111.932284 
L 76.870073 111.945565 
L 78.147123 111.960524 
L 79.424173 111.977373 
L 80.701223 111.996349 
L 81.978273 112.017719 
L 83.255324 112.041784 
L 84.532374 112.068882 
L 85.809424 112.099394 
L 87.086474 112.133745 
L 88.363525 112.172416 
L 89.640575 112.215944 
L 90.917625 112.264934 
L 92.194675 112.320064 
L 93.471725 112.382094 
L 94.748776 112.451873 
L 96.025826 112.530356 
L 97.302876 112.618608 
L 98.579926 112.717819 
L 99.856977 112.82932 
L 101.134027 112.954594 
L 102.411077 113.09529 
L 103.688127 113.253244 
L 104.965177 113.430494 
L 106.242228 113.629296 
L 107.519278 113.852145 
L 108.796328 114.101792 
L 110.073378 114.381258 
L 111.350429 114.693859 
L 112.627479 115.043211 
L 113.904529 115.433246 
L 115.181579 115.86822 
L 116.458629 116.35271 
L 117.73568 116.891608 
L 119.01273 117.490107 
L 120.28978 118.153666 
L 121.56683 118.88797 
L 122.843881 119.698867 
L 124.120931 120.59228 
L 125.397981 121.574109 
L 126.675031 122.650095 
L 127.952081 123.825665 
L 129.229132 125.105748 
L 130.506182 126.494574 
L 131.783232 127.995441 
L 133.060282 129.610486 
L 134.337333 131.340436 
L 135.614383 133.18438 
L 136.891433 135.139561 
L 138.168483 137.201208 
L 139.445533 139.362429 
L 140.722584 141.61417 
L 141.999634 143.945272 
L 143.276684 146.342615 
L 144.553734 148.791361 
L 145.830785 151.275286 
L 147.107835 153.777195 
L 148.384885 156.279388 
L 149.661935 158.764155 
L 150.938985 161.214278 
L 152.216036 163.613496 
L 153.493086 165.946921 
L 154.770136 168.201374 
L 156.047186 170.36563 
L 157.324237 172.430568 
L 158.601287 174.389226 
L 159.878337 176.236767 
L 161.155387 177.970372 
L 162.432437 179.589075 
L 163.709488 181.093554 
L 164.986538 182.485904 
L 166.263588 183.769391 
L 167.540638 184.948218 
L 168.817689 186.027295 
L 170.094739 187.012037 
L 171.371789 187.908177 
L 172.648839 188.721611 
L 173.925889 189.458265 
L 175.20294 190.12399 
L 176.47999 190.724476 
L 177.75704 191.265191 
L 179.03409 191.751337 
L 180.311141 192.187817 
L 181.588191 192.579217 
L 182.865241 192.929803 
L 184.142291 193.243517 
L 185.419341 193.523986 
L 186.696392 193.774535 
L 187.973442 193.998194 
L 189.250492 194.197723 
L 190.527542 194.375623 
L 191.804593 194.53416 
L 193.081643 194.675376 
L 194.358693 194.801115 
L 195.635743 194.913031 
L 196.912793 195.012613 
L 198.189844 195.101194 
L 199.466894 195.179971 
L 200.743944 195.250013 
L 202.020994 195.312276 
" clip-path="url(#p6d5f159f20)" style="fill: none; stroke-dasharray: 5.55,2.4; stroke-dashoffset: 0; stroke: #9f4800; stroke-width: 1.5"/>
   </g>
   <g id="line2d_31">
    <path d="M 59.984631 95.698561 
L 75.593022 95.716178 
L 76.870073 95.71841 
L 78.147123 95.720925 
L 79.424173 95.723759 
L 80.701223 95.726951 
L 81.978273 95.730547 
L 83.255324 95.7346 
L 84.532374 95.739165 
L 85.809424 95.744308 
L 87.086474 95.750102 
L 88.363525 95.75663 
L 89.640575 95.763984 
L 90.917625 95.772269 
L 92.194675 95.781602 
L 93.471725 95.792116 
L 94.748776 95.803959 
L 96.025826 95.8173 
L 97.302876 95.832327 
L 98.579926 95.849253 
L 99.856977 95.868318 
L 101.134027 95.889789 
L 102.411077 95.913971 
L 103.688127 95.941202 
L 104.965177 95.971867 
L 106.242228 96.006396 
L 107.519278 96.045271 
L 108.796328 96.089037 
L 110.073378 96.138303 
L 111.350429 96.193754 
L 112.627479 96.256158 
L 113.904529 96.326377 
L 115.181579 96.405376 
L 116.458629 96.494235 
L 117.73568 96.594166 
L 119.01273 96.706519 
L 120.28978 96.832806 
L 121.56683 96.974711 
L 122.843881 97.134113 
L 124.120931 97.313101 
L 125.397981 97.513994 
L 126.675031 97.739366 
L 127.952081 97.992063 
L 129.229132 98.275228 
L 130.506182 98.592319 
L 131.783232 98.947132 
L 133.060282 99.343819 
L 134.337333 99.786902 
L 135.614383 100.281282 
L 136.891433 100.832249 
L 138.168483 101.445471 
L 139.445533 102.126986 
L 140.722584 102.883167 
L 141.999634 103.72068 
L 143.276684 104.646422 
L 144.553734 105.667429 
L 145.830785 106.790763 
L 147.107835 108.023371 
L 148.384885 109.371912 
L 149.661935 110.842551 
L 150.938985 112.440726 
L 152.216036 114.170891 
L 153.493086 116.036236 
L 154.770136 118.038399 
L 156.047186 120.177182 
L 157.324237 122.450292 
L 158.601287 124.853114 
L 159.878337 127.378552 
L 161.155387 130.016941 
L 162.432437 132.756066 
L 163.709488 135.581282 
L 164.986538 138.475756 
L 166.263588 141.420816 
L 167.540638 144.39641 
L 168.817689 147.381627 
L 170.094739 150.35529 
L 171.371789 153.296544 
L 172.648839 156.185439 
L 173.925889 159.003457 
L 175.20294 161.73395 
L 176.47999 164.362488 
L 177.75704 166.877084 
L 179.03409 169.268311 
L 180.311141 171.529302 
L 181.588191 173.655664 
L 182.865241 175.645304 
L 184.142291 177.498204 
L 185.419341 179.216155 
L 186.696392 180.802476 
L 187.973442 182.26172 
L 189.250492 183.599403 
L 190.527542 184.821744 
L 191.804593 185.935437 
L 193.081643 186.947445 
L 194.358693 187.864835 
L 195.635743 188.694634 
L 196.912793 189.443719 
L 198.189844 190.118734 
L 199.466894 190.726024 
L 200.743944 191.27159 
L 202.020994 191.76107 
" clip-path="url(#p6d5f159f20)" style="fill: none; stroke-dasharray: 5.55,2.4; stroke-dashoffset: 0; stroke: #f14cc1; stroke-width: 1.5"/>
   </g>
   <g id="patch_3">
    <path d="M 52.882813 202.1 
L 52.882813 63.5 
" style="fill: none; stroke: #000000; stroke-width: 0.8; stroke-linejoin: miter; stroke-linecap: square"/>
   </g>
   <g id="patch_4">
    <path d="M 52.882813 202.1 
L 209.122813 202.1 
" style="fill: none; stroke: #000000; stroke-width: 0.8; stroke-linejoin: miter; stroke-linecap: square"/>
   </g>
   <g id="legend_1">
    <g id="line2d_32">
     <path d="M 32.646813 13.67875 
L 40.646813 13.67875 
L 48.646813 13.67875 
" style="fill: none; stroke: #023eff; stroke-width: 1.5; stroke-linecap: square"/>
    </g>
    <g id="text_13">
     <!-- 0 -->
     <g transform="translate(55.046813 16.47875)scale(0.08 -0.08)">
      <use xlink:href="#DejaVuSans-30"/>
     </g>
    </g>
    <g id="line2d_33">
     <path d="M 32.646813 25.42125 
L 40.646813 25.42125 
L 48.646813 25.42125 
" style="fill: none; stroke: #ff7c00; stroke-width: 1.5; stroke-linecap: square"/>
    </g>
    <g id="text_14">
     <!-- 1 -->
     <g transform="translate(55.046813 28.22125)scale(0.08 -0.08)">
      <use xlink:href="#DejaVuSans-31"/>
     </g>
    </g>
    <g id="line2d_34">
     <path d="M 32.646813 37.16375 
L 40.646813 37.16375 
L 48.646813 37.16375 
" style="fill: none; stroke: #1ac938; stroke-width: 1.5; stroke-linecap: square"/>
    </g>
    <g id="text_15">
     <!-- 2 -->
     <g transform="translate(55.046813 39.96375)scale(0.08 -0.08)">
      <defs>
       <path id="DejaVuSans-32" d="M 1228 531 
L 3431 531 
L 3431 0 
L 469 0 
L 469 531 
Q 828 903 1448 1529 
Q 2069 2156 2228 2338 
Q 2531 2678 2651 2914 
Q 2772 3150 2772 3378 
Q 2772 3750 2511 3984 
Q 2250 4219 1831 4219 
Q 1534 4219 1204 4116 
Q 875 4013 500 3803 
L 500 4441 
Q 881 4594 1212 4672 
Q 1544 4750 1819 4750 
Q 2544 4750 2975 4387 
Q 3406 4025 3406 3419 
Q 3406 3131 3298 2873 
Q 3191 2616 2906 2266 
Q 2828 2175 2409 1742 
Q 1991 1309 1228 531 
z
" transform="scale(0.015625)"/>
      </defs>
      <use xlink:href="#DejaVuSans-32"/>
     </g>
    </g>
    <g id="line2d_35">
     <path d="M 32.646813 48.90625 
L 40.646813 48.90625 
L 48.646813 48.90625 
" style="fill: none; stroke: #e8000b; stroke-width: 1.5; stroke-linecap: square"/>
    </g>
    <g id="text_16">
     <!-- 3 -->
     <g transform="translate(55.046813 51.70625)scale(0.08 -0.08)">
      <use xlink:href="#DejaVuSans-33"/>
     </g>
    </g>
    <g id="line2d_36">
     <path d="M 76.136813 13.67875 
L 84.136813 13.67875 
L 92.136813 13.67875 
" style="fill: none; stroke: #8b2be2; stroke-width: 1.5; stroke-linecap: square"/>
    </g>
    <g id="text_17">
     <!-- 4 -->
     <g transform="translate(98.536813 16.47875)scale(0.08 -0.08)">
      <defs>
       <path id="DejaVuSans-34" d="M 2419 4116 
L 825 1625 
L 2419 1625 
L 2419 4116 
z
M 2253 4666 
L 3047 4666 
L 3047 1625 
L 3713 1625 
L 3713 1100 
L 3047 1100 
L 3047 0 
L 2419 0 
L 2419 1100 
L 313 1100 
L 313 1709 
L 2253 4666 
z
" transform="scale(0.015625)"/>
      </defs>
      <use xlink:href="#DejaVuSans-34"/>
     </g>
    </g>
    <g id="line2d_37">
     <path d="M 76.136813 25.42125 
L 84.136813 25.42125 
L 92.136813 25.42125 
" style="fill: none; stroke: #9f4800; stroke-width: 1.5; stroke-linecap: square"/>
    </g>
    <g id="text_18">
     <!-- 5 -->
     <g transform="translate(98.536813 28.22125)scale(0.08 -0.08)">
      <use xlink:href="#DejaVuSans-35"/>
     </g>
    </g>
    <g id="line2d_38">
     <path d="M 76.136813 37.16375 
L 84.136813 37.16375 
L 92.136813 37.16375 
" style="fill: none; stroke: #f14cc1; stroke-width: 1.5; stroke-linecap: square"/>
    </g>
    <g id="text_19">
     <!-- 6 -->
     <g transform="translate(98.536813 39.96375)scale(0.08 -0.08)">
      <defs>
       <path id="DejaVuSans-36" d="M 2113 2584 
Q 1688 2584 1439 2293 
Q 1191 2003 1191 1497 
Q 1191 994 1439 701 
Q 1688 409 2113 409 
Q 2538 409 2786 701 
Q 3034 994 3034 1497 
Q 3034 2003 2786 2293 
Q 2538 2584 2113 2584 
z
M 3366 4563 
L 3366 3988 
Q 3128 4100 2886 4159 
Q 2644 4219 2406 4219 
Q 1781 4219 1451 3797 
Q 1122 3375 1075 2522 
Q 1259 2794 1537 2939 
Q 1816 3084 2150 3084 
Q 2853 3084 3261 2657 
Q 3669 2231 3669 1497 
Q 3669 778 3244 343 
Q 2819 -91 2113 -91 
Q 1303 -91 875 529 
Q 447 1150 447 2328 
Q 447 3434 972 4092 
Q 1497 4750 2381 4750 
Q 2619 4750 2861 4703 
Q 3103 4656 3366 4563 
z
" transform="scale(0.015625)"/>
      </defs>
      <use xlink:href="#DejaVuSans-36"/>
     </g>
    </g>
    <g id="line2d_39">
     <path d="M 76.136813 48.90625 
L 84.136813 48.90625 
L 92.136813 48.90625 
" style="fill: none; stroke: #ffc400; stroke-width: 1.5; stroke-linecap: square"/>
    </g>
    <g id="text_20">
     <!-- 7 -->
     <g transform="translate(98.536813 51.70625)scale(0.08 -0.08)">
      <defs>
       <path id="DejaVuSans-37" d="M 525 4666 
L 3525 4666 
L 3525 4397 
L 1831 0 
L 1172 0 
L 2766 4134 
L 525 4134 
L 525 4666 
z
" transform="scale(0.015625)"/>
      </defs>
      <use xlink:href="#DejaVuSans-37"/>
     </g>
    </g>
    <g id="line2d_40">
     <path d="M 119.626813 13.67875 
L 127.626813 13.67875 
L 135.626813 13.67875 
" style="fill: none; stroke: #a3a3a3; stroke-width: 1.5; stroke-linecap: square"/>
    </g>
    <g id="text_21">
     <!-- 8 -->
     <g transform="translate(142.026813 16.47875)scale(0.08 -0.08)">
      <defs>
       <path id="DejaVuSans-38" d="M 2034 2216 
Q 1584 2216 1326 1975 
Q 1069 1734 1069 1313 
Q 1069 891 1326 650 
Q 1584 409 2034 409 
Q 2484 409 2743 651 
Q 3003 894 3003 1313 
Q 3003 1734 2745 1975 
Q 2488 2216 2034 2216 
z
M 1403 2484 
Q 997 2584 770 2862 
Q 544 3141 544 3541 
Q 544 4100 942 4425 
Q 1341 4750 2034 4750 
Q 2731 4750 3128 4425 
Q 3525 4100 3525 3541 
Q 3525 3141 3298 2862 
Q 3072 2584 2669 2484 
Q 3125 2378 3379 2068 
Q 3634 1759 3634 1313 
Q 3634 634 3220 271 
Q 2806 -91 2034 -91 
Q 1263 -91 848 271 
Q 434 634 434 1313 
Q 434 1759 690 2068 
Q 947 2378 1403 2484 
z
M 1172 3481 
Q 1172 3119 1398 2916 
Q 1625 2713 2034 2713 
Q 2441 2713 2670 2916 
Q 2900 3119 2900 3481 
Q 2900 3844 2670 4047 
Q 2441 4250 2034 4250 
Q 1625 4250 1398 4047 
Q 1172 3844 1172 3481 
z
" transform="scale(0.015625)"/>
      </defs>
      <use xlink:href="#DejaVuSans-38"/>
     </g>
    </g>
    <g id="line2d_41">
     <path d="M 119.626813 25.42125 
L 127.626813 25.42125 
L 135.626813 25.42125 
" style="fill: none; stroke-dasharray: 5.55,2.4; stroke-dashoffset: 0; stroke: #023eff; stroke-width: 1.5"/>
    </g>
    <g id="text_22">
     <!-- 9 -->
     <g transform="translate(142.026813 28.22125)scale(0.08 -0.08)">
      <defs>
       <path id="DejaVuSans-39" d="M 703 97 
L 703 672 
Q 941 559 1184 500 
Q 1428 441 1663 441 
Q 2288 441 2617 861 
Q 2947 1281 2994 2138 
Q 2813 1869 2534 1725 
Q 2256 1581 1919 1581 
Q 1219 1581 811 2004 
Q 403 2428 403 3163 
Q 403 3881 828 4315 
Q 1253 4750 1959 4750 
Q 2769 4750 3195 4129 
Q 3622 3509 3622 2328 
Q 3622 1225 3098 567 
Q 2575 -91 1691 -91 
Q 1453 -91 1209 -44 
Q 966 3 703 97 
z
M 1959 2075 
Q 2384 2075 2632 2365 
Q 2881 2656 2881 3163 
Q 2881 3666 2632 3958 
Q 2384 4250 1959 4250 
Q 1534 4250 1286 3958 
Q 1038 3666 1038 3163 
Q 1038 2656 1286 2365 
Q 1534 2075 1959 2075 
z
" transform="scale(0.015625)"/>
      </defs>
      <use xlink:href="#DejaVuSans-39"/>
     </g>
    </g>
    <g id="line2d_42">
     <path d="M 119.626813 37.16375 
L 127.626813 37.16375 
L 135.626813 37.16375 
" style="fill: none; stroke-dasharray: 5.55,2.4; stroke-dashoffset: 0; stroke: #ff7c00; stroke-width: 1.5"/>
    </g>
    <g id="text_23">
     <!-- 10 -->
     <g transform="translate(142.026813 39.96375)scale(0.08 -0.08)">
      <use xlink:href="#DejaVuSans-31"/>
      <use xlink:href="#DejaVuSans-30" x="63.623047"/>
     </g>
    </g>
    <g id="line2d_43">
     <path d="M 119.626813 48.90625 
L 127.626813 48.90625 
L 135.626813 48.90625 
" style="fill: none; stroke-dasharray: 5.55,2.4; stroke-dashoffset: 0; stroke: #1ac938; stroke-width: 1.5"/>
    </g>
    <g id="text_24">
     <!-- 11 -->
     <g transform="translate(142.026813 51.70625)scale(0.08 -0.08)">
      <use xlink:href="#DejaVuSans-31"/>
      <use xlink:href="#DejaVuSans-31" x="63.623047"/>
     </g>
    </g>
    <g id="line2d_44">
     <path d="M 168.206813 13.67875 
L 176.206813 13.67875 
L 184.206813 13.67875 
" style="fill: none; stroke-dasharray: 5.55,2.4; stroke-dashoffset: 0; stroke: #e8000b; stroke-width: 1.5"/>
    </g>
    <g id="text_25">
     <!-- 12 -->
     <g transform="translate(190.606813 16.47875)scale(0.08 -0.08)">
      <use xlink:href="#DejaVuSans-31"/>
      <use xlink:href="#DejaVuSans-32" x="63.623047"/>
     </g>
    </g>
    <g id="line2d_45">
     <path d="M 168.206813 25.42125 
L 176.206813 25.42125 
L 184.206813 25.42125 
" style="fill: none; stroke-dasharray: 5.55,2.4; stroke-dashoffset: 0; stroke: #8b2be2; stroke-width: 1.5"/>
    </g>
    <g id="text_26">
     <!-- 13 -->
     <g transform="translate(190.606813 28.22125)scale(0.08 -0.08)">
      <use xlink:href="#DejaVuSans-31"/>
      <use xlink:href="#DejaVuSans-33" x="63.623047"/>
     </g>
    </g>
    <g id="line2d_46">
     <path d="M 168.206813 37.16375 
L 176.206813 37.16375 
L 184.206813 37.16375 
" style="fill: none; stroke-dasharray: 5.55,2.4; stroke-dashoffset: 0; stroke: #9f4800; stroke-width: 1.5"/>
    </g>
    <g id="text_27">
     <!-- 14 -->
     <g transform="translate(190.606813 39.96375)scale(0.08 -0.08)">
      <use xlink:href="#DejaVuSans-31"/>
      <use xlink:href="#DejaVuSans-34" x="63.623047"/>
     </g>
    </g>
    <g id="line2d_47">
     <path d="M 168.206813 48.90625 
L 176.206813 48.90625 
L 184.206813 48.90625 
" style="fill: none; stroke-dasharray: 5.55,2.4; stroke-dashoffset: 0; stroke: #f14cc1; stroke-width: 1.5"/>
    </g>
    <g id="text_28">
     <!-- 15 -->
     <g transform="translate(190.606813 51.70625)scale(0.08 -0.08)">
      <use xlink:href="#DejaVuSans-31"/>
      <use xlink:href="#DejaVuSans-35" x="63.623047"/>
     </g>
    </g>
   </g>
  </g>
 </g>
 <defs>
  <clipPath id="p6d5f159f20">
   <rect x="52.882813" y="63.5" width="156.24" height="138.6"/>
  </clipPath>
 </defs>
</svg>
