<?xml version="1.0" encoding="utf-8" standalone="no"?>
<!DOCTYPE svg PUBLIC "-//W3C//DTD SVG 1.1//EN"
  "http://www.w3.org/Graphics/SVG/1.1/DTD/svg11.dtd">
<svg xmlns:xlink="http://www.w3.org/1999/xlink" width="418.642812pt" height="270.3875pt" viewBox="0 0 418.642812 270.3875" xmlns="http://www.w3.org/2000/svg" version="1.1">
 <metadata>
  <rdf:RDF xmlns:dc="http://purl.org/dc/elements/1.1/" xmlns:cc="http://creativecommons.org/ns#" xmlns:rdf="http://www.w3.org/1999/02/22-rdf-syntax-ns#">
   <cc:Work>
    <dc:type rdf:resource="http://purl.org/dc/dcmitype/StillImage"/>
    <dc:date>2024-01-17T15:17:26.910043</dc:date>
    <dc:format>image/svg+xml</dc:format>
    <dc:creator>
     <cc:Agent>
      <dc:title>Matplotlib v3.5.2, https://matplotlib.org/</dc:title>
     </cc:Agent>
    </dc:creator>
   </cc:Work>
  </rdf:RDF>
 </metadata>
 <defs>
  <style type="text/css">*{stroke-linejoin: round; stroke-linecap: butt}</style>
 </defs>
 <g id="figure_1">
  <g id="patch_1">
   <path d="M 0 270.3875 
L 418.642812 270.3875 
L 418.642812 0 
L 0 0 
z
" style="fill: #ffffff"/>
  </g>
  <g id="axes_1">
   <g id="patch_2">
    <path d="M 57.042813 228.96 
L 336.042813 228.96 
L 336.042813 7.2 
L 57.042813 7.2 
z
" style="fill: #ffffff"/>
   </g>
   <g id="matplotlib.axis_1">
    <g id="xtick_1">
     <g id="line2d_1">
      <defs>
       <path id="m6f624d4d48" d="M 0 0 
L 0 3.5 
" style="stroke: #000000; stroke-width: 0.8"/>
      </defs>
      <g>
       <use xlink:href="#m6f624d4d48" x="69.724631" y="228.96" style="stroke: #000000; stroke-width: 0.8"/>
      </g>
     </g>
     <g id="text_1">
      <!-- $\mathdefault{0}$ -->
      <g transform="translate(66.524631 243.558437)scale(0.1 -0.1)">
       <defs>
        <path id="DejaVuSans-30" d="M 2034 4250 
Q 1547 4250 1301 3770 
Q 1056 3291 1056 2328 
Q 1056 1369 1301 889 
Q 1547 409 2034 409 
Q 2525 409 2770 889 
Q 3016 1369 3016 2328 
Q 3016 3291 2770 3770 
Q 2525 4250 2034 4250 
z
M 2034 4750 
Q 2819 4750 3233 4129 
Q 3647 3509 3647 2328 
Q 3647 1150 3233 529 
Q 2819 -91 2034 -91 
Q 1250 -91 836 529 
Q 422 1150 422 2328 
Q 422 3509 836 4129 
Q 1250 4750 2034 4750 
z
" transform="scale(0.015625)"/>
       </defs>
       <use xlink:href="#DejaVuSans-30" transform="translate(0 0.78125)"/>
      </g>
     </g>
    </g>
    <g id="xtick_2">
     <g id="line2d_2">
      <g>
       <use xlink:href="#m6f624d4d48" x="97.596759" y="228.96" style="stroke: #000000; stroke-width: 0.8"/>
      </g>
     </g>
     <g id="text_2">
      <!-- $\mathdefault{10^{-4}}$ -->
      <g transform="translate(85.846759 243.558437)scale(0.1 -0.1)">
       <defs>
        <path id="DejaVuSans-31" d="M 794 531 
L 1825 531 
L 1825 4091 
L 703 3866 
L 703 4441 
L 1819 4666 
L 2450 4666 
L 2450 531 
L 3481 531 
L 3481 0 
L 794 0 
L 794 531 
z
" transform="scale(0.015625)"/>
        <path id="DejaVuSans-2212" d="M 678 2272 
L 4684 2272 
L 4684 1741 
L 678 1741 
L 678 2272 
z
" transform="scale(0.015625)"/>
        <path id="DejaVuSans-34" d="M 2419 4116 
L 825 1625 
L 2419 1625 
L 2419 4116 
z
M 2253 4666 
L 3047 4666 
L 3047 1625 
L 3713 1625 
L 3713 1100 
L 3047 1100 
L 3047 0 
L 2419 0 
L 2419 1100 
L 313 1100 
L 313 1709 
L 2253 4666 
z
" transform="scale(0.015625)"/>
       </defs>
       <use xlink:href="#DejaVuSans-31" transform="translate(0 0.684375)"/>
       <use xlink:href="#DejaVuSans-30" transform="translate(63.623047 0.684375)"/>
       <use xlink:href="#DejaVuSans-2212" transform="translate(128.203125 38.965625)scale(0.7)"/>
       <use xlink:href="#DejaVuSans-34" transform="translate(186.855469 38.965625)scale(0.7)"/>
      </g>
     </g>
    </g>
    <g id="xtick_3">
     <g id="line2d_3">
      <g>
       <use xlink:href="#m6f624d4d48" x="122.681674" y="228.96" style="stroke: #000000; stroke-width: 0.8"/>
      </g>
     </g>
     <g id="text_3">
      <!-- $\mathdefault{10^{-3}}$ -->
      <g transform="translate(110.931674 243.558437)scale(0.1 -0.1)">
       <defs>
        <path id="DejaVuSans-33" d="M 2597 2516 
Q 3050 2419 3304 2112 
Q 3559 1806 3559 1356 
Q 3559 666 3084 287 
Q 2609 -91 1734 -91 
Q 1441 -91 1130 -33 
Q 819 25 488 141 
L 488 750 
Q 750 597 1062 519 
Q 1375 441 1716 441 
Q 2309 441 2620 675 
Q 2931 909 2931 1356 
Q 2931 1769 2642 2001 
Q 2353 2234 1838 2234 
L 1294 2234 
L 1294 2753 
L 1863 2753 
Q 2328 2753 2575 2939 
Q 2822 3125 2822 3475 
Q 2822 3834 2567 4026 
Q 2313 4219 1838 4219 
Q 1578 4219 1281 4162 
Q 984 4106 628 3988 
L 628 4550 
Q 988 4650 1302 4700 
Q 1616 4750 1894 4750 
Q 2613 4750 3031 4423 
Q 3450 4097 3450 3541 
Q 3450 3153 3228 2886 
Q 3006 2619 2597 2516 
z
" transform="scale(0.015625)"/>
       </defs>
       <use xlink:href="#DejaVuSans-31" transform="translate(0 0.765625)"/>
       <use xlink:href="#DejaVuSans-30" transform="translate(63.623047 0.765625)"/>
       <use xlink:href="#DejaVuSans-2212" transform="translate(128.203125 39.046875)scale(0.7)"/>
       <use xlink:href="#DejaVuSans-33" transform="translate(186.855469 39.046875)scale(0.7)"/>
      </g>
     </g>
    </g>
    <g id="xtick_4">
     <g id="line2d_4">
      <g>
       <use xlink:href="#m6f624d4d48" x="147.766589" y="228.96" style="stroke: #000000; stroke-width: 0.8"/>
      </g>
     </g>
     <g id="text_4">
      <!-- $\mathdefault{10^{-2}}$ -->
      <g transform="translate(136.016589 243.558437)scale(0.1 -0.1)">
       <defs>
        <path id="DejaVuSans-32" d="M 1228 531 
L 3431 531 
L 3431 0 
L 469 0 
L 469 531 
Q 828 903 1448 1529 
Q 2069 2156 2228 2338 
Q 2531 2678 2651 2914 
Q 2772 3150 2772 3378 
Q 2772 3750 2511 3984 
Q 2250 4219 1831 4219 
Q 1534 4219 1204 4116 
Q 875 4013 500 3803 
L 500 4441 
Q 881 4594 1212 4672 
Q 1544 4750 1819 4750 
Q 2544 4750 2975 4387 
Q 3406 4025 3406 3419 
Q 3406 3131 3298 2873 
Q 3191 2616 2906 2266 
Q 2828 2175 2409 1742 
Q 1991 1309 1228 531 
z
" transform="scale(0.015625)"/>
       </defs>
       <use xlink:href="#DejaVuSans-31" transform="translate(0 0.765625)"/>
       <use xlink:href="#DejaVuSans-30" transform="translate(63.623047 0.765625)"/>
       <use xlink:href="#DejaVuSans-2212" transform="translate(128.203125 39.046875)scale(0.7)"/>
       <use xlink:href="#DejaVuSans-32" transform="translate(186.855469 39.046875)scale(0.7)"/>
      </g>
     </g>
    </g>
    <g id="xtick_5">
     <g id="line2d_5">
      <g>
       <use xlink:href="#m6f624d4d48" x="172.851504" y="228.96" style="stroke: #000000; stroke-width: 0.8"/>
      </g>
     </g>
     <g id="text_5">
      <!-- $\mathdefault{10^{-1}}$ -->
      <g transform="translate(161.101504 243.558437)scale(0.1 -0.1)">
       <use xlink:href="#DejaVuSans-31" transform="translate(0 0.684375)"/>
       <use xlink:href="#DejaVuSans-30" transform="translate(63.623047 0.684375)"/>
       <use xlink:href="#DejaVuSans-2212" transform="translate(128.203125 38.965625)scale(0.7)"/>
       <use xlink:href="#DejaVuSans-31" transform="translate(186.855469 38.965625)scale(0.7)"/>
      </g>
     </g>
    </g>
    <g id="xtick_6">
     <g id="line2d_6">
      <g>
       <use xlink:href="#m6f624d4d48" x="197.936419" y="228.96" style="stroke: #000000; stroke-width: 0.8"/>
      </g>
     </g>
     <g id="text_6">
      <!-- $\mathdefault{10^{0}}$ -->
      <g transform="translate(189.136419 243.558437)scale(0.1 -0.1)">
       <use xlink:href="#DejaVuSans-31" transform="translate(0 0.765625)"/>
       <use xlink:href="#DejaVuSans-30" transform="translate(63.623047 0.765625)"/>
       <use xlink:href="#DejaVuSans-30" transform="translate(128.203125 39.046875)scale(0.7)"/>
      </g>
     </g>
    </g>
    <g id="xtick_7">
     <g id="line2d_7">
      <g>
       <use xlink:href="#m6f624d4d48" x="223.021334" y="228.96" style="stroke: #000000; stroke-width: 0.8"/>
      </g>
     </g>
     <g id="text_7">
      <!-- $\mathdefault{10^{1}}$ -->
      <g transform="translate(214.221334 243.558437)scale(0.1 -0.1)">
       <use xlink:href="#DejaVuSans-31" transform="translate(0 0.684375)"/>
       <use xlink:href="#DejaVuSans-30" transform="translate(63.623047 0.684375)"/>
       <use xlink:href="#DejaVuSans-31" transform="translate(128.203125 38.965625)scale(0.7)"/>
      </g>
     </g>
    </g>
    <g id="xtick_8">
     <g id="line2d_8">
      <g>
       <use xlink:href="#m6f624d4d48" x="248.106249" y="228.96" style="stroke: #000000; stroke-width: 0.8"/>
      </g>
     </g>
     <g id="text_8">
      <!-- $\mathdefault{10^{2}}$ -->
      <g transform="translate(239.306249 243.558437)scale(0.1 -0.1)">
       <use xlink:href="#DejaVuSans-31" transform="translate(0 0.765625)"/>
       <use xlink:href="#DejaVuSans-30" transform="translate(63.623047 0.765625)"/>
       <use xlink:href="#DejaVuSans-32" transform="translate(128.203125 39.046875)scale(0.7)"/>
      </g>
     </g>
    </g>
    <g id="xtick_9">
     <g id="line2d_9">
      <g>
       <use xlink:href="#m6f624d4d48" x="273.191164" y="228.96" style="stroke: #000000; stroke-width: 0.8"/>
      </g>
     </g>
     <g id="text_9">
      <!-- $\mathdefault{10^{3}}$ -->
      <g transform="translate(264.391164 243.558437)scale(0.1 -0.1)">
       <use xlink:href="#DejaVuSans-31" transform="translate(0 0.765625)"/>
       <use xlink:href="#DejaVuSans-30" transform="translate(63.623047 0.765625)"/>
       <use xlink:href="#DejaVuSans-33" transform="translate(128.203125 39.046875)scale(0.7)"/>
      </g>
     </g>
    </g>
    <g id="xtick_10">
     <g id="line2d_10">
      <g>
       <use xlink:href="#m6f624d4d48" x="298.276079" y="228.96" style="stroke: #000000; stroke-width: 0.8"/>
      </g>
     </g>
     <g id="text_10">
      <!-- $\mathdefault{10^{4}}$ -->
      <g transform="translate(289.476079 243.558437)scale(0.1 -0.1)">
       <use xlink:href="#DejaVuSans-31" transform="translate(0 0.684375)"/>
       <use xlink:href="#DejaVuSans-30" transform="translate(63.623047 0.684375)"/>
       <use xlink:href="#DejaVuSans-34" transform="translate(128.203125 38.965625)scale(0.7)"/>
      </g>
     </g>
    </g>
    <g id="xtick_11">
     <g id="line2d_11">
      <g>
       <use xlink:href="#m6f624d4d48" x="323.360994" y="228.96" style="stroke: #000000; stroke-width: 0.8"/>
      </g>
     </g>
     <g id="text_11">
      <!-- $\mathdefault{10^{5}}$ -->
      <g transform="translate(314.560994 243.558437)scale(0.1 -0.1)">
       <defs>
        <path id="DejaVuSans-35" d="M 691 4666 
L 3169 4666 
L 3169 4134 
L 1269 4134 
L 1269 2991 
Q 1406 3038 1543 3061 
Q 1681 3084 1819 3084 
Q 2600 3084 3056 2656 
Q 3513 2228 3513 1497 
Q 3513 744 3044 326 
Q 2575 -91 1722 -91 
Q 1428 -91 1123 -41 
Q 819 9 494 109 
L 494 744 
Q 775 591 1075 516 
Q 1375 441 1709 441 
Q 2250 441 2565 725 
Q 2881 1009 2881 1497 
Q 2881 1984 2565 2268 
Q 2250 2553 1709 2553 
Q 1456 2553 1204 2497 
Q 953 2441 691 2322 
L 691 4666 
z
" transform="scale(0.015625)"/>
       </defs>
       <use xlink:href="#DejaVuSans-31" transform="translate(0 0.684375)"/>
       <use xlink:href="#DejaVuSans-30" transform="translate(63.623047 0.684375)"/>
       <use xlink:href="#DejaVuSans-35" transform="translate(128.203125 38.965625)scale(0.7)"/>
      </g>
     </g>
    </g>
    <g id="text_12">
     <!-- Drug Concentration (µg/ml) -->
     <g transform="translate(99.945 260.275937)scale(0.14 -0.14)">
      <defs>
       <path id="DejaVuSans-44" d="M 1259 4147 
L 1259 519 
L 2022 519 
Q 2988 519 3436 956 
Q 3884 1394 3884 2338 
Q 3884 3275 3436 3711 
Q 2988 4147 2022 4147 
L 1259 4147 
z
M 628 4666 
L 1925 4666 
Q 3281 4666 3915 4102 
Q 4550 3538 4550 2338 
Q 4550 1131 3912 565 
Q 3275 0 1925 0 
L 628 0 
L 628 4666 
z
" transform="scale(0.015625)"/>
       <path id="DejaVuSans-72" d="M 2631 2963 
Q 2534 3019 2420 3045 
Q 2306 3072 2169 3072 
Q 1681 3072 1420 2755 
Q 1159 2438 1159 1844 
L 1159 0 
L 581 0 
L 581 3500 
L 1159 3500 
L 1159 2956 
Q 1341 3275 1631 3429 
Q 1922 3584 2338 3584 
Q 2397 3584 2469 3576 
Q 2541 3569 2628 3553 
L 2631 2963 
z
" transform="scale(0.015625)"/>
       <path id="DejaVuSans-75" d="M 544 1381 
L 544 3500 
L 1119 3500 
L 1119 1403 
Q 1119 906 1312 657 
Q 1506 409 1894 409 
Q 2359 409 2629 706 
Q 2900 1003 2900 1516 
L 2900 3500 
L 3475 3500 
L 3475 0 
L 2900 0 
L 2900 538 
Q 2691 219 2414 64 
Q 2138 -91 1772 -91 
Q 1169 -91 856 284 
Q 544 659 544 1381 
z
M 1991 3584 
L 1991 3584 
z
" transform="scale(0.015625)"/>
       <path id="DejaVuSans-67" d="M 2906 1791 
Q 2906 2416 2648 2759 
Q 2391 3103 1925 3103 
Q 1463 3103 1205 2759 
Q 947 2416 947 1791 
Q 947 1169 1205 825 
Q 1463 481 1925 481 
Q 2391 481 2648 825 
Q 2906 1169 2906 1791 
z
M 3481 434 
Q 3481 -459 3084 -895 
Q 2688 -1331 1869 -1331 
Q 1566 -1331 1297 -1286 
Q 1028 -1241 775 -1147 
L 775 -588 
Q 1028 -725 1275 -790 
Q 1522 -856 1778 -856 
Q 2344 -856 2625 -561 
Q 2906 -266 2906 331 
L 2906 616 
Q 2728 306 2450 153 
Q 2172 0 1784 0 
Q 1141 0 747 490 
Q 353 981 353 1791 
Q 353 2603 747 3093 
Q 1141 3584 1784 3584 
Q 2172 3584 2450 3431 
Q 2728 3278 2906 2969 
L 2906 3500 
L 3481 3500 
L 3481 434 
z
" transform="scale(0.015625)"/>
       <path id="DejaVuSans-20" transform="scale(0.015625)"/>
       <path id="DejaVuSans-43" d="M 4122 4306 
L 4122 3641 
Q 3803 3938 3442 4084 
Q 3081 4231 2675 4231 
Q 1875 4231 1450 3742 
Q 1025 3253 1025 2328 
Q 1025 1406 1450 917 
Q 1875 428 2675 428 
Q 3081 428 3442 575 
Q 3803 722 4122 1019 
L 4122 359 
Q 3791 134 3420 21 
Q 3050 -91 2638 -91 
Q 1578 -91 968 557 
Q 359 1206 359 2328 
Q 359 3453 968 4101 
Q 1578 4750 2638 4750 
Q 3056 4750 3426 4639 
Q 3797 4528 4122 4306 
z
" transform="scale(0.015625)"/>
       <path id="DejaVuSans-6f" d="M 1959 3097 
Q 1497 3097 1228 2736 
Q 959 2375 959 1747 
Q 959 1119 1226 758 
Q 1494 397 1959 397 
Q 2419 397 2687 759 
Q 2956 1122 2956 1747 
Q 2956 2369 2687 2733 
Q 2419 3097 1959 3097 
z
M 1959 3584 
Q 2709 3584 3137 3096 
Q 3566 2609 3566 1747 
Q 3566 888 3137 398 
Q 2709 -91 1959 -91 
Q 1206 -91 779 398 
Q 353 888 353 1747 
Q 353 2609 779 3096 
Q 1206 3584 1959 3584 
z
" transform="scale(0.015625)"/>
       <path id="DejaVuSans-6e" d="M 3513 2113 
L 3513 0 
L 2938 0 
L 2938 2094 
Q 2938 2591 2744 2837 
Q 2550 3084 2163 3084 
Q 1697 3084 1428 2787 
Q 1159 2491 1159 1978 
L 1159 0 
L 581 0 
L 581 3500 
L 1159 3500 
L 1159 2956 
Q 1366 3272 1645 3428 
Q 1925 3584 2291 3584 
Q 2894 3584 3203 3211 
Q 3513 2838 3513 2113 
z
" transform="scale(0.015625)"/>
       <path id="DejaVuSans-63" d="M 3122 3366 
L 3122 2828 
Q 2878 2963 2633 3030 
Q 2388 3097 2138 3097 
Q 1578 3097 1268 2742 
Q 959 2388 959 1747 
Q 959 1106 1268 751 
Q 1578 397 2138 397 
Q 2388 397 2633 464 
Q 2878 531 3122 666 
L 3122 134 
Q 2881 22 2623 -34 
Q 2366 -91 2075 -91 
Q 1284 -91 818 406 
Q 353 903 353 1747 
Q 353 2603 823 3093 
Q 1294 3584 2113 3584 
Q 2378 3584 2631 3529 
Q 2884 3475 3122 3366 
z
" transform="scale(0.015625)"/>
       <path id="DejaVuSans-65" d="M 3597 1894 
L 3597 1613 
L 953 1613 
Q 991 1019 1311 708 
Q 1631 397 2203 397 
Q 2534 397 2845 478 
Q 3156 559 3463 722 
L 3463 178 
Q 3153 47 2828 -22 
Q 2503 -91 2169 -91 
Q 1331 -91 842 396 
Q 353 884 353 1716 
Q 353 2575 817 3079 
Q 1281 3584 2069 3584 
Q 2775 3584 3186 3129 
Q 3597 2675 3597 1894 
z
M 3022 2063 
Q 3016 2534 2758 2815 
Q 2500 3097 2075 3097 
Q 1594 3097 1305 2825 
Q 1016 2553 972 2059 
L 3022 2063 
z
" transform="scale(0.015625)"/>
       <path id="DejaVuSans-74" d="M 1172 4494 
L 1172 3500 
L 2356 3500 
L 2356 3053 
L 1172 3053 
L 1172 1153 
Q 1172 725 1289 603 
Q 1406 481 1766 481 
L 2356 481 
L 2356 0 
L 1766 0 
Q 1100 0 847 248 
Q 594 497 594 1153 
L 594 3053 
L 172 3053 
L 172 3500 
L 594 3500 
L 594 4494 
L 1172 4494 
z
" transform="scale(0.015625)"/>
       <path id="DejaVuSans-61" d="M 2194 1759 
Q 1497 1759 1228 1600 
Q 959 1441 959 1056 
Q 959 750 1161 570 
Q 1363 391 1709 391 
Q 2188 391 2477 730 
Q 2766 1069 2766 1631 
L 2766 1759 
L 2194 1759 
z
M 3341 1997 
L 3341 0 
L 2766 0 
L 2766 531 
Q 2569 213 2275 61 
Q 1981 -91 1556 -91 
Q 1019 -91 701 211 
Q 384 513 384 1019 
Q 384 1609 779 1909 
Q 1175 2209 1959 2209 
L 2766 2209 
L 2766 2266 
Q 2766 2663 2505 2880 
Q 2244 3097 1772 3097 
Q 1472 3097 1187 3025 
Q 903 2953 641 2809 
L 641 3341 
Q 956 3463 1253 3523 
Q 1550 3584 1831 3584 
Q 2591 3584 2966 3190 
Q 3341 2797 3341 1997 
z
" transform="scale(0.015625)"/>
       <path id="DejaVuSans-69" d="M 603 3500 
L 1178 3500 
L 1178 0 
L 603 0 
L 603 3500 
z
M 603 4863 
L 1178 4863 
L 1178 4134 
L 603 4134 
L 603 4863 
z
" transform="scale(0.015625)"/>
       <path id="DejaVuSans-28" d="M 1984 4856 
Q 1566 4138 1362 3434 
Q 1159 2731 1159 2009 
Q 1159 1288 1364 580 
Q 1569 -128 1984 -844 
L 1484 -844 
Q 1016 -109 783 600 
Q 550 1309 550 2009 
Q 550 2706 781 3412 
Q 1013 4119 1484 4856 
L 1984 4856 
z
" transform="scale(0.015625)"/>
       <path id="DejaVuSans-b5" d="M 544 -1331 
L 544 3500 
L 1119 3500 
L 1119 1325 
Q 1119 872 1334 640 
Q 1550 409 1972 409 
Q 2434 409 2667 671 
Q 2900 934 2900 1459 
L 2900 3500 
L 3475 3500 
L 3475 806 
Q 3475 619 3529 530 
Q 3584 441 3700 441 
Q 3728 441 3778 458 
Q 3828 475 3916 513 
L 3916 50 
Q 3788 -22 3673 -56 
Q 3559 -91 3450 -91 
Q 3234 -91 3106 31 
Q 2978 153 2931 403 
Q 2775 156 2548 32 
Q 2322 -91 2016 -91 
Q 1697 -91 1473 31 
Q 1250 153 1119 397 
L 1119 -1331 
L 544 -1331 
z
" transform="scale(0.015625)"/>
       <path id="DejaVuSans-2f" d="M 1625 4666 
L 2156 4666 
L 531 -594 
L 0 -594 
L 1625 4666 
z
" transform="scale(0.015625)"/>
       <path id="DejaVuSans-6d" d="M 3328 2828 
Q 3544 3216 3844 3400 
Q 4144 3584 4550 3584 
Q 5097 3584 5394 3201 
Q 5691 2819 5691 2113 
L 5691 0 
L 5113 0 
L 5113 2094 
Q 5113 2597 4934 2840 
Q 4756 3084 4391 3084 
Q 3944 3084 3684 2787 
Q 3425 2491 3425 1978 
L 3425 0 
L 2847 0 
L 2847 2094 
Q 2847 2600 2669 2842 
Q 2491 3084 2119 3084 
Q 1678 3084 1418 2786 
Q 1159 2488 1159 1978 
L 1159 0 
L 581 0 
L 581 3500 
L 1159 3500 
L 1159 2956 
Q 1356 3278 1631 3431 
Q 1906 3584 2284 3584 
Q 2666 3584 2933 3390 
Q 3200 3197 3328 2828 
z
" transform="scale(0.015625)"/>
       <path id="DejaVuSans-6c" d="M 603 4863 
L 1178 4863 
L 1178 0 
L 603 0 
L 603 4863 
z
" transform="scale(0.015625)"/>
       <path id="DejaVuSans-29" d="M 513 4856 
L 1013 4856 
Q 1481 4119 1714 3412 
Q 1947 2706 1947 2009 
Q 1947 1309 1714 600 
Q 1481 -109 1013 -844 
L 513 -844 
Q 928 -128 1133 580 
Q 1338 1288 1338 2009 
Q 1338 2731 1133 3434 
Q 928 4138 513 4856 
z
" transform="scale(0.015625)"/>
      </defs>
      <use xlink:href="#DejaVuSans-44"/>
      <use xlink:href="#DejaVuSans-72" x="77.001953"/>
      <use xlink:href="#DejaVuSans-75" x="118.115234"/>
      <use xlink:href="#DejaVuSans-67" x="181.494141"/>
      <use xlink:href="#DejaVuSans-20" x="244.970703"/>
      <use xlink:href="#DejaVuSans-43" x="276.757812"/>
      <use xlink:href="#DejaVuSans-6f" x="346.582031"/>
      <use xlink:href="#DejaVuSans-6e" x="407.763672"/>
      <use xlink:href="#DejaVuSans-63" x="471.142578"/>
      <use xlink:href="#DejaVuSans-65" x="526.123047"/>
      <use xlink:href="#DejaVuSans-6e" x="587.646484"/>
      <use xlink:href="#DejaVuSans-74" x="651.025391"/>
      <use xlink:href="#DejaVuSans-72" x="690.234375"/>
      <use xlink:href="#DejaVuSans-61" x="731.347656"/>
      <use xlink:href="#DejaVuSans-74" x="792.626953"/>
      <use xlink:href="#DejaVuSans-69" x="831.835938"/>
      <use xlink:href="#DejaVuSans-6f" x="859.619141"/>
      <use xlink:href="#DejaVuSans-6e" x="920.800781"/>
      <use xlink:href="#DejaVuSans-20" x="984.179688"/>
      <use xlink:href="#DejaVuSans-28" x="1015.966797"/>
      <use xlink:href="#DejaVuSans-b5" x="1054.980469"/>
      <use xlink:href="#DejaVuSans-67" x="1118.603516"/>
      <use xlink:href="#DejaVuSans-2f" x="1182.080078"/>
      <use xlink:href="#DejaVuSans-6d" x="1215.771484"/>
      <use xlink:href="#DejaVuSans-6c" x="1313.183594"/>
      <use xlink:href="#DejaVuSans-29" x="1340.966797"/>
     </g>
    </g>
   </g>
   <g id="matplotlib.axis_2">
    <g id="ytick_1">
     <g id="line2d_12">
      <defs>
       <path id="medf45f5050" d="M 0 0 
L -3.5 0 
" style="stroke: #000000; stroke-width: 0.8"/>
      </defs>
      <g>
       <use xlink:href="#medf45f5050" x="57.042813" y="208.695638" style="stroke: #000000; stroke-width: 0.8"/>
      </g>
     </g>
     <g id="text_13">
      <!-- −1.0 -->
      <g transform="translate(25.76 212.494856)scale(0.1 -0.1)">
       <defs>
        <path id="DejaVuSans-2e" d="M 684 794 
L 1344 794 
L 1344 0 
L 684 0 
L 684 794 
z
" transform="scale(0.015625)"/>
       </defs>
       <use xlink:href="#DejaVuSans-2212"/>
       <use xlink:href="#DejaVuSans-31" x="83.789062"/>
       <use xlink:href="#DejaVuSans-2e" x="147.412109"/>
       <use xlink:href="#DejaVuSans-30" x="179.199219"/>
      </g>
     </g>
    </g>
    <g id="ytick_2">
     <g id="line2d_13">
      <g>
       <use xlink:href="#medf45f5050" x="57.042813" y="168.188706" style="stroke: #000000; stroke-width: 0.8"/>
      </g>
     </g>
     <g id="text_14">
      <!-- −0.5 -->
      <g transform="translate(25.76 171.987925)scale(0.1 -0.1)">
       <use xlink:href="#DejaVuSans-2212"/>
       <use xlink:href="#DejaVuSans-30" x="83.789062"/>
       <use xlink:href="#DejaVuSans-2e" x="147.412109"/>
       <use xlink:href="#DejaVuSans-35" x="179.199219"/>
      </g>
     </g>
    </g>
    <g id="ytick_3">
     <g id="line2d_14">
      <g>
       <use xlink:href="#medf45f5050" x="57.042813" y="127.681774" style="stroke: #000000; stroke-width: 0.8"/>
      </g>
     </g>
     <g id="text_15">
      <!-- 0.0 -->
      <g transform="translate(34.139688 131.480993)scale(0.1 -0.1)">
       <use xlink:href="#DejaVuSans-30"/>
       <use xlink:href="#DejaVuSans-2e" x="63.623047"/>
       <use xlink:href="#DejaVuSans-30" x="95.410156"/>
      </g>
     </g>
    </g>
    <g id="ytick_4">
     <g id="line2d_15">
      <g>
       <use xlink:href="#medf45f5050" x="57.042813" y="87.174842" style="stroke: #000000; stroke-width: 0.8"/>
      </g>
     </g>
     <g id="text_16">
      <!-- 0.5 -->
      <g transform="translate(34.139688 90.974061)scale(0.1 -0.1)">
       <use xlink:href="#DejaVuSans-30"/>
       <use xlink:href="#DejaVuSans-2e" x="63.623047"/>
       <use xlink:href="#DejaVuSans-35" x="95.410156"/>
      </g>
     </g>
    </g>
    <g id="ytick_5">
     <g id="line2d_16">
      <g>
       <use xlink:href="#medf45f5050" x="57.042813" y="46.66791" style="stroke: #000000; stroke-width: 0.8"/>
      </g>
     </g>
     <g id="text_17">
      <!-- 1.0 -->
      <g transform="translate(34.139688 50.467129)scale(0.1 -0.1)">
       <use xlink:href="#DejaVuSans-31"/>
       <use xlink:href="#DejaVuSans-2e" x="63.623047"/>
       <use xlink:href="#DejaVuSans-30" x="95.410156"/>
      </g>
     </g>
    </g>
    <g id="text_18">
     <!-- Growth Rate (hr$^{-1}$) -->
     <g transform="translate(18.848438 184.51)rotate(-90)scale(0.14 -0.14)">
      <defs>
       <path id="DejaVuSans-47" d="M 3809 666 
L 3809 1919 
L 2778 1919 
L 2778 2438 
L 4434 2438 
L 4434 434 
Q 4069 175 3628 42 
Q 3188 -91 2688 -91 
Q 1594 -91 976 548 
Q 359 1188 359 2328 
Q 359 3472 976 4111 
Q 1594 4750 2688 4750 
Q 3144 4750 3555 4637 
Q 3966 4525 4313 4306 
L 4313 3634 
Q 3963 3931 3569 4081 
Q 3175 4231 2741 4231 
Q 1884 4231 1454 3753 
Q 1025 3275 1025 2328 
Q 1025 1384 1454 906 
Q 1884 428 2741 428 
Q 3075 428 3337 486 
Q 3600 544 3809 666 
z
" transform="scale(0.015625)"/>
       <path id="DejaVuSans-77" d="M 269 3500 
L 844 3500 
L 1563 769 
L 2278 3500 
L 2956 3500 
L 3675 769 
L 4391 3500 
L 4966 3500 
L 4050 0 
L 3372 0 
L 2619 2869 
L 1863 0 
L 1184 0 
L 269 3500 
z
" transform="scale(0.015625)"/>
       <path id="DejaVuSans-68" d="M 3513 2113 
L 3513 0 
L 2938 0 
L 2938 2094 
Q 2938 2591 2744 2837 
Q 2550 3084 2163 3084 
Q 1697 3084 1428 2787 
Q 1159 2491 1159 1978 
L 1159 0 
L 581 0 
L 581 4863 
L 1159 4863 
L 1159 2956 
Q 1366 3272 1645 3428 
Q 1925 3584 2291 3584 
Q 2894 3584 3203 3211 
Q 3513 2838 3513 2113 
z
" transform="scale(0.015625)"/>
       <path id="DejaVuSans-52" d="M 2841 2188 
Q 3044 2119 3236 1894 
Q 3428 1669 3622 1275 
L 4263 0 
L 3584 0 
L 2988 1197 
Q 2756 1666 2539 1819 
Q 2322 1972 1947 1972 
L 1259 1972 
L 1259 0 
L 628 0 
L 628 4666 
L 2053 4666 
Q 2853 4666 3247 4331 
Q 3641 3997 3641 3322 
Q 3641 2881 3436 2590 
Q 3231 2300 2841 2188 
z
M 1259 4147 
L 1259 2491 
L 2053 2491 
Q 2509 2491 2742 2702 
Q 2975 2913 2975 3322 
Q 2975 3731 2742 3939 
Q 2509 4147 2053 4147 
L 1259 4147 
z
" transform="scale(0.015625)"/>
      </defs>
      <use xlink:href="#DejaVuSans-47" transform="translate(0 0.684375)"/>
      <use xlink:href="#DejaVuSans-72" transform="translate(77.490234 0.684375)"/>
      <use xlink:href="#DejaVuSans-6f" transform="translate(118.603516 0.684375)"/>
      <use xlink:href="#DejaVuSans-77" transform="translate(179.785156 0.684375)"/>
      <use xlink:href="#DejaVuSans-74" transform="translate(261.572266 0.684375)"/>
      <use xlink:href="#DejaVuSans-68" transform="translate(300.78125 0.684375)"/>
      <use xlink:href="#DejaVuSans-20" transform="translate(364.160156 0.684375)"/>
      <use xlink:href="#DejaVuSans-52" transform="translate(395.947266 0.684375)"/>
      <use xlink:href="#DejaVuSans-61" transform="translate(465.429688 0.684375)"/>
      <use xlink:href="#DejaVuSans-74" transform="translate(526.708984 0.684375)"/>
      <use xlink:href="#DejaVuSans-65" transform="translate(565.917969 0.684375)"/>
      <use xlink:href="#DejaVuSans-20" transform="translate(627.441406 0.684375)"/>
      <use xlink:href="#DejaVuSans-28" transform="translate(659.228516 0.684375)"/>
      <use xlink:href="#DejaVuSans-68" transform="translate(698.242188 0.684375)"/>
      <use xlink:href="#DejaVuSans-72" transform="translate(761.621094 0.684375)"/>
      <use xlink:href="#DejaVuSans-2212" transform="translate(803.691406 38.965625)scale(0.7)"/>
      <use xlink:href="#DejaVuSans-31" transform="translate(862.34375 38.965625)scale(0.7)"/>
      <use xlink:href="#DejaVuSans-29" transform="translate(909.614258 0.684375)"/>
     </g>
    </g>
   </g>
   <g id="line2d_17">
    <path d="M 69.724631 17.28 
L 97.596759 18.420571 
L 99.877205 18.779187 
L 102.157652 19.249451 
L 104.438099 19.86532 
L 106.718546 20.670507 
L 108.998993 21.720871 
L 111.27944 23.0871 
L 113.559886 24.857492 
L 115.840333 27.140438 
L 118.12078 30.065863 
L 120.401227 33.784503 
L 122.681674 38.463334 
L 124.96212 44.275112 
L 127.242567 51.380015 
L 129.523014 59.898445 
L 131.803461 69.876639 
L 134.083908 81.25098 
L 136.364355 93.821533 
L 138.644801 107.247514 
L 140.925248 121.073935 
L 143.205695 134.788508 
L 145.486142 147.895196 
L 147.766589 159.982948 
L 150.047036 170.770482 
L 152.327482 180.11886 
L 154.607929 188.015981 
L 156.888376 194.544606 
L 159.168823 199.846194 
L 161.44927 204.089174 
L 163.729717 207.445557 
L 166.010163 210.076192 
L 168.29061 212.123122 
L 170.571057 213.706899 
L 172.851504 214.926979 
L 175.131951 215.863721 
L 177.412397 216.581067 
L 179.692844 217.129314 
L 181.973291 217.547689 
L 184.253738 217.866589 
L 186.534185 218.109452 
L 188.814632 218.294282 
L 191.095078 218.434876 
L 193.375525 218.541779 
L 195.655972 218.62304 
L 197.936419 218.684797 
L 200.216866 218.731722 
L 202.497313 218.767373 
L 204.777759 218.794456 
L 207.058206 218.815028 
L 209.338653 218.830655 
L 211.6191 218.842523 
L 213.899547 218.851538 
L 216.179994 218.858384 
L 218.46044 218.863584 
L 220.740887 218.867533 
L 223.021334 218.870532 
L 225.301781 218.87281 
L 227.582228 218.874539 
L 229.862674 218.875853 
L 232.143121 218.876851 
L 234.423568 218.877608 
L 236.704015 218.878184 
L 238.984462 218.878621 
L 241.264909 218.878952 
L 243.545355 218.879204 
L 245.825802 218.879396 
L 248.106249 218.879541 
L 250.386696 218.879652 
L 252.667143 218.879735 
L 254.94759 218.879799 
L 257.228036 218.879847 
L 259.508483 218.879884 
L 261.78893 218.879912 
L 264.069377 218.879933 
L 266.349824 218.879949 
L 268.63027 218.879961 
L 270.910717 218.879971 
L 273.191164 218.879978 
L 275.471611 218.879983 
L 277.752058 218.879987 
L 280.032505 218.87999 
L 282.312951 218.879993 
L 284.593398 218.879994 
L 286.873845 218.879996 
L 289.154292 218.879997 
L 291.434739 218.879998 
L 293.715186 218.879998 
L 295.995632 218.879999 
L 298.276079 218.879999 
L 300.556526 218.879999 
L 302.836973 218.879999 
L 305.11742 218.88 
L 307.397867 218.88 
L 309.678313 218.88 
L 311.95876 218.88 
L 314.239207 218.88 
L 316.519654 218.88 
L 318.800101 218.88 
L 321.080547 218.88 
L 323.360994 218.88 
" clip-path="url(#p76bdbbfb16)" style="fill: none; stroke: #023eff; stroke-width: 2; stroke-linecap: square"/>
   </g>
   <g id="line2d_18">
    <path d="M 69.724631 45.725929 
L 97.596759 45.725939 
L 99.877205 45.725942 
L 102.157652 45.725946 
L 104.438099 45.725951 
L 106.718546 45.725958 
L 108.998993 45.725967 
L 111.27944 45.725979 
L 113.559886 45.725995 
L 115.840333 45.726016 
L 118.12078 45.726044 
L 120.401227 45.72608 
L 122.681674 45.726127 
L 124.96212 45.72619 
L 127.242567 45.726273 
L 129.523014 45.726381 
L 131.803461 45.726525 
L 134.083908 45.726713 
L 136.364355 45.726961 
L 138.644801 45.727288 
L 140.925248 45.727719 
L 143.205695 45.728286 
L 145.486142 45.729032 
L 147.766589 45.730015 
L 150.047036 45.731309 
L 152.327482 45.733013 
L 154.607929 45.735257 
L 156.888376 45.738211 
L 159.168823 45.742101 
L 161.44927 45.747224 
L 163.729717 45.753968 
L 166.010163 45.762848 
L 168.29061 45.774539 
L 170.571057 45.789932 
L 172.851504 45.810196 
L 175.131951 45.836873 
L 177.412397 45.871987 
L 179.692844 45.918203 
L 181.973291 45.979021 
L 184.253738 46.05904 
L 186.534185 46.164293 
L 188.814632 46.302693 
L 191.095078 46.484595 
L 193.375525 46.723536 
L 195.655972 47.037158 
L 197.936419 47.448388 
L 200.216866 47.986893 
L 202.497313 48.690843 
L 204.777759 49.608987 
L 207.058206 50.80297 
L 209.338653 52.349719 
L 211.6191 54.343534 
L 213.899547 56.897243 
L 216.179994 60.141407 
L 218.46044 64.220117 
L 220.740887 69.281606 
L 223.021334 75.461988 
L 225.301781 82.86141 
L 227.582228 91.514233 
L 229.862674 101.358596 
L 232.143121 112.21459 
L 234.423568 123.781974 
L 236.704015 135.664933 
L 238.984462 147.422372 
L 241.264909 158.631419 
L 243.545355 168.945526 
L 245.825802 178.131194 
L 248.106249 186.076955 
L 250.386696 192.778773 
L 252.667143 198.312031 
L 254.94759 202.800543 
L 257.228036 206.389716 
L 259.508483 209.226968 
L 261.78893 211.449526 
L 264.069377 213.178198 
L 266.349824 214.515293 
L 268.63027 215.545078 
L 270.910717 216.335564 
L 273.191164 216.940819 
L 275.471611 217.403345 
L 277.752058 217.756276 
L 280.032505 218.025273 
L 282.312951 218.230121 
L 284.593398 218.386015 
L 286.873845 218.504595 
L 289.154292 218.594756 
L 291.434739 218.663291 
L 293.715186 218.715375 
L 295.995632 218.75495 
L 298.276079 218.785016 
L 300.556526 218.807857 
L 302.836973 218.825207 
L 305.11742 218.838385 
L 307.397867 218.848394 
L 309.678313 218.855997 
L 311.95876 218.861771 
L 314.239207 218.866156 
L 316.519654 218.869486 
L 318.800101 218.872015 
L 321.080547 218.873936 
L 323.360994 218.875395 
" clip-path="url(#p76bdbbfb16)" style="fill: none; stroke: #ff7c00; stroke-width: 2; stroke-linecap: square"/>
   </g>
   <g id="line2d_19">
    <path d="M 69.724631 72.655656 
L 97.596759 72.655706 
L 99.877205 72.655721 
L 102.157652 72.655742 
L 104.438099 72.655769 
L 106.718546 72.655805 
L 108.998993 72.655852 
L 111.27944 72.655914 
L 113.559886 72.655995 
L 115.840333 72.656102 
L 118.12078 72.656244 
L 120.401227 72.65643 
L 122.681674 72.656675 
L 124.96212 72.656998 
L 127.242567 72.657423 
L 129.523014 72.657983 
L 131.803461 72.65872 
L 134.083908 72.65969 
L 136.364355 72.660968 
L 138.644801 72.662651 
L 140.925248 72.664866 
L 143.205695 72.667784 
L 145.486142 72.671625 
L 147.766589 72.676682 
L 150.047036 72.683342 
L 152.327482 72.69211 
L 154.607929 72.703653 
L 156.888376 72.718851 
L 159.168823 72.738858 
L 161.44927 72.765195 
L 163.729717 72.799859 
L 166.010163 72.84548 
L 168.29061 72.905508 
L 170.571057 72.984477 
L 172.851504 73.08833 
L 175.131951 73.224856 
L 177.412397 73.40424 
L 179.692844 73.639776 
L 181.973291 73.948762 
L 184.253738 74.353627 
L 186.534185 74.883305 
L 188.814632 75.574877 
L 191.095078 76.475453 
L 193.375525 77.644182 
L 195.655972 79.154186 
L 197.936419 81.093953 
L 200.216866 83.567509 
L 202.497313 86.692284 
L 204.777759 90.593263 
L 207.058206 95.391909 
L 209.338653 101.18876 
L 211.6191 108.040081 
L 213.899547 115.931604 
L 216.179994 124.755835 
L 218.46044 134.301936 
L 220.740887 144.266401 
L 223.021334 154.286982 
L 225.301781 163.993272 
L 227.582228 173.059709 
L 229.862674 181.245591 
L 232.143121 188.412815 
L 234.423568 194.521273 
L 236.704015 199.608914 
L 238.984462 203.765725 
L 241.264909 207.109039 
L 243.545355 209.764222 
L 245.825802 211.851782 
L 248.106249 213.480108 
L 250.386696 214.742391 
L 252.667143 215.71623 
L 254.94759 216.464761 
L 257.228036 217.038472 
L 259.508483 217.477235 
L 261.78893 217.812231 
L 264.069377 218.067675 
L 266.349824 218.262269 
L 268.63027 218.410398 
L 270.910717 218.523093 
L 273.191164 218.608794 
L 275.471611 218.673946 
L 277.752058 218.723463 
L 280.032505 218.76109 
L 282.312951 218.789678 
L 284.593398 218.811397 
L 286.873845 218.827895 
L 289.154292 218.840426 
L 291.434739 218.849944 
L 293.715186 218.857174 
L 295.995632 218.862664 
L 298.276079 218.866834 
L 300.556526 218.870001 
L 302.836973 218.872407 
L 305.11742 218.874233 
L 307.397867 218.875621 
L 309.678313 218.876674 
L 311.95876 218.877474 
L 314.239207 218.878082 
L 316.519654 218.878543 
L 318.800101 218.878894 
L 321.080547 218.87916 
L 323.360994 218.879362 
" clip-path="url(#p76bdbbfb16)" style="fill: none; stroke: #1ac938; stroke-width: 2; stroke-linecap: square"/>
   </g>
   <g id="line2d_20">
    <path d="M 69.724631 52.532993 
L 97.596759 52.532993 
L 99.877205 52.532993 
L 102.157652 52.532994 
L 104.438099 52.532994 
L 106.718546 52.532994 
L 108.998993 52.532995 
L 111.27944 52.532995 
L 113.559886 52.532996 
L 115.840333 52.532997 
L 118.12078 52.532999 
L 120.401227 52.533001 
L 122.681674 52.533003 
L 124.96212 52.533006 
L 127.242567 52.53301 
L 129.523014 52.533016 
L 131.803461 52.533023 
L 134.083908 52.533033 
L 136.364355 52.533046 
L 138.644801 52.533063 
L 140.925248 52.533085 
L 143.205695 52.533114 
L 145.486142 52.533152 
L 147.766589 52.533203 
L 150.047036 52.533269 
L 152.327482 52.533357 
L 154.607929 52.533472 
L 156.888376 52.533624 
L 159.168823 52.533823 
L 161.44927 52.534087 
L 163.729717 52.534433 
L 166.010163 52.534889 
L 168.29061 52.53549 
L 170.571057 52.536281 
L 172.851504 52.537322 
L 175.131951 52.538694 
L 177.412397 52.540499 
L 179.692844 52.542877 
L 181.973291 52.546008 
L 184.253738 52.550131 
L 186.534185 52.555559 
L 188.814632 52.562706 
L 191.095078 52.572116 
L 193.375525 52.584505 
L 195.655972 52.600816 
L 197.936419 52.622289 
L 200.216866 52.650556 
L 202.497313 52.687762 
L 204.777759 52.736728 
L 207.058206 52.801162 
L 209.338653 52.885931 
L 211.6191 52.99742 
L 213.899547 53.143998 
L 216.179994 53.336613 
L 218.46044 53.589562 
L 220.740887 53.921461 
L 223.021334 54.35647 
L 225.301781 54.92579 
L 227.582228 55.669473 
L 229.862674 56.638505 
L 232.143121 57.897085 
L 234.423568 59.524867 
L 236.704015 61.618734 
L 238.984462 64.293379 
L 241.264909 67.679546 
L 243.545355 71.918429 
L 245.825802 77.150453 
L 248.106249 83.497052 
L 250.386696 91.035365 
L 252.667143 99.76859 
L 254.94759 109.598507 
L 257.228036 120.310051 
L 259.508483 131.577904 
L 261.78893 142.999754 
L 264.069377 154.150964 
L 266.349824 164.645838 
L 268.63027 174.187497 
L 270.910717 182.593775 
L 273.191164 189.796899 
L 275.471611 195.823622 
L 277.752058 200.766268 
L 280.032505 204.753805 
L 282.312951 207.928383 
L 284.593398 210.429146 
L 286.873845 212.382745 
L 289.154292 213.898973 
L 291.434739 215.069802 
L 293.715186 215.970381 
L 295.995632 216.661005 
L 298.276079 217.189398 
L 300.556526 217.592956 
L 302.836973 217.900755 
L 305.11742 218.135275 
L 307.397867 218.313822 
L 309.678313 218.449674 
L 311.95876 218.552993 
L 314.239207 218.631543 
L 316.519654 218.691246 
L 318.800101 218.736615 
L 321.080547 218.771086 
L 323.360994 218.797274 
" clip-path="url(#p76bdbbfb16)" style="fill: none; stroke: #e8000b; stroke-width: 2; stroke-linecap: square"/>
   </g>
   <g id="line2d_21">
    <path d="M 69.724631 34.172105 
L 97.596759 34.172989 
L 99.877205 34.173269 
L 102.157652 34.173638 
L 104.438099 34.174123 
L 106.718546 34.174763 
L 108.998993 34.175604 
L 111.27944 34.176713 
L 113.559886 34.178173 
L 115.840333 34.180095 
L 118.12078 34.182626 
L 120.401227 34.185959 
L 122.681674 34.190347 
L 124.96212 34.196124 
L 127.242567 34.203732 
L 129.523014 34.213748 
L 131.803461 34.226936 
L 134.083908 34.244298 
L 136.364355 34.267156 
L 138.644801 34.297245 
L 140.925248 34.336851 
L 143.205695 34.388977 
L 145.486142 34.45757 
L 147.766589 34.547813 
L 150.047036 34.666509 
L 152.327482 34.822572 
L 154.607929 35.027669 
L 156.888376 35.297038 
L 159.168823 35.650535 
L 161.44927 36.113939 
L 163.729717 36.720573 
L 166.010163 37.513257 
L 168.29061 38.54658 
L 170.571057 39.889405 
L 172.851504 41.627393 
L 175.131951 43.865098 
L 177.412397 46.726878 
L 179.692844 50.355447 
L 181.973291 54.906432 
L 184.253738 60.536999 
L 186.534185 67.386869 
L 188.814632 75.551331 
L 191.095078 85.048702 
L 193.375525 95.788803 
L 195.655972 107.552999 
L 197.936419 119.997202 
L 200.216866 132.684324 
L 202.497313 145.14219 
L 204.777759 156.931766 
L 207.058206 167.705631 
L 209.338653 177.241294 
L 211.6191 185.44501 
L 213.899547 192.332338 
L 216.179994 197.99679 
L 218.46044 202.577204 
L 220.740887 206.230546 
L 223.021334 209.112683 
L 225.301781 211.36681 
L 227.582228 213.117858 
L 229.862674 214.470956 
L 232.143121 215.512291 
L 234.423568 216.311187 
L 236.704015 216.922612 
L 238.984462 217.389698 
L 241.264909 217.746015 
L 243.545355 218.017542 
L 245.825802 218.224285 
L 248.106249 218.381604 
L 250.386696 218.501256 
L 252.667143 218.592228 
L 254.94759 218.661375 
L 257.228036 218.713922 
L 259.508483 218.753847 
L 261.78893 218.78418 
L 264.069377 218.807222 
L 266.349824 218.824725 
L 268.63027 218.838019 
L 270.910717 218.848117 
L 273.191164 218.855786 
L 275.471611 218.86161 
L 277.752058 218.866034 
L 280.032505 218.869394 
L 282.312951 218.871945 
L 284.593398 218.873883 
L 286.873845 218.875354 
L 289.154292 218.876472 
L 291.434739 218.877321 
L 293.715186 218.877965 
L 295.995632 218.878455 
L 298.276079 218.878827 
L 300.556526 218.879109 
L 302.836973 218.879323 
L 305.11742 218.879486 
L 307.397867 218.87961 
L 309.678313 218.879704 
L 311.95876 218.879775 
L 314.239207 218.879829 
L 316.519654 218.87987 
L 318.800101 218.879901 
L 321.080547 218.879925 
L 323.360994 218.879943 
" clip-path="url(#p76bdbbfb16)" style="fill: none; stroke: #8b2be2; stroke-width: 2; stroke-linecap: square"/>
   </g>
   <g id="line2d_22">
    <path d="M 69.724631 56.155757 
L 97.596759 56.155758 
L 99.877205 56.155758 
L 102.157652 56.155758 
L 104.438099 56.155758 
L 106.718546 56.155758 
L 108.998993 56.155758 
L 111.27944 56.155758 
L 113.559886 56.155758 
L 115.840333 56.155758 
L 118.12078 56.155758 
L 120.401227 56.155758 
L 122.681674 56.155759 
L 124.96212 56.155759 
L 127.242567 56.15576 
L 129.523014 56.15576 
L 131.803461 56.155761 
L 134.083908 56.155762 
L 136.364355 56.155764 
L 138.644801 56.155766 
L 140.925248 56.155768 
L 143.205695 56.155772 
L 145.486142 56.155776 
L 147.766589 56.155782 
L 150.047036 56.15579 
L 152.327482 56.155801 
L 154.607929 56.155814 
L 156.888376 56.155833 
L 159.168823 56.155856 
L 161.44927 56.155888 
L 163.729717 56.155929 
L 166.010163 56.155983 
L 168.29061 56.156055 
L 170.571057 56.156149 
L 172.851504 56.156273 
L 175.131951 56.156436 
L 177.412397 56.156651 
L 179.692844 56.156934 
L 181.973291 56.157306 
L 184.253738 56.157797 
L 186.534185 56.158443 
L 188.814632 56.159293 
L 191.095078 56.160413 
L 193.375525 56.161888 
L 195.655972 56.16383 
L 197.936419 56.166387 
L 200.216866 56.169753 
L 202.497313 56.174186 
L 204.777759 56.180023 
L 207.058206 56.187708 
L 209.338653 56.197827 
L 211.6191 56.211149 
L 213.899547 56.228687 
L 216.179994 56.251776 
L 218.46044 56.282169 
L 220.740887 56.322171 
L 223.021334 56.374816 
L 225.301781 56.444085 
L 227.582228 56.535206 
L 229.862674 56.655037 
L 232.143121 56.812557 
L 234.423568 57.019509 
L 236.704015 57.291213 
L 238.984462 57.647598 
L 241.264909 58.114485 
L 243.545355 58.725161 
L 245.825802 59.522241 
L 248.106249 60.559792 
L 250.386696 61.905578 
L 252.667143 63.643161 
L 254.94759 65.873332 
L 257.228036 68.714036 
L 259.508483 72.297546 
L 261.78893 76.763285 
L 264.069377 82.244611 
L 266.349824 88.848505 
L 268.63027 96.628885 
L 270.910717 105.557411 
L 273.191164 115.49948 
L 275.471611 126.205577 
L 277.752058 137.32662 
L 280.032505 148.454814 
L 282.312951 159.181326 
L 284.593398 169.154257 
L 286.873845 178.120289 
L 289.154292 185.940917 
L 291.434739 192.584508 
L 293.715186 198.102647 
L 295.995632 202.600972 
L 298.276079 206.212317 
L 300.556526 209.076152 
L 302.836973 211.325145 
L 305.11742 213.077797 
L 307.397867 214.435496 
L 309.678313 215.482377 
L 311.95876 216.28671 
L 314.239207 216.902993 
L 316.519654 217.374196 
L 318.800101 217.733893 
L 321.080547 218.008132 
L 323.360994 218.217021 
" clip-path="url(#p76bdbbfb16)" style="fill: none; stroke: #9f4800; stroke-width: 2; stroke-linecap: square"/>
   </g>
   <g id="line2d_23">
    <path d="M 69.724631 48.592982 
L 97.596759 48.593119 
L 99.877205 48.593163 
L 102.157652 48.59322 
L 104.438099 48.593296 
L 106.718546 48.593395 
L 108.998993 48.593526 
L 111.27944 48.593699 
L 113.559886 48.593926 
L 115.840333 48.594225 
L 118.12078 48.594618 
L 120.401227 48.595137 
L 122.681674 48.595819 
L 124.96212 48.596718 
L 127.242567 48.597902 
L 129.523014 48.599461 
L 131.803461 48.601513 
L 134.083908 48.604215 
L 136.364355 48.607773 
L 138.644801 48.612458 
L 140.925248 48.618627 
L 143.205695 48.626749 
L 145.486142 48.637443 
L 147.766589 48.651523 
L 150.047036 48.670059 
L 152.327482 48.69446 
L 154.607929 48.726581 
L 156.888376 48.768858 
L 159.168823 48.824495 
L 161.44927 48.897701 
L 163.729717 48.994 
L 166.010163 49.120639 
L 168.29061 49.287105 
L 170.571057 49.505807 
L 172.851504 49.792928 
L 175.131951 50.16952 
L 177.412397 50.662855 
L 179.692844 51.308082 
L 181.973291 52.150187 
L 184.253738 53.246224 
L 186.534185 54.667664 
L 188.814632 56.502582 
L 191.095078 58.85711 
L 193.375525 61.855287 
L 195.655972 65.635966 
L 197.936419 70.345104 
L 200.216866 76.121678 
L 202.497313 83.076163 
L 204.777759 91.262414 
L 207.058206 100.647155 
L 209.338653 111.085231 
L 211.6191 122.311349 
L 213.899547 133.957106 
L 216.179994 145.594615 
L 218.46044 156.797185 
L 220.740887 167.199662 
L 223.021334 176.541139 
L 225.301781 184.680965 
L 227.582228 191.58966 
L 229.862674 197.32377 
L 232.143121 201.995319 
L 234.423568 205.743892 
L 236.704015 208.715387 
L 238.984462 211.048204 
L 241.264909 212.865741 
L 243.545355 214.273439 
L 245.825802 215.358714 
L 248.106249 216.192453 
L 250.386696 216.831212 
L 252.667143 217.319568 
L 254.94759 217.69234 
L 257.228036 217.976537 
L 259.508483 218.193004 
L 261.78893 218.357767 
L 264.069377 218.483106 
L 266.349824 218.578417 
L 268.63027 218.650871 
L 270.910717 218.705936 
L 273.191164 218.747777 
L 275.471611 218.779567 
L 277.752058 218.803717 
L 280.032505 218.822062 
L 282.312951 218.835997 
L 284.593398 218.84658 
L 286.873845 218.854619 
L 289.154292 218.860724 
L 291.434739 218.865361 
L 293.715186 218.868882 
L 295.995632 218.871557 
L 298.276079 218.873588 
L 300.556526 218.87513 
L 302.836973 218.876302 
L 305.11742 218.877192 
L 307.397867 218.877867 
L 309.678313 218.87838 
L 311.95876 218.87877 
L 314.239207 218.879066 
L 316.519654 218.879291 
L 318.800101 218.879461 
L 321.080547 218.879591 
L 323.360994 218.879689 
" clip-path="url(#p76bdbbfb16)" style="fill: none; stroke: #f14cc1; stroke-width: 2; stroke-linecap: square"/>
   </g>
   <g id="line2d_24">
    <path d="M 69.724631 66.078002 
L 97.596759 66.078002 
L 99.877205 66.078002 
L 102.157652 66.078002 
L 104.438099 66.078002 
L 106.718546 66.078002 
L 108.998993 66.078002 
L 111.27944 66.078002 
L 113.559886 66.078002 
L 115.840333 66.078002 
L 118.12078 66.078002 
L 120.401227 66.078003 
L 122.681674 66.078003 
L 124.96212 66.078003 
L 127.242567 66.078004 
L 129.523014 66.078004 
L 131.803461 66.078005 
L 134.083908 66.078006 
L 136.364355 66.078007 
L 138.644801 66.078008 
L 140.925248 66.07801 
L 143.205695 66.078013 
L 145.486142 66.078016 
L 147.766589 66.078021 
L 150.047036 66.078027 
L 152.327482 66.078035 
L 154.607929 66.078045 
L 156.888376 66.078059 
L 159.168823 66.078077 
L 161.44927 66.078101 
L 163.729717 66.078132 
L 166.010163 66.078173 
L 168.29061 66.078227 
L 170.571057 66.078299 
L 172.851504 66.078393 
L 175.131951 66.078517 
L 177.412397 66.07868 
L 179.692844 66.078894 
L 181.973291 66.079177 
L 184.253738 66.079549 
L 186.534185 66.08004 
L 188.814632 66.080685 
L 191.095078 66.081535 
L 193.375525 66.082654 
L 195.655972 66.084128 
L 197.936419 66.086068 
L 200.216866 66.088624 
L 202.497313 66.091988 
L 204.777759 66.096418 
L 207.058206 66.10225 
L 209.338653 66.10993 
L 211.6191 66.120041 
L 213.899547 66.133353 
L 216.179994 66.150879 
L 218.46044 66.17395 
L 220.740887 66.204318 
L 223.021334 66.244289 
L 225.301781 66.296888 
L 227.582228 66.366095 
L 229.862674 66.457129 
L 232.143121 66.576834 
L 234.423568 66.734172 
L 236.704015 66.940856 
L 238.984462 67.212156 
L 241.264909 67.567923 
L 243.545355 68.03385 
L 245.825802 68.64301 
L 248.106249 69.437671 
L 250.386696 70.471326 
L 252.667143 71.810802 
L 254.94759 73.538139 
L 257.228036 75.751704 
L 259.508483 78.565642 
L 261.78893 82.106449 
L 264.069377 86.505074 
L 266.349824 91.883053 
L 268.63027 98.331939 
L 270.910717 105.887262 
L 273.191164 114.501465 
L 275.471611 124.023757 
L 277.752058 134.196544 
L 280.032505 144.675444 
L 282.312951 155.072284 
L 284.593398 165.010816 
L 286.873845 174.178896 
L 289.154292 182.362584 
L 291.434739 189.455845 
L 293.715186 195.448915 
L 295.995632 200.404119 
L 298.276079 204.428457 
L 300.556526 207.649517 
L 302.836973 210.197699 
L 305.11742 212.195003 
L 307.397867 213.749199 
L 309.678313 214.951774 
L 311.95876 215.878214 
L 314.239207 216.589523 
L 316.519654 217.134243 
L 318.800101 217.550562 
L 321.080547 217.868265 
L 323.360994 218.11043 
" clip-path="url(#p76bdbbfb16)" style="fill: none; stroke: #ffc400; stroke-width: 2; stroke-linecap: square"/>
   </g>
   <g id="line2d_25">
    <path d="M 69.724631 25.688494 
L 97.596759 25.690245 
L 99.877205 25.6908 
L 102.157652 25.69153 
L 104.438099 25.692491 
L 106.718546 25.693758 
L 108.998993 25.695425 
L 111.27944 25.69762 
L 113.559886 25.700511 
L 115.840333 25.704317 
L 118.12078 25.709328 
L 120.401227 25.715927 
L 122.681674 25.724615 
L 124.96212 25.736054 
L 127.242567 25.751115 
L 129.523014 25.770942 
L 131.803461 25.797045 
L 134.083908 25.831406 
L 136.364355 25.876632 
L 138.644801 25.936153 
L 140.925248 26.014472 
L 143.205695 26.117503 
L 145.486142 26.253005 
L 147.766589 26.431139 
L 150.047036 26.6652 
L 152.327482 26.972538 
L 154.607929 27.375737 
L 156.888376 27.904081 
L 159.168823 28.59536 
L 161.44927 29.49802 
L 163.729717 30.673637 
L 166.010163 32.199576 
L 168.29061 34.171547 
L 170.571057 36.705512 
L 172.851504 39.938001 
L 175.131951 44.023474 
L 177.412397 49.126867 
L 179.692844 55.409304 
L 181.973291 63.005505 
L 184.253738 71.99324 
L 186.534185 82.358658 
L 188.814632 93.965843 
L 191.095078 106.542421 
L 193.375525 119.692245 
L 195.655972 132.938916 
L 197.936419 145.791962 
L 200.216866 157.817185 
L 202.497313 168.690681 
L 204.777759 178.223715 
L 207.058206 186.357832 
L 209.338653 193.139181 
L 211.6191 198.684257 
L 213.899547 203.147048 
L 216.179994 206.693137 
L 218.46044 209.482291 
L 220.740887 211.658571 
L 223.021334 213.346052 
L 225.301781 214.648181 
L 227.582228 215.649196 
L 229.862674 216.416513 
L 232.143121 217.003392 
L 234.423568 217.451506 
L 236.704015 217.793222 
L 238.984462 218.053548 
L 241.264909 218.251719 
L 243.545355 218.40249 
L 245.825802 218.517148 
L 248.106249 218.604314 
L 250.386696 218.670563 
L 252.667143 218.720905 
L 254.94759 218.759155 
L 257.228036 218.788212 
L 259.508483 218.810286 
L 261.78893 218.827052 
L 264.069377 218.839787 
L 266.349824 218.849459 
L 268.63027 218.856806 
L 270.910717 218.862385 
L 273.191164 218.866622 
L 275.471611 218.86984 
L 277.752058 218.872284 
L 280.032505 218.87414 
L 282.312951 218.87555 
L 284.593398 218.876621 
L 286.873845 218.877434 
L 289.154292 218.878051 
L 291.434739 218.87852 
L 293.715186 218.878876 
L 295.995632 218.879146 
L 298.276079 218.879352 
L 300.556526 218.879508 
L 302.836973 218.879626 
L 305.11742 218.879716 
L 307.397867 218.879784 
L 309.678313 218.879836 
L 311.95876 218.879876 
L 314.239207 218.879906 
L 316.519654 218.879928 
L 318.800101 218.879946 
L 321.080547 218.879959 
L 323.360994 218.879969 
" clip-path="url(#p76bdbbfb16)" style="fill: none; stroke: #a3a3a3; stroke-width: 2; stroke-linecap: square"/>
   </g>
   <g id="line2d_26">
    <path d="M 69.724631 50.722459 
L 97.596759 50.722459 
L 99.877205 50.72246 
L 102.157652 50.72246 
L 104.438099 50.72246 
L 106.718546 50.722461 
L 108.998993 50.722461 
L 111.27944 50.722462 
L 113.559886 50.722463 
L 115.840333 50.722464 
L 118.12078 50.722465 
L 120.401227 50.722467 
L 122.681674 50.72247 
L 124.96212 50.722473 
L 127.242567 50.722478 
L 129.523014 50.722484 
L 131.803461 50.722492 
L 134.083908 50.722502 
L 136.364355 50.722516 
L 138.644801 50.722534 
L 140.925248 50.722558 
L 143.205695 50.72259 
L 145.486142 50.722631 
L 147.766589 50.722686 
L 150.047036 50.722757 
L 152.327482 50.722852 
L 154.607929 50.722976 
L 156.888376 50.72314 
L 159.168823 50.723356 
L 161.44927 50.72364 
L 163.729717 50.724014 
L 166.010163 50.724507 
L 168.29061 50.725156 
L 170.571057 50.72601 
L 172.851504 50.727135 
L 175.131951 50.728616 
L 177.412397 50.730567 
L 179.692844 50.733135 
L 181.973291 50.736517 
L 184.253738 50.740969 
L 186.534185 50.746832 
L 188.814632 50.754551 
L 191.095078 50.764715 
L 193.375525 50.778096 
L 195.655972 50.795713 
L 197.936419 50.818904 
L 200.216866 50.849432 
L 202.497313 50.889614 
L 204.777759 50.942495 
L 207.058206 51.012076 
L 209.338653 51.103612 
L 211.6191 51.223991 
L 213.899547 51.382239 
L 216.179994 51.590162 
L 218.46044 51.863162 
L 220.740887 52.221286 
L 223.021334 52.690518 
L 225.301781 53.304375 
L 227.582228 54.105801 
L 229.862674 55.149339 
L 232.143121 56.503448 
L 234.423568 58.252706 
L 236.704015 60.499399 
L 238.984462 63.363653 
L 241.264909 66.98088 
L 243.545355 71.494909 
L 245.825802 77.045043 
L 248.106249 83.745835 
L 250.386696 91.660072 
L 252.667143 100.768572 
L 254.94759 110.944352 
L 257.228036 121.941569 
L 259.508483 133.408573 
L 261.78893 144.927634 
L 264.069377 156.073456 
L 266.349824 166.473921 
L 268.63027 175.85548 
L 270.910717 184.062751 
L 273.191164 191.052583 
L 275.471611 196.870776 
L 277.752058 201.622096 
L 280.032505 205.44202 
L 282.312951 208.47473 
L 284.593398 210.858497 
L 286.873845 212.717495 
L 289.154292 214.158369 
L 291.434739 215.269856 
L 293.715186 216.124108 
L 295.995632 216.778803 
L 298.276079 217.279472 
L 300.556526 217.661718 
L 302.836973 217.953183 
L 305.11742 218.175211 
L 307.397867 218.34422 
L 309.678313 218.4728 
L 311.95876 218.570579 
L 314.239207 218.644911 
L 316.519654 218.701406 
L 318.800101 218.744335 
L 321.080547 218.776952 
L 323.360994 218.801731 
" clip-path="url(#p76bdbbfb16)" style="fill: none; stroke-dasharray: 7.4,3.2; stroke-dashoffset: 0; stroke: #023eff; stroke-width: 2"/>
   </g>
   <g id="line2d_27">
    <path d="M 69.724631 59.065786 
L 97.596759 59.066965 
L 99.877205 59.067339 
L 102.157652 59.067831 
L 104.438099 59.068478 
L 106.718546 59.069331 
L 108.998993 59.070454 
L 111.27944 59.071933 
L 113.559886 59.07388 
L 115.840333 59.076444 
L 118.12078 59.079819 
L 120.401227 59.084264 
L 122.681674 59.090117 
L 124.96212 59.097822 
L 127.242567 59.107968 
L 129.523014 59.121325 
L 131.803461 59.138911 
L 134.083908 59.162061 
L 136.364355 59.192534 
L 138.644801 59.232642 
L 140.925248 59.285425 
L 143.205695 59.354874 
L 145.486142 59.446232 
L 147.766589 59.56637 
L 150.047036 59.724288 
L 152.327482 59.931753 
L 154.607929 60.204115 
L 156.888376 60.561333 
L 159.168823 61.029262 
L 161.44927 61.641216 
L 163.729717 62.43982 
L 166.010163 63.479109 
L 168.29061 64.826737 
L 170.571057 66.566008 
L 172.851504 68.797207 
L 175.131951 71.63737 
L 177.412397 75.217243 
L 179.692844 79.673841 
L 181.973291 85.136972 
L 184.253738 91.708753 
L 186.534185 99.437045 
L 188.814632 108.286854 
L 191.095078 118.117527 
L 193.375525 128.675799 
L 195.655972 139.612808 
L 197.936419 150.525892 
L 200.216866 161.015869 
L 202.497313 170.743284 
L 204.777759 179.467609 
L 207.058206 187.061243 
L 209.338653 193.500207 
L 211.6191 198.840167 
L 213.899547 203.187737 
L 216.179994 206.674479 
L 218.46044 209.437245 
L 220.740887 211.605467 
L 223.021334 213.294322 
L 225.301781 214.602088 
L 227.582228 215.61016 
L 229.862674 216.384495 
L 232.143121 216.977688 
L 234.423568 217.431174 
L 236.704015 217.77731 
L 238.984462 218.04119 
L 241.264909 218.242175 
L 243.545355 218.39515 
L 245.825802 218.51152 
L 248.106249 218.60001 
L 250.386696 218.667277 
L 252.667143 218.718399 
L 254.94759 218.757245 
L 257.228036 218.786759 
L 259.508483 218.80918 
L 261.78893 218.826211 
L 264.069377 218.839148 
L 266.349824 218.848974 
L 268.63027 218.856436 
L 270.910717 218.862104 
L 273.191164 218.866409 
L 275.471611 218.869679 
L 277.752058 218.872161 
L 280.032505 218.874047 
L 282.312951 218.875479 
L 284.593398 218.876567 
L 286.873845 218.877393 
L 289.154292 218.87802 
L 291.434739 218.878496 
L 293.715186 218.878858 
L 295.995632 218.879133 
L 298.276079 218.879341 
L 300.556526 218.8795 
L 302.836973 218.87962 
L 305.11742 218.879712 
L 307.397867 218.879781 
L 309.678313 218.879834 
L 311.95876 218.879874 
L 314.239207 218.879904 
L 316.519654 218.879927 
L 318.800101 218.879945 
L 321.080547 218.879958 
L 323.360994 218.879968 
" clip-path="url(#p76bdbbfb16)" style="fill: none; stroke-dasharray: 7.4,3.2; stroke-dashoffset: 0; stroke: #ff7c00; stroke-width: 2"/>
   </g>
   <g id="line2d_28">
    <path d="M 69.724631 59.517414 
L 97.596759 59.517415 
L 99.877205 59.517415 
L 102.157652 59.517415 
L 104.438099 59.517415 
L 106.718546 59.517416 
L 108.998993 59.517416 
L 111.27944 59.517417 
L 113.559886 59.517417 
L 115.840333 59.517418 
L 118.12078 59.517419 
L 120.401227 59.517421 
L 122.681674 59.517423 
L 124.96212 59.517426 
L 127.242567 59.51743 
L 129.523014 59.517435 
L 131.803461 59.517441 
L 134.083908 59.51745 
L 136.364355 59.517461 
L 138.644801 59.517476 
L 140.925248 59.517496 
L 143.205695 59.517522 
L 145.486142 59.517556 
L 147.766589 59.5176 
L 150.047036 59.517659 
L 152.327482 59.517737 
L 154.607929 59.517839 
L 156.888376 59.517974 
L 159.168823 59.518151 
L 161.44927 59.518385 
L 163.729717 59.518692 
L 166.010163 59.519097 
L 168.29061 59.519631 
L 170.571057 59.520333 
L 172.851504 59.521257 
L 175.131951 59.522474 
L 177.412397 59.524077 
L 179.692844 59.526188 
L 181.973291 59.528967 
L 184.253738 59.532626 
L 186.534185 59.537444 
L 188.814632 59.543788 
L 191.095078 59.55214 
L 193.375525 59.563137 
L 195.655972 59.577616 
L 197.936419 59.596677 
L 200.216866 59.621769 
L 202.497313 59.654797 
L 204.777759 59.698266 
L 207.058206 59.75547 
L 209.338653 59.830732 
L 211.6191 59.929725 
L 213.899547 60.05989 
L 216.179994 60.230963 
L 218.46044 60.455665 
L 220.740887 60.750578 
L 223.021334 61.137241 
L 225.301781 61.643514 
L 227.582228 62.305224 
L 229.862674 63.168098 
L 232.143121 64.289905 
L 234.423568 65.742648 
L 236.704015 67.614442 
L 238.984462 70.010481 
L 241.264909 73.052104 
L 243.545355 76.872617 
L 245.825802 81.6082 
L 248.106249 87.382395 
L 250.386696 94.283626 
L 252.667143 102.337488 
L 254.94759 111.479002 
L 257.228036 121.533601 
L 259.508483 132.216819 
L 261.78893 143.159126 
L 264.069377 153.95371 
L 266.349824 164.215175 
L 268.63027 173.631905 
L 270.910717 181.997919 
L 273.191164 189.219174 
L 275.471611 195.29877 
L 277.752058 200.310637 
L 280.032505 204.371123 
L 282.312951 207.614761 
L 284.593398 210.176814 
L 286.873845 212.18253 
L 289.154292 213.741778 
L 291.434739 214.947366 
L 293.715186 215.875596 
L 295.995632 216.587964 
L 298.276079 217.133311 
L 300.556526 217.550001 
L 302.836973 217.867924 
L 305.11742 218.110221 
L 307.397867 218.294725 
L 309.678313 218.435131 
L 311.95876 218.541925 
L 314.239207 218.623124 
L 316.519654 218.684844 
L 318.800101 218.731749 
L 321.080547 218.767388 
L 323.360994 218.794464 
" clip-path="url(#p76bdbbfb16)" style="fill: none; stroke-dasharray: 7.4,3.2; stroke-dashoffset: 0; stroke: #1ac938; stroke-width: 2"/>
   </g>
   <g id="line2d_29">
    <path d="M 69.724631 30.067757 
L 97.596759 30.067808 
L 99.877205 30.067824 
L 102.157652 30.067845 
L 104.438099 30.067873 
L 106.718546 30.067909 
L 108.998993 30.067957 
L 111.27944 30.068021 
L 113.559886 30.068104 
L 115.840333 30.068214 
L 118.12078 30.068359 
L 120.401227 30.068549 
L 122.681674 30.0688 
L 124.96212 30.06913 
L 127.242567 30.069565 
L 129.523014 30.070138 
L 131.803461 30.070892 
L 134.083908 30.071885 
L 136.364355 30.073192 
L 138.644801 30.074914 
L 140.925248 30.07718 
L 143.205695 30.080165 
L 145.486142 30.084095 
L 147.766589 30.08927 
L 150.047036 30.096083 
L 152.327482 30.105055 
L 154.607929 30.116866 
L 156.888376 30.132417 
L 159.168823 30.152891 
L 161.44927 30.179843 
L 163.729717 30.215321 
L 166.010163 30.262017 
L 168.29061 30.323469 
L 170.571057 30.404328 
L 172.851504 30.510694 
L 175.131951 30.650572 
L 177.412397 30.834442 
L 179.692844 31.076011 
L 181.973291 31.393157 
L 184.253738 31.809136 
L 186.534185 32.354079 
L 188.814632 33.066821 
L 191.095078 33.997074 
L 193.375525 35.207892 
L 195.655972 36.778281 
L 197.936419 38.805623 
L 200.216866 41.407313 
L 202.497313 44.720619 
L 204.777759 48.899314 
L 207.058206 54.105211 
L 209.338653 60.492662 
L 211.6191 68.184804 
L 213.899547 77.242469 
L 216.179994 87.630329 
L 218.46044 99.189302 
L 220.740887 111.627039 
L 223.021334 124.536393 
L 225.301781 137.443409 
L 227.582228 149.874474 
L 229.862674 161.423359 
L 232.143121 171.79896 
L 234.423568 180.843469 
L 236.704015 188.522636 
L 238.984462 194.898054 
L 241.264909 200.093301 
L 243.545355 204.262898 
L 245.825802 207.568643 
L 248.106249 210.164181 
L 250.386696 212.186598 
L 252.667143 213.753093 
L 254.94759 214.960861 
L 257.228036 215.888744 
L 259.508483 216.599653 
L 261.78893 217.143185 
L 264.069377 217.558082 
L 266.349824 217.874399 
L 268.63027 218.115335 
L 270.910717 218.298723 
L 273.191164 218.438232 
L 275.471611 218.544318 
L 277.752058 218.624964 
L 280.032505 218.686254 
L 282.312951 218.732827 
L 284.593398 218.768211 
L 286.873845 218.795092 
L 289.154292 218.815511 
L 291.434739 218.831021 
L 293.715186 218.842801 
L 295.995632 218.851749 
L 298.276079 218.858544 
L 300.556526 218.863706 
L 302.836973 218.867625 
L 305.11742 218.870602 
L 307.397867 218.872863 
L 309.678313 218.87458 
L 311.95876 218.875884 
L 314.239207 218.876874 
L 316.519654 218.877626 
L 318.800101 218.878197 
L 321.080547 218.878631 
L 323.360994 218.87896 
" clip-path="url(#p76bdbbfb16)" style="fill: none; stroke-dasharray: 7.4,3.2; stroke-dashoffset: 0; stroke: #e8000b; stroke-width: 2"/>
   </g>
   <g id="line2d_30">
    <path d="M 69.724631 57.380413 
L 97.596759 57.380477 
L 99.877205 57.380498 
L 102.157652 57.380524 
L 104.438099 57.38056 
L 106.718546 57.380606 
L 108.998993 57.380667 
L 111.27944 57.380747 
L 113.559886 57.380853 
L 115.840333 57.380992 
L 118.12078 57.381175 
L 120.401227 57.381417 
L 122.681674 57.381734 
L 124.96212 57.382153 
L 127.242567 57.382704 
L 129.523014 57.383429 
L 131.803461 57.384385 
L 134.083908 57.385643 
L 136.364355 57.387299 
L 138.644801 57.38948 
L 140.925248 57.392352 
L 143.205695 57.396134 
L 145.486142 57.401113 
L 147.766589 57.407669 
L 150.047036 57.416301 
L 152.327482 57.427665 
L 154.607929 57.442628 
L 156.888376 57.462326 
L 159.168823 57.488256 
L 161.44927 57.522388 
L 163.729717 57.56731 
L 166.010163 57.626423 
L 168.29061 57.704196 
L 170.571057 57.806492 
L 172.851504 57.940994 
L 175.131951 58.11776 
L 177.412397 58.349929 
L 179.692844 58.654623 
L 181.973291 59.054076 
L 184.253738 59.577037 
L 186.534185 60.26046 
L 188.814632 61.151479 
L 191.095078 62.309593 
L 193.375525 63.808874 
L 195.655972 65.739834 
L 197.936419 68.210304 
L 200.216866 71.344301 
L 202.497313 75.277498 
L 204.777759 80.147595 
L 207.058206 86.07809 
L 209.338653 93.155032 
L 211.6191 101.398711 
L 213.899547 110.735847 
L 216.179994 120.981338 
L 218.46044 131.839631 
L 220.740887 142.93173 
L 223.021334 153.84492 
L 225.301781 164.192384 
L 227.582228 173.665179 
L 229.862674 182.062716 
L 232.143121 189.297386 
L 234.423568 195.378394 
L 236.704015 200.384647 
L 238.984462 204.436099 
L 241.264909 207.669643 
L 243.545355 210.221915 
L 245.825802 212.218864 
L 248.106249 213.770623 
L 250.386696 214.970017 
L 252.667143 215.893238 
L 254.94759 216.60162 
L 257.228036 217.143833 
L 259.508483 217.55808 
L 261.78893 217.874111 
L 264.069377 218.114949 
L 266.349824 218.298333 
L 268.63027 218.437881 
L 270.910717 218.544019 
L 273.191164 218.624718 
L 275.471611 218.686057 
L 277.752058 218.732671 
L 280.032505 218.768089 
L 282.312951 218.794997 
L 284.593398 218.815438 
L 286.873845 218.830965 
L 289.154292 218.842758 
L 291.434739 218.851716 
L 293.715186 218.858519 
L 295.995632 218.863686 
L 298.276079 218.867611 
L 300.556526 218.870591 
L 302.836973 218.872854 
L 305.11742 218.874573 
L 307.397867 218.875879 
L 309.678313 218.87687 
L 311.95876 218.877623 
L 314.239207 218.878195 
L 316.519654 218.878629 
L 318.800101 218.878959 
L 321.080547 218.879209 
L 323.360994 218.8794 
" clip-path="url(#p76bdbbfb16)" style="fill: none; stroke-dasharray: 7.4,3.2; stroke-dashoffset: 0; stroke: #8b2be2; stroke-width: 2"/>
   </g>
   <g id="line2d_31">
    <path d="M 69.724631 71.936208 
L 97.596759 71.93623 
L 99.877205 71.936237 
L 102.157652 71.936246 
L 104.438099 71.936258 
L 106.718546 71.936274 
L 108.998993 71.936295 
L 111.27944 71.936323 
L 113.559886 71.936359 
L 115.840333 71.936407 
L 118.12078 71.93647 
L 120.401227 71.936552 
L 122.681674 71.936662 
L 124.96212 71.936805 
L 127.242567 71.936994 
L 129.523014 71.937244 
L 131.803461 71.937572 
L 134.083908 71.938004 
L 136.364355 71.938573 
L 138.644801 71.939322 
L 140.925248 71.940308 
L 143.205695 71.941607 
L 145.486142 71.943317 
L 147.766589 71.945569 
L 150.047036 71.948534 
L 152.327482 71.952438 
L 154.607929 71.957579 
L 156.888376 71.964347 
L 159.168823 71.973258 
L 161.44927 71.984991 
L 163.729717 72.000438 
L 166.010163 72.020772 
L 168.29061 72.047539 
L 170.571057 72.082771 
L 172.851504 72.129138 
L 175.131951 72.190147 
L 177.412397 72.270405 
L 179.692844 72.375953 
L 181.973291 72.514704 
L 184.253738 72.697008 
L 186.534185 72.936369 
L 188.814632 73.25036 
L 191.095078 73.66176 
L 193.375525 74.199948 
L 195.655972 74.902565 
L 197.936419 75.817409 
L 200.216866 77.004465 
L 202.497313 78.537825 
L 204.777759 80.507067 
L 207.058206 83.017346 
L 209.338653 86.187129 
L 211.6191 90.142132 
L 213.899547 95.003939 
L 216.179994 100.872247 
L 218.46044 107.801203 
L 220.740887 115.773005 
L 223.021334 124.67543 
L 225.301781 134.292394 
L 227.582228 144.31564 
L 229.862674 154.379725 
L 232.143121 164.113267 
L 234.423568 173.191953 
L 236.704015 181.37796 
L 238.984462 188.53679 
L 241.264909 194.631838 
L 243.545355 199.703922 
L 245.825802 203.845065 
L 248.106249 207.173849 
L 250.386696 209.81627 
L 252.667143 211.893036 
L 254.94759 213.512478 
L 257.228036 214.767595 
L 259.508483 215.735738 
L 261.78893 216.479792 
L 264.069377 217.050014 
L 266.349824 217.486074 
L 268.63027 217.818986 
L 270.910717 218.07283 
L 273.191164 218.266198 
L 275.471611 218.41339 
L 277.752058 218.525371 
L 280.032505 218.610527 
L 282.312951 218.675263 
L 284.593398 218.724464 
L 286.873845 218.761851 
L 289.154292 218.790256 
L 291.434739 218.811836 
L 293.715186 218.828228 
L 295.995632 218.84068 
L 298.276079 218.850137 
L 300.556526 218.85732 
L 302.836973 218.862775 
L 305.11742 218.866919 
L 307.397867 218.870065 
L 309.678313 218.872455 
L 311.95876 218.87427 
L 314.239207 218.875649 
L 316.519654 218.876695 
L 318.800101 218.87749 
L 321.080547 218.878094 
L 323.360994 218.878553 
" clip-path="url(#p76bdbbfb16)" style="fill: none; stroke-dasharray: 7.4,3.2; stroke-dashoffset: 0; stroke: #9f4800; stroke-width: 2"/>
   </g>
   <g id="line2d_32">
    <path d="M 69.724631 50.96087 
L 97.596759 50.96087 
L 99.877205 50.96087 
L 102.157652 50.96087 
L 104.438099 50.96087 
L 106.718546 50.96087 
L 108.998993 50.96087 
L 111.27944 50.960871 
L 113.559886 50.960871 
L 115.840333 50.960871 
L 118.12078 50.960872 
L 120.401227 50.960873 
L 122.681674 50.960874 
L 124.96212 50.960875 
L 127.242567 50.960877 
L 129.523014 50.960879 
L 131.803461 50.960882 
L 134.083908 50.960886 
L 136.364355 50.960891 
L 138.644801 50.960898 
L 140.925248 50.960907 
L 143.205695 50.960919 
L 145.486142 50.960934 
L 147.766589 50.960955 
L 150.047036 50.960982 
L 152.327482 50.961017 
L 154.607929 50.961064 
L 156.888376 50.961125 
L 159.168823 50.961206 
L 161.44927 50.961313 
L 163.729717 50.961453 
L 166.010163 50.961638 
L 168.29061 50.961882 
L 170.571057 50.962202 
L 172.851504 50.962624 
L 175.131951 50.96318 
L 177.412397 50.963912 
L 179.692844 50.964876 
L 181.973291 50.966145 
L 184.253738 50.967816 
L 186.534185 50.970016 
L 188.814632 50.972913 
L 191.095078 50.976728 
L 193.375525 50.981751 
L 195.655972 50.988364 
L 197.936419 50.997072 
L 200.216866 51.008537 
L 202.497313 51.023631 
L 204.777759 51.043503 
L 207.058206 51.069661 
L 209.338653 51.104094 
L 211.6191 51.149413 
L 213.899547 51.209051 
L 216.179994 51.287515 
L 218.46044 51.390723 
L 220.740887 51.52643 
L 223.021334 51.704791 
L 225.301781 51.939073 
L 227.582228 52.246569 
L 229.862674 52.649748 
L 232.143121 53.177677 
L 234.423568 53.867747 
L 236.704015 54.767693 
L 238.984462 55.937852 
L 241.264909 57.453469 
L 243.545355 59.406707 
L 245.825802 61.907711 
L 248.106249 65.083731 
L 250.386696 69.07488 
L 252.667143 74.024791 
L 254.94759 80.064549 
L 257.228036 87.289282 
L 259.508483 95.729091 
L 261.78893 105.319676 
L 264.069377 115.881731 
L 266.349824 127.119698 
L 268.63027 138.646866 
L 270.910717 150.03497 
L 273.191164 160.875919 
L 275.471611 170.837559 
L 277.752058 179.698244 
L 280.032505 187.354483 
L 282.312951 193.806052 
L 284.593398 199.128528 
L 286.873845 203.443289 
L 289.154292 206.891743 
L 291.434739 209.616636 
L 293.715186 211.750488 
L 295.995632 213.409747 
L 298.276079 214.6929 
L 300.556526 215.680993 
L 302.836973 216.439386 
L 305.11742 217.020016 
L 307.397867 217.463694 
L 309.678313 217.802225 
L 311.95876 218.060237 
L 314.239207 218.256714 
L 316.519654 218.406234 
L 318.800101 218.519962 
L 321.080547 218.606435 
L 323.360994 218.672164 
" clip-path="url(#p76bdbbfb16)" style="fill: none; stroke-dasharray: 7.4,3.2; stroke-dashoffset: 0; stroke: #f14cc1; stroke-width: 2"/>
   </g>
   <g id="patch_3">
    <path d="M 57.042813 228.96 
L 57.042813 7.2 
" style="fill: none; stroke: #000000; stroke-width: 0.8; stroke-linejoin: miter; stroke-linecap: square"/>
   </g>
   <g id="patch_4">
    <path d="M 57.042813 228.96 
L 336.042812 228.96 
" style="fill: none; stroke: #000000; stroke-width: 0.8; stroke-linejoin: miter; stroke-linecap: square"/>
   </g>
   <g id="legend_1">
    <g id="line2d_33">
     <path d="M 353.992813 21.384438 
L 363.992813 21.384438 
L 373.992813 21.384438 
" style="fill: none; stroke: #023eff; stroke-width: 2; stroke-linecap: square"/>
    </g>
    <g id="text_19">
     <!-- 0000 -->
     <g transform="translate(381.992813 24.884438)scale(0.1 -0.1)">
      <use xlink:href="#DejaVuSans-30"/>
      <use xlink:href="#DejaVuSans-30" x="63.623047"/>
      <use xlink:href="#DejaVuSans-30" x="127.246094"/>
      <use xlink:href="#DejaVuSans-30" x="190.869141"/>
     </g>
    </g>
    <g id="line2d_34">
     <path d="M 353.992813 36.062563 
L 363.992813 36.062563 
L 373.992813 36.062563 
" style="fill: none; stroke: #ff7c00; stroke-width: 2; stroke-linecap: square"/>
    </g>
    <g id="text_20">
     <!-- 0001 -->
     <g transform="translate(381.992813 39.562563)scale(0.1 -0.1)">
      <use xlink:href="#DejaVuSans-30"/>
      <use xlink:href="#DejaVuSans-30" x="63.623047"/>
      <use xlink:href="#DejaVuSans-30" x="127.246094"/>
      <use xlink:href="#DejaVuSans-31" x="190.869141"/>
     </g>
    </g>
    <g id="line2d_35">
     <path d="M 353.992813 50.740688 
L 363.992813 50.740688 
L 373.992813 50.740688 
" style="fill: none; stroke: #1ac938; stroke-width: 2; stroke-linecap: square"/>
    </g>
    <g id="text_21">
     <!-- 0010 -->
     <g transform="translate(381.992813 54.240688)scale(0.1 -0.1)">
      <use xlink:href="#DejaVuSans-30"/>
      <use xlink:href="#DejaVuSans-30" x="63.623047"/>
      <use xlink:href="#DejaVuSans-31" x="127.246094"/>
      <use xlink:href="#DejaVuSans-30" x="190.869141"/>
     </g>
    </g>
    <g id="line2d_36">
     <path d="M 353.992813 65.418813 
L 363.992813 65.418813 
L 373.992813 65.418813 
" style="fill: none; stroke: #e8000b; stroke-width: 2; stroke-linecap: square"/>
    </g>
    <g id="text_22">
     <!-- 0011 -->
     <g transform="translate(381.992813 68.918813)scale(0.1 -0.1)">
      <use xlink:href="#DejaVuSans-30"/>
      <use xlink:href="#DejaVuSans-30" x="63.623047"/>
      <use xlink:href="#DejaVuSans-31" x="127.246094"/>
      <use xlink:href="#DejaVuSans-31" x="190.869141"/>
     </g>
    </g>
    <g id="line2d_37">
     <path d="M 353.992813 80.096938 
L 363.992813 80.096938 
L 373.992813 80.096938 
" style="fill: none; stroke: #8b2be2; stroke-width: 2; stroke-linecap: square"/>
    </g>
    <g id="text_23">
     <!-- 0100 -->
     <g transform="translate(381.992813 83.596938)scale(0.1 -0.1)">
      <use xlink:href="#DejaVuSans-30"/>
      <use xlink:href="#DejaVuSans-31" x="63.623047"/>
      <use xlink:href="#DejaVuSans-30" x="127.246094"/>
      <use xlink:href="#DejaVuSans-30" x="190.869141"/>
     </g>
    </g>
    <g id="line2d_38">
     <path d="M 353.992813 94.775063 
L 363.992813 94.775063 
L 373.992813 94.775063 
" style="fill: none; stroke: #9f4800; stroke-width: 2; stroke-linecap: square"/>
    </g>
    <g id="text_24">
     <!-- 0101 -->
     <g transform="translate(381.992813 98.275063)scale(0.1 -0.1)">
      <use xlink:href="#DejaVuSans-30"/>
      <use xlink:href="#DejaVuSans-31" x="63.623047"/>
      <use xlink:href="#DejaVuSans-30" x="127.246094"/>
      <use xlink:href="#DejaVuSans-31" x="190.869141"/>
     </g>
    </g>
    <g id="line2d_39">
     <path d="M 353.992813 109.453188 
L 363.992813 109.453188 
L 373.992813 109.453188 
" style="fill: none; stroke: #f14cc1; stroke-width: 2; stroke-linecap: square"/>
    </g>
    <g id="text_25">
     <!-- 0110 -->
     <g transform="translate(381.992813 112.953188)scale(0.1 -0.1)">
      <use xlink:href="#DejaVuSans-30"/>
      <use xlink:href="#DejaVuSans-31" x="63.623047"/>
      <use xlink:href="#DejaVuSans-31" x="127.246094"/>
      <use xlink:href="#DejaVuSans-30" x="190.869141"/>
     </g>
    </g>
    <g id="line2d_40">
     <path d="M 353.992813 124.131313 
L 363.992813 124.131313 
L 373.992813 124.131313 
" style="fill: none; stroke: #ffc400; stroke-width: 2; stroke-linecap: square"/>
    </g>
    <g id="text_26">
     <!-- 0111 -->
     <g transform="translate(381.992813 127.631313)scale(0.1 -0.1)">
      <use xlink:href="#DejaVuSans-30"/>
      <use xlink:href="#DejaVuSans-31" x="63.623047"/>
      <use xlink:href="#DejaVuSans-31" x="127.246094"/>
      <use xlink:href="#DejaVuSans-31" x="190.869141"/>
     </g>
    </g>
    <g id="line2d_41">
     <path d="M 353.992813 138.809438 
L 363.992813 138.809438 
L 373.992813 138.809438 
" style="fill: none; stroke: #a3a3a3; stroke-width: 2; stroke-linecap: square"/>
    </g>
    <g id="text_27">
     <!-- 1000 -->
     <g transform="translate(381.992813 142.309438)scale(0.1 -0.1)">
      <use xlink:href="#DejaVuSans-31"/>
      <use xlink:href="#DejaVuSans-30" x="63.623047"/>
      <use xlink:href="#DejaVuSans-30" x="127.246094"/>
      <use xlink:href="#DejaVuSans-30" x="190.869141"/>
     </g>
    </g>
    <g id="line2d_42">
     <path d="M 353.992813 153.487563 
L 363.992813 153.487563 
L 373.992813 153.487563 
" style="fill: none; stroke-dasharray: 7.4,3.2; stroke-dashoffset: 0; stroke: #023eff; stroke-width: 2"/>
    </g>
    <g id="text_28">
     <!-- 1001 -->
     <g transform="translate(381.992813 156.987563)scale(0.1 -0.1)">
      <use xlink:href="#DejaVuSans-31"/>
      <use xlink:href="#DejaVuSans-30" x="63.623047"/>
      <use xlink:href="#DejaVuSans-30" x="127.246094"/>
      <use xlink:href="#DejaVuSans-31" x="190.869141"/>
     </g>
    </g>
    <g id="line2d_43">
     <path d="M 353.992813 168.165688 
L 363.992813 168.165688 
L 373.992813 168.165688 
" style="fill: none; stroke-dasharray: 7.4,3.2; stroke-dashoffset: 0; stroke: #ff7c00; stroke-width: 2"/>
    </g>
    <g id="text_29">
     <!-- 1010 -->
     <g transform="translate(381.992813 171.665688)scale(0.1 -0.1)">
      <use xlink:href="#DejaVuSans-31"/>
      <use xlink:href="#DejaVuSans-30" x="63.623047"/>
      <use xlink:href="#DejaVuSans-31" x="127.246094"/>
      <use xlink:href="#DejaVuSans-30" x="190.869141"/>
     </g>
    </g>
    <g id="line2d_44">
     <path d="M 353.992813 182.843813 
L 363.992813 182.843813 
L 373.992813 182.843813 
" style="fill: none; stroke-dasharray: 7.4,3.2; stroke-dashoffset: 0; stroke: #1ac938; stroke-width: 2"/>
    </g>
    <g id="text_30">
     <!-- 1011 -->
     <g transform="translate(381.992813 186.343813)scale(0.1 -0.1)">
      <use xlink:href="#DejaVuSans-31"/>
      <use xlink:href="#DejaVuSans-30" x="63.623047"/>
      <use xlink:href="#DejaVuSans-31" x="127.246094"/>
      <use xlink:href="#DejaVuSans-31" x="190.869141"/>
     </g>
    </g>
    <g id="line2d_45">
     <path d="M 353.992813 197.521938 
L 363.992813 197.521938 
L 373.992813 197.521938 
" style="fill: none; stroke-dasharray: 7.4,3.2; stroke-dashoffset: 0; stroke: #e8000b; stroke-width: 2"/>
    </g>
    <g id="text_31">
     <!-- 1100 -->
     <g transform="translate(381.992813 201.021938)scale(0.1 -0.1)">
      <use xlink:href="#DejaVuSans-31"/>
      <use xlink:href="#DejaVuSans-31" x="63.623047"/>
      <use xlink:href="#DejaVuSans-30" x="127.246094"/>
      <use xlink:href="#DejaVuSans-30" x="190.869141"/>
     </g>
    </g>
    <g id="line2d_46">
     <path d="M 353.992813 212.200063 
L 363.992813 212.200063 
L 373.992813 212.200063 
" style="fill: none; stroke-dasharray: 7.4,3.2; stroke-dashoffset: 0; stroke: #8b2be2; stroke-width: 2"/>
    </g>
    <g id="text_32">
     <!-- 1101 -->
     <g transform="translate(381.992813 215.700063)scale(0.1 -0.1)">
      <use xlink:href="#DejaVuSans-31"/>
      <use xlink:href="#DejaVuSans-31" x="63.623047"/>
      <use xlink:href="#DejaVuSans-30" x="127.246094"/>
      <use xlink:href="#DejaVuSans-31" x="190.869141"/>
     </g>
    </g>
    <g id="line2d_47">
     <path d="M 353.992813 226.878187 
L 363.992813 226.878187 
L 373.992813 226.878187 
" style="fill: none; stroke-dasharray: 7.4,3.2; stroke-dashoffset: 0; stroke: #9f4800; stroke-width: 2"/>
    </g>
    <g id="text_33">
     <!-- 1110 -->
     <g transform="translate(381.992813 230.378187)scale(0.1 -0.1)">
      <use xlink:href="#DejaVuSans-31"/>
      <use xlink:href="#DejaVuSans-31" x="63.623047"/>
      <use xlink:href="#DejaVuSans-31" x="127.246094"/>
      <use xlink:href="#DejaVuSans-30" x="190.869141"/>
     </g>
    </g>
    <g id="line2d_48">
     <path d="M 353.992813 241.556312 
L 363.992813 241.556312 
L 373.992813 241.556312 
" style="fill: none; stroke-dasharray: 7.4,3.2; stroke-dashoffset: 0; stroke: #f14cc1; stroke-width: 2"/>
    </g>
    <g id="text_34">
     <!-- 1111 -->
     <g transform="translate(381.992813 245.056312)scale(0.1 -0.1)">
      <use xlink:href="#DejaVuSans-31"/>
      <use xlink:href="#DejaVuSans-31" x="63.623047"/>
      <use xlink:href="#DejaVuSans-31" x="127.246094"/>
      <use xlink:href="#DejaVuSans-31" x="190.869141"/>
     </g>
    </g>
   </g>
  </g>
 </g>
 <defs>
  <clipPath id="p76bdbbfb16">
   <rect x="57.042813" y="7.2" width="279" height="221.76"/>
  </clipPath>
 </defs>
</svg>
